<?xml version="1.0" encoding="UTF-8" standalone="no"?>
<svg
   width="470.69348mm"
   height="111.43694mm"
   viewBox="-81 -50 470.69348 111.43694"
   version="1.1"
   id="svg1"
   sodipodi:docname="title-perspective.svg"
   inkscape:version="1.3.2 (091e20e, 2023-11-25, custom)"
   inkscape:export-filename="title-perspective-export.svg"
   inkscape:export-xdpi="96"
   inkscape:export-ydpi="96"
   xmlns:inkscape="http://www.inkscape.org/namespaces/inkscape"
   xmlns:sodipodi="http://sodipodi.sourceforge.net/DTD/sodipodi-0.dtd"
   xmlns="http://www.w3.org/2000/svg"
   xmlns:svg="http://www.w3.org/2000/svg"
   xmlns:rdf="http://www.w3.org/1999/02/22-rdf-syntax-ns#"
   xmlns:cc="http://creativecommons.org/ns#"
   xmlns:dc="http://purl.org/dc/elements/1.1/">
  <defs
     id="defs1">
    <inkscape:path-effect
       effect="perspective-envelope"
       up_left_point="-80.82315,-84.695612"
       up_right_point="389.24625,-84.695612"
       down_left_point="-80.8229,100"
       down_right_point="389.246,-50"
       id="path-effect4"
       is_visible="true"
       lpeversion="1"
       deform_type="perspective"
       horizontal_mirror="false"
       vertical_mirror="false"
       overflow_perspective="false" />
  </defs>
  <sodipodi:namedview
     id="namedview1"
     pagecolor="#ffffff"
     bordercolor="#000000"
     borderopacity="0.25"
     inkscape:showpageshadow="2"
     inkscape:pageopacity="0.0"
     inkscape:pagecheckerboard="0"
     inkscape:deskcolor="#d1d1d1"
     inkscape:document-units="mm"
     showguides="true"
     inkscape:zoom="0.39406626"
     inkscape:cx="834.88498"
     inkscape:cy="356.53902"
     inkscape:window-width="1920"
     inkscape:window-height="1027"
     inkscape:window-x="-8"
     inkscape:window-y="1072"
     inkscape:window-maximized="1"
     inkscape:current-layer="svg1" />
  <title
     id="title1">OpenSCAD Model</title>
  <path
     d="m 182.30622,13.84145 9.85121,-7.232291 8.44773,-8.3637965 6.88305,-9.1346425 5.21954,-9.582785 1.88944,-5.260915 -3.94936,0.50027 -7.41961,1.535504 -1.64403,4.332958 -4.56407,8.294556 -5.77098,7.692037 -6.84146,6.7796138 -7.72128,5.5449221 -8.34547,3.9872731 -3.61056,0.888714 -7.84079,-0.01366 -7.73161,-2.246764 -6.73287,-4.5084198 -5.28802,-6.64099199 -3.46366,-8.47153651 -1.37528,-9.8374627 0.35133,-4.546271 6.12094,-0.801786 31.59551,-4.358808 26.32635,-3.826751 21.36214,-3.287396 16.84917,-2.773249 12.79373,-2.295702 9.13305,-1.854333 5.77388,-1.442395 2.61222,-1.049883 0.0575,-0.75405 -0.4584,-0.666341 -3.54366,-0.286199 -6.75159,0.113102 -10.18868,0.546659 -13.95635,1.030407 -18.14149,1.580718 -22.79128,2.211676 -27.86661,2.930166 -26.83507,3.015111 1.32915,-4.83536 4.85627,-10.215612 6.40588,-9.124025 7.52155,-7.585506 8.17512,-5.745766 8.38308,-3.750851 8.19266,-1.728255 3.29711,0.09521 6.70215,1.950757 6.05814,3.698946 4.8815,5.115046 3.60214,6.299012 2.25723,7.246258 0.0728,0.661496 4.06408,-0.129644 6.59067,-0.739146 -0.9536,-4.701556 -3.5199,-7.923507 -5.2392,-6.870005 -6.90201,-5.558432 -8.46521,-3.975211 -9.86629,-2.11474 -4.91236,-0.353426 h -11.37019 l -12.20283,2.392277 -12.53558,4.937536 -12.23202,7.501066 -11.18088,9.892933 -9.32956,11.881846 -6.72119,13.227421 -1.14868,4.486573 -10.300641,1.228984 -41.950091,5.313472 -43.0534747,5.827157 -39.6994613,5.848982 -30.488964,5.1379693 -15.525868,3.6038144 -0.355377,1.9005453 2.816113,1.43510097 20.541974,-0.95017877 33.937817,-2.9801702 41.317747,-4.3399299 43.150525,-4.9924021 37.248075,-4.612868 0.01598,10.1076256 3.555126,11.910487 6.75548,9.7590784 9.35554,7.073988 11.19781,4.136337 12.23975,1.20782 12.53504,-1.507578 5.64995,-1.417881 11.8054,-3.767128 z m -84.864054,-33.174124 -37.915345,4.602352 -38.452504,4.333224 -35.127555,3.5370299 -26.913039,2.1428097 -12.439037,0.2271192 16.99349,-3.657058 29.1470649,-4.9563378 36.2737421,-5.510581 38.652626,-5.446502 32.371541,-4.293173 -1.84901,7.221659 0.0028,1.703596 z m 130.349374,-18.384146 -17.2077,2.764899 -21.48178,3.240679 -26.04946,3.720246 -30.29182,4.10918 0.35764,-4.627851 1.14754,-4.174746 4.96458,-0.622739 29.72262,-3.522513 25.06408,-2.787666 20.54339,-2.1137 16.34214,-1.511912 12.50296,-0.978244 8.99336,-0.501509 5.74407,-0.06795 2.38379,0.3005 -3.29687,1.092154 -6.42389,1.484104 -9.7206,1.885536 z m 0.22808,-27.129097 0.63311,-1.758683 0.91069,-1.614946 1.14313,-1.39781 1.32057,-1.119365 1.43573,-0.794519 1.4853,-0.439461 0.73253,-0.03544 0.008,-0.04635 0,-0.04596 -1.10986,-0.04425 -1.04325,-0.219839 -1.3075,-0.661454 -1.13272,-0.998861 -0.90325,-1.293989 -0.62931,-1.531737 -0.32379,-1.698939 -0.002,-1.739426 -3.5494,-0.246422 -0.009,1.33e-4 -0.32073,1.769391 -0.64871,1.751314 -0.94398,1.613877 -1.20353,1.408903 -1.41649,1.142678 -1.57283,0.824245 -1.66457,0.464991 -0.83532,0.03918 -0.009,0.04966 0,0.04923 1.26201,0.04394 1.16645,0.228315 1.43537,0.683323 1.22059,1.021065 0.95824,1.312407 0.65991,1.547473 0.33711,1.718785 0.002,1.772546 3.59039,0.01918 0.009,-6.87e-4 z m 15.74843,-12.420979 0.60277,-1.285519 -0.38854,-1.260517 -1.09314,-0.293945 -3.1958,-0.231491 -1.00498,0.914064 -0.12388,1.441992 0.85263,0.872522 3.20249,0.191748 z m 108.3374,20.377992 0.31814,-0.141133 0.29363,-0.189684 0.26973,-0.238104 0.22713,-0.266326 0.16564,-0.274633 0.10524,-0.283373 0.0441,-0.292273 -0.0166,-0.286721 -0.0796,-0.253699 -0.14189,-0.221102 -0.20553,-0.188544 -0.25129,-0.143616 -0.28038,-0.08568 -0.30981,-0.02744 -1.03728,0.01311 -0.34446,0.03139 -0.34229,0.08525 -0.32202,0.136404 -0.30147,0.187847 -0.28032,0.239452 -0.23856,0.271493 -0.17529,0.283705 -0.11123,0.295538 -0.0476,0.307139 0.0183,0.289702 0.0845,0.256517 0.15013,0.223098 0.21606,0.189373 0.26221,0.142247 0.28841,0.08209 0.31464,0.02216 1.04933,-0.03488 0.33538,-0.03698 z m -66.50057,8.977012 -2.21075,0.142823 -4.55924,0.784585 -2.10414,29.297608 2.34905,-0.46655 4.54952,-1.383014 z m 58.72286,-2.975515 3.54631,-0.780324 0.078,-1.578403 -1.09988,0.06148 -2.43409,0.507539 0.26486,-5.254732 -1.14814,0.02765 -2.36505,0.410277 -0.28656,5.553873 -3.3338,0.695138 -0.0888,1.688935 1.23986,-0.09322 2.08856,-0.459563 -0.68223,13.227026 1.19985,-0.188116 2.36058,-0.717595 z m 13.85842,3.849074 0.0726,-1.22072 0.097,-1.022808 0.12101,-0.824693 0.14519,-0.626696 0.30544,-0.79188 0.41535,-0.754315 0.5233,-0.715231 0.62876,-0.674884 0.69595,-0.593089 0.72601,-0.471314 0.75471,-0.351063 0.78234,-0.232434 0.41737,-0.06606 0.47354,0.07727 0.44542,0.177454 0.37354,0.269467 0.30118,0.360785 0.22978,0.452056 0.15913,0.543485 0.0649,0.435016 0.0327,0.621209 8.2e-4,0.807732 -0.031,0.994793 -0.26103,6.023107 0.84363,-0.108416 1.64334,-0.49956 0.27106,-6.374655 0.0176,-1.169382 -0.0552,-0.987353 -0.12768,-0.806967 -0.20085,-0.627257 -0.27551,-0.49999 -0.35247,-0.424637 -0.43067,-0.349497 -0.51013,-0.274197 -0.57534,-0.188438 -0.62627,-0.09134 -0.67857,0.007 -0.86857,0.03007 -0.742,0.10776 -0.74878,0.195175 -0.73198,0.274231 -0.7142,0.354403 -0.69634,0.435766 -0.6769,0.518605 -0.65771,0.603375 -0.25111,0.271518 0.0572,-1.247635 -0.94885,0.04188 -1.93667,0.40382 -0.63669,13.619095 0.98384,-0.139168 1.92729,-0.58588 z m -50.46885,20.60381 1.38412,-0.535995 1.29203,-0.580433 1.2044,-0.624965 1.12743,-0.668852 1.06268,-0.712264 0.99884,-0.755267 0.93795,-0.798462 0.88031,-0.852644 0.82628,-0.917514 0.7731,-0.981989 0.72168,-1.046528 -2.60007,-0.253628 -1.61444,0.235126 -0.78304,1.007795 -0.75556,0.888592 -0.72788,0.767693 -0.6989,0.644662 -0.72141,0.575522 -0.79644,0.561374 -0.87333,0.54767 -0.95171,0.534283 -1.00233,0.501979 -1.02348,0.450199 -1.04515,0.397653 -1.06735,0.344309 -1.11119,0.260571 -1.17528,0.115131 -1.8056,-0.122891 -1.63166,-0.447239 -1.35213,-0.747401 -0.961,-1.019461 -0.55904,-1.288987 -0.14968,-1.553139 24.41623,-6.293659 -0.0836,-1.629438 -0.41133,-1.409401 -0.74458,-1.195344 -1.08517,-0.985565 -1.96269,-1.017157 -2.36184,-0.542562 -2.79061,-0.05231 -1.7208,0.146834 -3.31584,0.466918 -3.36218,0.91167 -3.13685,1.316619 -2.88337,1.734361 -2.604,2.161379 -1.72498,1.885242 -1.2866,1.907073 -0.83128,1.916332 -0.36484,1.912698 0.14801,1.900403 0.71773,1.638776 1.27576,1.366405 1.81262,1.088156 2.27089,0.68171 2.64842,0.159062 2.99403,-0.344201 1.86133,-0.348351 3.24471,-0.809822 z m -11.5195,-8.593089 0.61917,-1.154038 0.88535,-1.271997 1.00764,-1.128778 1.12615,-0.985578 1.6769,-1.149754 1.78193,-0.942368 1.88171,-0.738916 1.97365,-0.539551 1.0393,-0.190817 0.6957,-0.02207 1.07897,0.05549 0.99673,0.138279 0.87948,0.213361 0.76538,0.287693 0.65453,0.361538 0.55728,0.451426 0.47355,0.557365 0.39213,0.662963 0.3107,0.769003 z m 33.94884,1.673286 1.20906,-0.621801 1.08907,-0.748731 0.97388,-0.874594 0.80583,-0.93722 0.58547,-0.939072 0.36933,-0.944296 0.15694,-0.953563 -0.0277,-0.645609 -0.15572,-0.577699 -0.28442,-0.510908 -0.41449,-0.444977 -0.60728,-0.378934 -0.84675,-0.332014 -1.09315,-0.285958 -1.34967,-0.240106 -1.11729,-0.187204 -0.91485,-0.21162 -0.70602,-0.235615 -0.49139,-0.259057 -0.33335,-0.280428 -0.23258,-0.314913 -0.13099,-0.348922 -0.0285,-0.382546 0.0858,-0.451653 0.20768,-0.45093 0.32818,-0.449253 0.44684,-0.446422 0.52652,-0.407083 0.56697,-0.331539 0.60657,-0.256548 0.63677,-0.179762 0.7298,0.048 1.03308,0.263901 1.02126,0.455618 1.31275,-0.114513 1.72727,-1.701528 -1.34369,-0.616364 -1.37609,-0.361874 -1.40955,-0.100916 -1.35167,0.09355 -1.46736,0.168814 -1.23566,0.330419 -1.14913,0.465948 -1.05825,0.603447 -0.96465,0.742531 -0.81264,0.832692 -0.60028,0.87162 -0.38442,0.907935 -0.16471,0.940733 0.0293,0.695974 0.17343,0.621409 0.31522,0.545889 0.45691,0.469095 0.64779,0.4005 0.88623,0.33998 1.11779,0.278782 1.34027,0.2176 1.2194,0.176353 0.9643,0.192942 0.71761,0.210119 0.47708,0.227908 0.31007,0.268398 0.21371,0.316814 0.11855,0.365571 0.0233,0.414973 -0.0987,0.537451 -0.23924,0.54369 -0.38058,0.551206 -0.52385,0.560116 -0.62658,0.526015 -0.68754,0.447515 -0.74993,0.368498 -0.81347,0.28866 -0.0643,0.01281 -0.85696,-2.06e-4 -1.11475,-0.240325 -1.08233,-0.48473 -1.47547,0.223625 -1.98063,2.097578 0.61566,0.341684 0.69397,0.25569 0.77039,0.170347 0.84425,0.08597 0.88964,0.0011 0.90705,-0.08352 1.43032,-0.244034 0.9081,-0.164072 0.92398,-0.245349 z m -77.3694,23.7436702 2.29363,-0.8465872 2.13317,-0.890124 1.9802,-0.933876 1.84811,-0.978636 1.73536,-1.023623 1.62701,-1.068824 1.52263,-1.114153 1.42509,-1.174107 1.3342,-1.248082 1.24598,-1.321852 1.16038,-1.395689 -4.19175,-0.07682 -2.6195,0.452738 -1.27453,1.361311 -1.23309,1.209538 -1.19038,1.054738 -1.14592,0.896608 -1.18487,0.812053 -1.31095,0.803505 -1.44108,0.795992 -1.57552,0.789543 -1.66386,0.755596 -1.7042,0.69337 -1.74567,0.629958 -1.78838,0.56533 -1.86827,0.463547 -1.98355,0.283556 -3.06005,0.04645 -2.78071,-0.396952 -2.31372,-0.824273 -1.65097,-1.228166 -0.96249,-1.629793 -0.25881,-2.022855 40.56683,-10.456724 -0.13377,-2.054788 -0.65975,-1.750119 -1.19484,-1.455031 -1.74695,-1.165607 -3.17338,-1.143298 -3.8436,-0.513886 -4.57676,0.143667 -2.84107,0.31955 -5.51831,0.858761 -5.65155,1.449075 -5.32525,1.97414 -4.94119,2.519283 -4.50035,3.078388 -3.00064,2.651754 -2.2488,2.650139 -1.45797,2.624589 -0.64138,2.575023 0.26088,2.502606 1.25979,2.0878416 2.23184,1.6560673 3.15662,1.2170811 3.92957,0.6202221 4.54757,-0.1137052 5.09718,-0.8097767 3.1459,-0.6742921 5.43985,-1.4274825 z m -19.47415,-9.9352432 1.06475,-1.57467 1.51786,-1.751256 1.72301,-1.570762 1.91965,-1.389867 2.84551,-1.647046 3.0085,-1.378606 3.15808,-1.115936 3.29379,-0.860062 1.72684,-0.330728 1.15281,-0.08486 1.78265,-0.01592 1.64179,0.0969 1.44464,0.202236 1.2542,0.306042 1.06949,0.408961 0.90929,0.530858 0.77222,0.671952 0.6377,0.812797 0.5055,0.9538 z m 143.98374,-28.19236 0.55844,-0.242336 0.52398,-0.278454 0.4908,-0.314444 0.46152,-0.349372 0.43686,-0.383228 0.41249,-0.416888 0.38837,-0.450319 0.36602,-0.490843 0.3447,-0.538017 0.32353,-0.58494 0.30311,-0.631881 -1.08748,-0.327539 -0.66955,0.0507 -0.32324,0.598269 -0.31097,0.521804 -0.2987,0.444688 -0.28603,0.36669 -0.29442,0.320066 -0.3241,0.305146 -0.354,0.290255 -0.38491,0.275608 -0.40361,0.250614 -0.41053,0.215444 -0.41756,0.179937 -0.42447,0.14401 -0.44032,0.08782 -0.46393,-0.0081 -0.70835,-0.199956 -0.63596,-0.389082 -0.52404,-0.554881 -0.37084,-0.695687 -0.21486,-0.835083 -0.0578,-0.97195 9.83079,-2.534039 -0.0353,-1.063205 -0.17358,-0.937846 -0.31312,-0.815255 -0.45472,-0.694694 -0.81753,-0.755956 -0.97552,-0.4651 -1.14115,-0.168594 -0.69733,0.01073 -1.33142,0.13682 -1.33266,0.411937 -1.22807,0.670347 -1.11606,0.93441 -0.99758,1.202625 -0.6555,1.069317 -0.48618,1.100664 -0.31288,1.127758 -0.13702,1.150365 0.0558,1.17346 0.26986,1.050785 0.48121,0.923582 0.68803,0.793135 0.86859,0.578864 1.0224,0.28523 1.1682,-0.0023 0.73296,-0.08594 1.29022,-0.279414 z m -4.53488,-6.133378 0.23876,-0.681104 0.34235,-0.74132 0.39104,-0.647875 0.43879,-0.554559 0.65686,-0.63093 0.70261,-0.499125 0.74715,-0.369028 0.78945,-0.240718 0.41813,-0.06825 0.28105,0.02128 0.4368,0.09041 0.40534,0.139355 0.35895,0.181817 0.31361,0.224007 0.26851,0.266251 0.22934,0.319356 0.19528,0.383556 0.16198,0.447653 0.12873,0.511913 z m 13.96695,3.210968 0.53243,-0.330294 0.48199,-0.424581 0.433,-0.518148 0.35923,-0.572909 0.26187,-0.590204 0.1657,-0.608756 0.0702,-0.628868 -0.0125,-0.434178 -0.0698,-0.396311 -0.12747,-0.358964 -0.1855,-0.322055 -0.27122,-0.288535 -0.37686,-0.270269 -0.48507,-0.252525 -0.59571,-0.235372 -0.49072,-0.186229 -0.40016,-0.190411 -0.30782,-0.194177 -0.21373,-0.197493 -0.14475,-0.202717 -0.10088,-0.219802 -0.0566,-0.236683 -0.0125,-0.253254 0.0374,-0.292917 0.0899,-0.286239 0.14245,-0.279341 0.19425,-0.271916 0.22935,-0.242482 0.2475,-0.191069 0.26541,-0.139933 0.27932,-0.08791 0.321,0.06756 0.45603,0.226306 0.45267,0.35443 0.58462,-0.01013 0.77418,-1.053419 -0.60276,-0.477262 -0.6137,-0.306497 -0.62511,-0.132801 -0.5961,-4.24e-4 -0.64348,0.04402 -0.53894,0.161045 -0.49862,0.253432 -0.45755,0.346941 -0.41523,0.441093 -0.34835,0.505801 -0.25696,0.540329 -0.1639,0.573704 -0.0704,0.605832 0.0127,0.45592 0.0737,0.415176 0.13477,0.373797 0.19515,0.332016 0.27756,0.298388 0.3809,0.273024 0.48254,0.247021 0.58117,0.220773 0.53128,0.187653 0.42213,0.184424 0.3152,0.181836 0.21006,0.179744 0.13674,0.196901 0.0943,0.22346 0.0524,0.250225 0.0105,0.277235 -0.0438,0.351143 -0.10563,0.346192 -0.16782,0.341804 -0.23058,0.337937 -0.27516,0.307947 -0.30114,0.251256 -0.32732,0.194211 -0.35435,0.136911 -0.0279,0.0042 -0.37175,-0.05659 -0.48169,-0.230946 -0.46543,-0.388027 -0.63176,0.05163 -0.84202,1.238395 0.26124,0.263456 0.29478,0.213408 0.32842,0.163364 0.36106,0.113686 0.38199,0.0615 0.39044,0.0074 0.61888,-0.06233 0.39477,-0.04579 0.40314,-0.0986 z m -34.04464,-3.575387 -1.03114,0.05244 -2.12153,0.442366 -0.6932,14.217989 1.07105,-0.158717 2.11082,-0.641671 z"
     stroke="#000000"
     fill="#d3d3d3"
     stroke-width="0.5"
     id="path1"
     inkscape:original-d="m 9.80925,47.7205 6.42195,-4.2354 5.8459,-6.1206 5.0145,-7.7385 3.9639,-9.0179 1.4709,-5.3166 -3.0525,-0.3486 h -5.5135 l -1.1843,4.1972 -3.22,7.5456 -3.9343,6.3794 -4.4765,4.9342 -4.82319,3.2735 -4.95901,1.4697 -2.068483,-0.1689 -4.341157,-2.1299 -4.08961,-4.0013 -3.41645,-5.5789 -2.5939,-6.9125 -1.6582,-7.944 -0.6497,-8.62837 0.1655,-3.82257 2.9354,0.20926 L 2.54309,4.76054 19.3285,5.5477 35.2692,6.09241 49.6685,6.37085 H 61.897 L 71.4203,6.09241 77.8222,5.5477 80.8229,4.76054 80.8897,3.76434 80.358,2.76912 76.3172,1.60933 68.944,0.335663 58.5604,-0.996185 45.6204,-2.32806 30.6895,-3.60172 14.4203,-4.76151 -2.47632,-5.75673 -16.2971,-6.40488 l 0.6363,-4.00442 2.3651,-8.3822 3.22,-7.5456 3.93427,-6.3794 4.47653,-4.9342 4.82316,-3.2735 4.95902,-1.4697 2.06852,0.1689 4.3411,2.1299 4.0896,4.0014 3.4165,5.5788 2.5939,6.9125 1.6581,7.944 0.0539,0.7155 3.0525,0.3486 h 5.138 l -0.7583,-5.3165 -2.7551,-9.018 -3.9772,-7.7384 -5.0256,-6.1207 -5.8542,-4.2353 -6.42704,-2.165 -3.05252,-0.3487 h -6.718945 l -6.717225,2.165 -6.42197,4.2354 -5.8459,6.1207 -5.0145,7.7384 -3.9639,9.018 -2.74,9.9034 -0.459,3.4041 -4.0005,-0.13671 -14.3992,-0.27842 h -12.2285 l -9.5233,0.27842 -6.4019,0.54471 -3.0007,0.78717 -0.0668,0.99619 0.5316,0.99522 4.0408,1.15979 7.3733,1.27367 L -58.4937,0 l 12.94,1.33186 13.4163,1.14446 0.0063,7.87968 1.4125,9.9034 2.7551,9.018 3.9772,7.7384 5.0256,6.1207 5.8542,4.2354 6.42706,2.165 3.05252,0.3486 H 3.09203 Z M -32.431,1.30801 -46.0182,0.181641 -57.5913,-0.996185 -66.6444,-2.17403 -72.782,-3.3004 l -2.6343,-0.91475 3.6295,-0.69098 6.7938,-0.48172 9.6344,-0.24623 h 12.0538 L -31.408,-5.42404 -32.1394,0 -32.1383,1.32802 Z M 43.3715,4.63789 29.4251,4.39165 14.1955,3.90994 -1.65147,3.21381 -17.2364,2.34412 l 0.1689,-3.9011 0.5442,-3.42489 2.3945,0.07574 15.84705,0.69612 15.77195,0.88015 15.0075,1.02566 13.5872,1.12636 L 57.658,0 l 9.0532,1.17784 6.1376,1.12636 2.6343,0.91475 -3.6295,0.69099 -6.7939,0.48171 -9.6344,0.24624 z m 0.1967,-31.26529 0.548,-1.9807 0.7928,-1.8036 1.0028,-1.5477 1.1692,-1.2241 1.2844,-0.8471 1.3435,-0.433 h 0.6682 l 0.0073,-0.0546 v -0.0546 l -1.011,-0.1154 -0.9426,-0.3176 -1.1709,-0.847 -1.0051,-1.2242 -0.7954,-1.5476 -0.551,-1.8036 -0.2825,-1.9807 -0.0016,-2.0167 -3.0526,-0.3486 h -0.0074 l -0.2719,2.0166 -0.548,1.9807 -0.7928,1.8036 -1.0029,1.5477 -1.1692,1.2241 -1.2843,0.8471 -1.3435,0.433 h -0.6682 l -0.0073,0.0546 v 0.0546 l 1.011,0.1154 0.9426,0.3176 1.1708,0.847 1.0052,1.2242 0.7954,1.5477 0.551,1.8035 0.2825,1.9807 0.0016,2.0167 3.0525,0.3486 h 0.0074 z m 14.442,-13.8045 0.5884,-1.5577 -0.3796,-1.5578 -1.0618,-0.3847 -3.0526,-0.3486 -0.9444,1.078 -0.1159,1.7289 0.8,1.078 3.0525,0.3486 z m 183.8648,50.28856 0.943,-0.17229 0.874,-0.28715 0.806,-0.40203 0.681,-0.48138 0.498,-0.52527 0.317,-0.56915 0.133,-0.61304 -0.05,-0.62485 -0.24,-0.57756 -0.427,-0.53021 -0.617,-0.48291 -0.752,-0.40201 -0.836,-0.28717 -0.92,-0.17227 -3.052,-0.34863 -1.004,-0.05742 -0.993,0.05742 -0.93,0.17228 -0.867,0.28716 -0.803,0.40202 -0.681,0.48291 -0.499,0.53022 -0.316,0.57754 -0.135,0.62486 0.052,0.61303 0.24,0.56916 0.427,0.52526 0.616,0.4814 0.75,0.402 0.828,0.28716 0.907,0.17229 3.053,0.34863 0.985,0.05742 z M 106.78,4.42863 103.727,4.08002 h -6.1017 l -2.731,40.74878 3.0525,0.3486 h 6.1022 z M 220.036,19.0201 h 9.677 l 0.218,-3.2424 -3.053,-0.3486 h -6.601 l 0.708,-10.56812 -3.052,-0.34862 h -6.146 l -0.732,10.91674 h -8.325 l -0.217,3.2424 3.052,0.3486 h 5.25 l -1.73,25.8087 3.053,0.3486 h 6.145 z m 40.606,15.3757 0.234,-2.6786 0.313,-2.226 0.391,-1.7734 0.47,-1.3207 0.992,-1.6076 1.356,-1.4726 1.72,-1.3375 2.084,-1.2024 2.329,-0.9932 2.455,-0.7094 2.58,-0.4257 2.705,-0.1418 1.456,0.0583 1.663,0.4215 1.575,0.6443 1.329,0.8267 1.077,1.0074 0.825,1.1881 0.573,1.3686 0.234,1.0625 0.118,1.4845 0.003,1.9067 -0.112,2.3288 -0.94,14.0245 3.052,0.3486 h 6.059 l 1.014,-15.1322 0.066,-2.8018 -0.207,-2.4065 -0.478,-2.0114 -0.75,-1.6161 -1.025,-1.3462 -1.305,-1.2008 -1.585,-1.0556 -1.864,-0.9102 -2.085,-0.7331 -2.249,-0.5236 -2.413,-0.3142 -3.053,-0.3486 -2.577,-0.1048 -2.572,0.0938 -2.487,0.2812 -2.401,0.4687 -2.317,0.6562 -2.23,0.8452 -2.146,1.036 -0.814,0.4849 0.185,-2.7606 -3.052,-0.3486 h -6.103 l -1.97,29.3997 3.052,0.3486 h 6.103 z m -119.421,11.4767 2.424,-0.185 2.295,-0.3082 2.168,-0.4314 2.055,-0.5499 1.96,-0.6629 1.863,-0.776 1.768,-0.889 1.676,-1.0201 1.588,-1.1688 1.499,-1.3174 1.411,-1.466 -5.031,-1.6751 -3.052,-0.3487 -1.461,1.3461 -1.398,1.1467 -1.336,0.9475 -1.273,0.7481 -1.304,0.6165 -1.428,0.5523 -1.552,0.4881 -1.675,0.424 -1.746,0.3427 -1.764,0.2448 -1.782,0.1469 -1.8,0.049 -1.853,-0.1061 -1.937,-0.366 -2.931,-1.026 -2.603,-1.4364 -2.125,-1.7573 -1.493,-1.9887 -0.862,-2.22 -0.23,-2.4514 h 42.629 l -0.166,-2.8879 -0.814,-2.638 -1.464,-2.388 -2.112,-2.1381 -3.756,-2.4945 -4.414,-1.7819 -5.072,-1.0691 -3.053,-0.3486 -5.729,-0.3564 -5.611,0.348 -5.064,1.0437 -4.516,1.7396 -3.969,2.4355 -2.574,2.2646 -1.892,2.4167 -1.21,2.5687 -0.528,2.7207 0.214,2.8956 1.042,2.742 1.87,2.5883 2.697,2.4346 3.447,2.0629 4.119,1.4735 4.79,0.8841 3.052,0.3486 5.462,0.2947 z m -18.884,-18.7158 0.96,-1.5514 1.383,-1.6467 1.589,-1.3933 1.795,-1.14 2.711,-1.2177 2.932,-0.8698 3.155,-0.5219 3.376,-0.174 1.806,0.0601 1.22,0.2147 1.91,0.4848 1.784,0.5978 1.59,0.6857 1.396,0.7735 1.203,0.8614 1.031,0.9812 0.881,1.1332 0.733,1.2852 0.583,1.4372 z m 63.09,18.6203 2.721,-0.4711 2.485,-0.7853 2.25,-1.0993 1.882,-1.3258 1.379,-1.4644 0.875,-1.6027 0.373,-1.7413 -0.066,-1.2514 -0.37,-1.1873 -0.674,-1.1231 -0.978,-1.0589 -1.424,-1.0235 -1.968,-1.0437 -2.511,-1.064 -3.055,-1.0843 -2.492,-0.8631 -2.016,-0.8055 -1.541,-0.7481 -1.065,-0.6906 -0.719,-0.657 -0.5,-0.6739 -0.281,-0.6907 -0.061,-0.7076 0.184,-0.7854 0.446,-0.7346 0.707,-0.684 0.967,-0.6332 1.146,-0.5321 1.242,-0.38 1.338,-0.228 1.415,-0.075 1.635,0.3866 2.339,0.9204 2.341,1.2885 3.052,0.3486 4.091,-2.5128 -3.19,-1.7379 -3.213,-1.2414 -3.236,-0.7448 -3.052,-0.3487 -3.258,-0.2483 -2.7,0.1386 -2.476,0.4154 -2.251,0.6925 -2.028,0.9695 -1.691,1.1787 -1.239,1.3206 -0.789,1.4626 -0.337,1.6044 0.06,1.2481 0.355,1.1772 0.647,1.1063 0.942,1.0354 1.344,1.0031 1.855,1.0099 2.367,1.0166 2.879,1.0233 2.659,0.9053 2.13,0.8242 1.601,0.7432 1.072,0.6621 0.7,0.657 0.484,0.7008 0.269,0.7448 0.053,0.7888 -0.224,0.9541 -0.542,0.89 -0.859,0.8259 -1.176,0.7617 -1.397,0.6384 -1.521,0.456 -1.645,0.2736 -1.768,0.0912 -0.139,-0.0111 -1.843,-0.4577 -2.37,-1.0219 -2.272,-1.4306 -3.052,-0.3486 -4.017,2.7025 1.239,0.9203 1.407,0.8157 1.575,0.7111 1.742,0.6064 1.854,0.4846 1.91,0.3462 3.053,0.3487 1.965,0.2077 2.021,0.0692 z m -118.3204,0.0955 2.4235,-0.185 2.2954,-0.3082 2.1675,-0.4314 2.0556,-0.5499 1.9596,-0.6629 1.8637,-0.776 1.7678,-0.889 1.6757,-1.0201 1.5877,-1.1688 1.4995,-1.3174 1.4113,-1.466 -5.0313,-1.6751 -3.0525,-0.3487 -1.4606,1.3461 -1.3981,1.1467 -1.3359,0.9475 -1.2734,0.7481 -1.3039,0.6165 -1.4277,0.5523 -1.5516,0.4881 -1.6754,0.424 -1.746,0.3427 -1.764,0.2448 -1.7819,0.1469 -1.7998,0.049 -1.853,-0.1061 -1.9376,-0.366 -2.9307,-1.026 -2.6035,-1.4364 -2.1243,-1.7573 -1.4931,-1.9887 -0.8619,-2.22 -0.2307,-2.4514 h 42.6297 l -0.1658,-2.8879 -0.8148,-2.638 -1.4636,-2.388 -2.1124,-2.1381 -3.7559,-2.4945 -4.4139,-1.7819 -5.0719,-1.0691 -3.0525,-0.3486 -5.7299,-0.3564 -5.6108,0.348 -5.0636,1.0437 -4.5163,1.7396 -3.9692,2.4355 -2.5736,2.2646 -1.8919,2.4167 -1.2101,2.5687 -0.5283,2.7207 0.2146,2.8956 1.042,2.742 1.8696,2.5883 2.6971,2.4346 3.447,2.0629 4.1185,1.4735 4.79,0.8841 3.0526,0.3486 5.4615,0.2947 z M 48.222,27.1567 l 0.9604,-1.5514 1.3826,-1.6467 1.589,-1.3933 1.7953,-1.14 2.7108,-1.2177 2.9325,-0.8698 3.1544,-0.5219 3.3762,-0.174 1.8064,0.0601 1.2202,0.2147 1.9098,0.4848 1.784,0.5978 1.5901,0.6857 1.3962,0.7735 1.2023,0.8614 1.0308,0.9812 0.8817,1.1332 0.7325,1.2852 0.5835,1.4372 z m 283.67,18.7158 2.424,-0.185 2.295,-0.3082 2.168,-0.4314 2.055,-0.5499 1.96,-0.6629 1.864,-0.776 1.767,-0.889 1.676,-1.0201 1.588,-1.1688 1.499,-1.3174 1.412,-1.466 -5.032,-1.6751 -3.052,-0.3487 -1.461,1.3461 -1.398,1.1467 -1.336,0.9475 -1.273,0.7481 -1.304,0.6165 -1.428,0.5523 -1.551,0.4881 -1.676,0.424 -1.746,0.3427 -1.764,0.2448 -1.782,0.1469 -1.799,0.049 -1.853,-0.1061 -1.938,-0.366 -2.931,-1.026 -2.603,-1.4364 -2.125,-1.7573 -1.493,-1.9887 -0.861,-2.22 -0.231,-2.4514 h 42.63 l -0.166,-2.8879 -0.815,-2.638 -1.464,-2.388 -2.112,-2.1381 -3.756,-2.4945 -4.414,-1.7819 -5.072,-1.0691 -3.052,-0.3486 -5.73,-0.3564 -5.611,0.348 -5.064,1.0437 -4.516,1.7396 -3.969,2.4355 -2.574,2.2646 -1.892,2.4167 -1.21,2.5687 -0.528,2.7207 0.215,2.8956 1.042,2.742 1.869,2.5883 2.697,2.4346 3.447,2.0629 4.119,1.4735 4.79,0.8841 3.052,0.3486 5.462,0.2947 z m -18.884,-18.7158 0.96,-1.5514 1.383,-1.6467 1.589,-1.3933 1.795,-1.14 2.711,-1.2177 2.932,-0.8698 3.155,-0.5219 3.376,-0.174 1.806,0.0601 1.221,0.2147 1.909,0.4848 1.784,0.5978 1.59,0.6857 1.397,0.7735 1.202,0.8614 1.031,0.9812 0.881,1.1332 0.733,1.2852 0.584,1.4372 z m 63.091,18.6203 2.72,-0.4711 2.485,-0.7853 2.251,-1.0993 1.881,-1.3258 1.379,-1.4644 0.876,-1.6027 0.372,-1.7413 -0.066,-1.2514 -0.37,-1.1873 -0.674,-1.1231 -0.978,-1.0589 -1.424,-1.0235 -1.967,-1.0437 -2.512,-1.064 -3.055,-1.0843 -2.492,-0.8631 -2.016,-0.8055 -1.541,-0.7481 -1.065,-0.6906 -0.719,-0.657 -0.5,-0.6739 -0.28,-0.6907 -0.062,-0.7076 0.185,-0.7854 0.445,-0.7346 0.707,-0.684 0.967,-0.6332 1.146,-0.5321 1.242,-0.38 1.338,-0.228 1.415,-0.075 1.635,0.3866 2.339,0.9204 2.341,1.2885 3.052,0.3486 4.092,-2.5128 -3.191,-1.7379 -3.213,-1.2414 -3.236,-0.7448 -3.052,-0.3487 -3.258,-0.2483 -2.7,0.1386 -2.475,0.4154 -2.252,0.6925 -2.028,0.9695 -1.69,1.1787 -1.24,1.3206 -0.788,1.4626 -0.338,1.6044 0.061,1.2481 0.354,1.1772 0.648,1.1063 0.941,1.0354 1.344,1.0031 1.855,1.0099 2.368,1.0166 2.879,1.0233 2.658,0.9053 2.13,0.8242 1.601,0.7432 1.072,0.6621 0.7,0.657 0.484,0.7008 0.269,0.7448 0.054,0.7888 -0.225,0.9541 -0.542,0.89 -0.859,0.8259 -1.176,0.7617 -1.397,0.6384 -1.521,0.456 -1.644,0.2736 -1.769,0.0912 -0.139,-0.0111 -1.843,-0.4577 -2.37,-1.0219 -2.271,-1.4306 -3.053,-0.3486 -4.017,2.7025 1.24,0.9203 1.406,0.8157 1.575,0.7111 1.742,0.6064 1.855,0.4846 1.909,0.3462 3.053,0.3487 1.965,0.2077 2.021,0.0692 z M 243.564,15.7777 240.512,15.4291 h -6.146 l -1.97,29.3997 3.052,0.3486 h 6.146 z"
     inkscape:path-effect="#path-effect4"
     transform="translate(0.10314582,34.945613)" />
  <metadata
     id="metadata4">
    <rdf:RDF>
      <cc:Work
         rdf:about="">
        <dc:title>OpenSCAD Model</dc:title>
      </cc:Work>
    </rdf:RDF>
  </metadata>
</svg>
