<?xml version="1.0" standalone="no"?>
<!DOCTYPE svg PUBLIC "-//W3C//DTD SVG 1.1//EN" "http://www.w3.org/Graphics/SVG/1.1/DTD/svg11.dtd">
<svg width="164mm" height="14mm" viewBox="-82 -7 164 14" xmlns="http://www.w3.org/2000/svg" version="1.1">
<title>OpenSCAD Model</title>
<path d="
M 57.8997,6.40279 L 59.6522,6.3933 L 61.3458,6.3775 L 62.9789,6.35542 L 64.5499,6.32707 L 66.0571,6.29247
 L 67.4992,6.25166 L 68.8746,6.20468 L 70.1821,6.15158 L 71.4203,6.09241 L 72.588,6.02722 L 73.6841,5.95609
 L 74.7075,5.87907 L 75.6572,5.79626 L 76.5321,5.70773 L 77.3316,5.61357 L 78.0547,5.51385 L 78.7008,5.40871
 L 79.2693,5.29823 L 79.7595,5.18251 L 80.171,5.06169 L 80.5034,4.93585 L 80.7563,4.80516 L 80.9295,4.66972
 L 81.0229,4.52968 L 81.0363,4.38516 L 81.1031,3.38898 L 81.0365,3.24013 L 80.89,3.0871 L 80.6638,2.93005
 L 80.358,2.76912 L 79.973,2.60448 L 79.6574,2.49002 L 76.0363,2.49002 L 76.0072,2.92368 L 75.9121,3.00964
 L 75.6957,3.1335 L 75.4048,3.25327 L 75.0395,3.36885 L 74.6002,3.48012 L 74.0873,3.58698 L 73.5014,3.68932
 L 72.843,3.78702 L 72.1128,3.88 L 71.3115,3.96819 L 70.4399,4.05145 L 69.4989,4.12976 L 68.4893,4.20299
 L 67.4122,4.2711 L 66.2686,4.334 L 65.0597,4.39165 L 63.7867,4.44398 L 62.4508,4.49094 L 61.0533,4.53249
 L 59.5956,4.56857 L 58.0792,4.59917 L 56.5055,4.62425 L 54.8761,4.64378 L 53.1927,4.65775 L 51.4568,4.66612
 L 49.6702,4.66891 L 47.8346,4.66612 L 45.9519,4.65775 L 44.0239,4.64378 L 42.0526,4.62425 L 40.0398,4.59917
 L 37.9875,4.56857 L 35.8978,4.53249 L 33.7728,4.49094 L 31.6145,4.44398 L 29.4251,4.39165 L 27.2067,4.334
 L 24.9615,4.2711 L 22.6917,4.20299 L 20.3997,4.12976 L 18.0875,4.05145 L 15.7576,3.96819 L 13.4122,3.88
 L 11.0536,3.78702 L 8.68414,3.68932 L 6.30621,3.58698 L 3.92212,3.48012 L 1.53423,3.36885 L -0.855118,3.25327
 L -3.24355,3.1335 L -5.62871,3.00964 L -8.00827,2.88184 L -10.3798,2.75021 L -12.7411,2.61488 L -15.0897,2.476
 L -17.4234,2.33368 L -19.7398,2.18806 L -22.0367,2.03932 L -24.3117,1.88757 L -26.5627,1.73299 L -28.7874,1.57571
 L -30.9837,1.41589 L -33.1493,1.25369 L -35.2821,1.08926 L -37.38,0.922791 L -39.441,0.75441 L -41.463,0.58432
 L -43.444,0.412659 L -45.382,0.239609 L -47.2752,0.0653381 L -49.1217,-0.10997 L -50.9197,-0.286163 L -52.6673,-0.463058
 L -54.3629,-0.640472 L -56.0047,-0.818237 L -57.5913,-0.996185 L -59.1209,-1.17413 L -60.5921,-1.3519 L -62.0035,-1.52933
 L -63.3536,-1.70622 L -64.6411,-1.8824 L -65.8647,-2.05772 L -67.0233,-2.23199 L -68.1157,-2.40504 L -69.1408,-2.57671
 L -70.0976,-2.74681 L -70.9851,-2.91518 L -71.8026,-3.08167 L -72.5491,-3.24608 L -73.2239,-3.40828 L -73.8264,-3.5681
 L -74.356,-3.72539 L -74.8121,-3.87997 L -75.1944,-4.03171 L -75.5023,-4.18047 L -75.5036,-4.18127 L -75.338,-4.24947
 L -74.9727,-4.36505 L -74.5334,-4.47632 L -74.0206,-4.58318 L -73.4346,-4.6855 L -72.7763,-4.78322 L -72.0461,-4.87621
 L -71.2448,-4.96437 L -70.3732,-5.04765 L -70.1043,-5.07002 L -70.0376,-6.06622 L -76.0178,-6.74921 L -76.4654,-6.70393
 L -77.2648,-6.60976 L -77.988,-6.51006 L -78.6341,-6.40491 L -79.2025,-6.29442 L -79.6927,-6.17871 L -80.1042,-6.05788
 L -80.4366,-5.93205 L -80.6895,-5.80136 L -80.8628,-5.66592 L -80.9561,-5.52588 L -80.9695,-5.38136 L -81.0363,-4.38516
 L -80.9697,-4.23633 L -80.8233,-4.0833 L -80.597,-3.92624 L -80.2913,-3.76532 L -79.9062,-3.60066 L -79.4424,-3.43246
 L -78.9001,-3.26088 L -78.28,-3.08607 L -77.5826,-2.90823 L -76.8086,-2.72751 L -75.9589,-2.5441 L -75.0341,-2.35818
 L -74.0354,-2.16994 L -72.9635,-1.97954 L -71.8197,-1.7872 L -70.605,-1.59309 L -69.3206,-1.3974 L -67.9678,-1.20035
 L -66.5479,-1.00211 L -65.0624,-0.802872 L -63.5126,-0.602844 L -61.9002,-0.402222 L -60.2266,-0.201202 L -58.4937,-0
 L -56.703,0.201202 L -54.8563,0.402222 L -52.9555,0.602844 L -51.0025,0.802872 L -48.9991,1.00211 L -46.9474,1.20035
 L -44.8493,1.3974 L -42.707,1.59309 L -40.5225,1.7872 L -38.298,1.97954 L -36.0358,2.16994 L -33.7379,2.35818
 L -31.4068,2.5441 L -29.0447,2.72751 L -26.6539,2.90823 L -24.2368,3.08607 L -21.7958,3.26088 L -19.3333,3.43246
 L -16.8517,3.60066 L -14.3535,3.76532 L -11.8411,3.92624 L -9.31702,4.0833 L -6.78375,4.23633 L -4.24379,4.38516
 L -1.69963,4.52968 L 0.846176,4.66972 L 3.39117,4.80516 L 5.93282,4.93585 L 8.46861,5.06169 L 10.996,5.18251
 L 13.5126,5.29823 L 16.0159,5.40871 L 18.5033,5.51385 L 20.9725,5.61357 L 23.421,5.70773 L 25.8464,5.79626
 L 28.2462,5.87907 L 30.6182,5.95609 L 32.96,6.02722 L 35.2692,6.09241 L 37.5437,6.15158 L 39.7811,6.20468
 L 41.9792,6.25166 L 44.1359,6.29247 L 46.249,6.32707 L 48.3165,6.35542 L 50.3363,6.3775 L 52.3065,6.3933
 L 54.225,6.40279 L 56.09,6.40594 z
" stroke="black" fill="lightgray" stroke-width="0.5"/>
</svg>
