<?xml version="1.0" standalone="no"?>
<!DOCTYPE svg PUBLIC "-//W3C//DTD SVG 1.1//EN" "http://www.w3.org/Graphics/SVG/1.1/DTD/svg11.dtd">
<svg width="471mm" height="100mm" viewBox="-81 -50 471 100" xmlns="http://www.w3.org/2000/svg" version="1.1">
<title>OpenSCAD Model</title>
<path d="
M 9.80925,47.7205 L 16.2312,43.4851 L 22.0771,37.3645 L 27.0916,29.626 L 31.0555,20.6081 L 32.5264,15.2915
 L 29.4739,14.9429 L 23.9604,14.9429 L 22.7761,19.1401 L 19.5561,26.6857 L 15.6218,33.0651 L 11.1453,37.9993
 L 6.32211,41.2728 L 1.3631,42.7425 L -0.705383,42.5736 L -5.04654,40.4437 L -9.13615,36.4424 L -12.5526,30.8635
 L -15.1465,23.951 L -16.8047,16.007 L -17.4544,7.37863 L -17.2889,3.55606 L -14.3535,3.76532 L 2.54309,4.76054
 L 19.3285,5.5477 L 35.2692,6.09241 L 49.6685,6.37085 L 61.897,6.37085 L 71.4203,6.09241 L 77.8222,5.5477
 L 80.8229,4.76054 L 80.8897,3.76434 L 80.358,2.76912 L 76.3172,1.60933 L 68.944,0.335663 L 58.5604,-0.996185
 L 45.6204,-2.32806 L 30.6895,-3.60172 L 14.4203,-4.76151 L -2.47632,-5.75673 L -16.2971,-6.40488 L -15.6608,-10.4093
 L -13.2957,-18.7915 L -10.0757,-26.3371 L -6.14143,-32.7165 L -1.6649,-37.6507 L 3.15826,-40.9242 L 8.11728,-42.3939
 L 10.1858,-42.225 L 14.5269,-40.0951 L 18.6165,-36.0937 L 22.033,-30.5149 L 24.6269,-23.6024 L 26.285,-15.6584
 L 26.3389,-14.9429 L 29.3914,-14.5943 L 34.5294,-14.5943 L 33.7711,-19.9108 L 31.016,-28.9288 L 27.0388,-36.6672
 L 22.0132,-42.7879 L 16.159,-47.0232 L 9.73196,-49.1882 L 6.67944,-49.5369 L -0.039505,-49.5369 L -6.75673,-47.3719
 L -13.1787,-43.1365 L -19.0246,-37.0158 L -24.0391,-29.2774 L -28.003,-20.2594 L -30.743,-10.356 L -31.202,-6.9519
 L -35.2025,-7.08861 L -49.6017,-7.36703 L -61.8302,-7.36703 L -71.3535,-7.08861 L -77.7554,-6.5439 L -80.7561,-5.75673
 L -80.8229,-4.76054 L -80.2913,-3.76532 L -76.2505,-2.60553 L -68.8772,-1.33186 L -58.4937,-0 L -45.5537,1.33186
 L -32.1374,2.47632 L -32.1311,10.356 L -30.7186,20.2594 L -27.9635,29.2774 L -23.9863,37.0158 L -18.9607,43.1365
 L -13.1065,47.3719 L -6.67944,49.5369 L -3.62692,49.8855 L 3.09203,49.8855 z
M -32.431,1.30801 L -46.0182,0.181641 L -57.5913,-0.996185 L -66.6444,-2.17403 L -72.782,-3.3004 L -75.4163,-4.21515
 L -71.7868,-4.90613 L -64.993,-5.38785 L -55.3586,-5.63408 L -43.3048,-5.63408 L -31.408,-5.42404 L -32.1394,-0
 L -32.1383,1.32802 z
M 43.3715,4.63789 L 29.4251,4.39165 L 14.1955,3.90994 L -1.65147,3.21381 L -17.2364,2.34412 L -17.0675,-1.55698
 L -16.5233,-4.98187 L -14.1288,-4.90613 L 1.71825,-4.21001 L 17.4902,-3.32986 L 32.4977,-2.3042 L 46.0849,-1.17784
 L 57.658,-0 L 66.7112,1.17784 L 72.8488,2.3042 L 75.4831,3.21895 L 71.8536,3.90994 L 65.0597,4.39165
 L 55.4253,4.63789 z
M 43.5682,-26.6274 L 44.1162,-28.6081 L 44.909,-30.4117 L 45.9118,-31.9594 L 47.081,-33.1835 L 48.3654,-34.0306
 L 49.7089,-34.4636 L 50.3771,-34.4636 L 50.3844,-34.5182 L 50.3844,-34.5728 L 49.3734,-34.6882 L 48.4308,-35.0058
 L 47.2599,-35.8528 L 46.2548,-37.077 L 45.4594,-38.6246 L 44.9084,-40.4282 L 44.6259,-42.4089 L 44.6243,-44.4256
 L 41.5717,-44.7742 L 41.5643,-44.7742 L 41.2924,-42.7576 L 40.7444,-40.7769 L 39.9516,-38.9733 L 38.9487,-37.4256
 L 37.7795,-36.2015 L 36.4952,-35.3544 L 35.1517,-34.9214 L 34.4835,-34.9214 L 34.4762,-34.8668 L 34.4762,-34.8122
 L 35.4872,-34.6968 L 36.4298,-34.3792 L 37.6006,-33.5322 L 38.6058,-32.308 L 39.4012,-30.7603 L 39.9522,-28.9568
 L 40.2347,-26.9761 L 40.2363,-24.9594 L 43.2888,-24.6108 L 43.2962,-24.6108 z
M 58.0102,-40.4319 L 58.5986,-41.9896 L 58.219,-43.5474 L 57.1572,-43.9321 L 54.1046,-44.2807 L 53.1602,-43.2027
 L 53.0443,-41.4738 L 53.8443,-40.3958 L 56.8968,-40.0472 z
M 241.875,9.85666 L 242.818,9.68437 L 243.692,9.39722 L 244.498,8.99519 L 245.179,8.51381 L 245.677,7.98854
 L 245.994,7.41939 L 246.127,6.80635 L 246.077,6.1815 L 245.837,5.60394 L 245.41,5.07373 L 244.793,4.59082
 L 244.041,4.18881 L 243.205,3.90164 L 242.285,3.72937 L 239.233,3.38074 L 238.229,3.32332 L 237.236,3.38074
 L 236.306,3.55302 L 235.439,3.84018 L 234.636,4.2422 L 233.955,4.72511 L 233.456,5.25533 L 233.14,5.83287
 L 233.005,6.45773 L 233.057,7.07076 L 233.297,7.63992 L 233.724,8.16518 L 234.34,8.64658 L 235.09,9.04858
 L 235.918,9.33574 L 236.825,9.50803 L 239.878,9.85666 L 240.863,9.91408 z
M 106.78,4.42863 L 103.727,4.08002 L 97.6253,4.08002 L 94.8943,44.8288 L 97.9468,45.1774 L 104.049,45.1774
 z
M 220.036,19.0201 L 229.713,19.0201 L 229.931,15.7777 L 226.878,15.4291 L 220.277,15.4291 L 220.985,4.86098
 L 217.933,4.51236 L 211.787,4.51236 L 211.055,15.4291 L 202.73,15.4291 L 202.513,18.6715 L 205.565,19.0201
 L 210.815,19.0201 L 209.085,44.8288 L 212.138,45.1774 L 218.283,45.1774 z
M 260.642,34.3958 L 260.876,31.7172 L 261.189,29.4912 L 261.58,27.7178 L 262.05,26.3971 L 263.042,24.7895
 L 264.398,23.3169 L 266.118,21.9794 L 268.202,20.777 L 270.531,19.7838 L 272.986,19.0744 L 275.566,18.6487
 L 278.271,18.5069 L 279.727,18.5652 L 281.39,18.9867 L 282.965,19.631 L 284.294,20.4577 L 285.371,21.4651
 L 286.196,22.6532 L 286.769,24.0218 L 287.003,25.0843 L 287.121,26.5688 L 287.124,28.4755 L 287.012,30.8043
 L 286.072,44.8288 L 289.124,45.1774 L 295.183,45.1774 L 296.197,30.0452 L 296.263,27.2434 L 296.056,24.8369
 L 295.578,22.8255 L 294.828,21.2094 L 293.803,19.8632 L 292.498,18.6624 L 290.913,17.6068 L 289.049,16.6966
 L 286.964,15.9635 L 284.715,15.4399 L 282.302,15.1257 L 279.249,14.7771 L 276.672,14.6723 L 274.1,14.7661
 L 271.613,15.0473 L 269.212,15.516 L 266.895,16.1722 L 264.665,17.0174 L 262.519,18.0534 L 261.705,18.5383
 L 261.89,15.7777 L 258.838,15.4291 L 252.735,15.4291 L 250.765,44.8288 L 253.817,45.1774 L 259.92,45.1774
 z
M 141.221,45.8725 L 143.645,45.6875 L 145.94,45.3793 L 148.108,44.9479 L 150.163,44.398 L 152.123,43.7351
 L 153.986,42.9591 L 155.754,42.0701 L 157.43,41.05 L 159.018,39.8812 L 160.517,38.5638 L 161.928,37.0978
 L 156.897,35.4227 L 153.845,35.074 L 152.384,36.4201 L 150.986,37.5668 L 149.65,38.5143 L 148.377,39.2624
 L 147.073,39.8789 L 145.645,40.4312 L 144.093,40.9193 L 142.418,41.3433 L 140.672,41.686 L 138.908,41.9308
 L 137.126,42.0777 L 135.326,42.1267 L 133.473,42.0206 L 131.536,41.6546 L 128.605,40.6286 L 126.002,39.1922
 L 123.877,37.4349 L 122.384,35.4462 L 121.522,33.2262 L 121.292,30.7748 L 163.921,30.7748 L 163.755,27.8869
 L 162.941,25.2489 L 161.477,22.8609 L 159.365,20.7228 L 155.609,18.2283 L 151.195,16.4464 L 146.123,15.3773
 L 143.07,15.0287 L 137.341,14.6723 L 131.73,15.0203 L 126.666,16.064 L 122.15,17.8036 L 118.181,20.2391
 L 115.607,22.5037 L 113.715,24.9204 L 112.505,27.4891 L 111.977,30.2098 L 112.191,33.1054 L 113.233,35.8474
 L 115.103,38.4357 L 117.8,40.8703 L 121.247,42.9332 L 125.366,44.4067 L 130.156,45.2908 L 133.208,45.6394
 L 138.67,45.9341 z
M 122.337,27.1567 L 123.297,25.6053 L 124.68,23.9586 L 126.269,22.5653 L 128.064,21.4253 L 130.775,20.2076
 L 133.707,19.3378 L 136.862,18.8159 L 140.238,18.6419 L 142.044,18.702 L 143.264,18.9167 L 145.174,19.4015
 L 146.958,19.9993 L 148.548,20.685 L 149.944,21.4585 L 151.147,22.3199 L 152.178,23.3011 L 153.059,24.4343
 L 153.792,25.7195 L 154.375,27.1567 z
M 185.427,45.777 L 188.148,45.3059 L 190.633,44.5206 L 192.883,43.4213 L 194.765,42.0955 L 196.144,40.6311
 L 197.019,39.0284 L 197.392,37.2871 L 197.326,36.0357 L 196.956,34.8484 L 196.282,33.7253 L 195.304,32.6664
 L 193.88,31.6429 L 191.912,30.5992 L 189.401,29.5352 L 186.346,28.4509 L 183.854,27.5878 L 181.838,26.7823
 L 180.297,26.0342 L 179.232,25.3436 L 178.513,24.6866 L 178.013,24.0127 L 177.732,23.322 L 177.671,22.6144
 L 177.855,21.829 L 178.301,21.0944 L 179.008,20.4104 L 179.975,19.7772 L 181.121,19.2451 L 182.363,18.8651
 L 183.701,18.6371 L 185.116,18.5621 L 186.751,18.9487 L 189.09,19.8691 L 191.431,21.1576 L 194.483,21.5062
 L 198.574,18.9934 L 195.384,17.2555 L 192.171,16.0141 L 188.935,15.2693 L 185.883,14.9206 L 182.625,14.6723
 L 179.925,14.8109 L 177.449,15.2263 L 175.198,15.9188 L 173.17,16.8883 L 171.479,18.067 L 170.24,19.3876
 L 169.451,20.8502 L 169.114,22.4546 L 169.174,23.7027 L 169.529,24.8799 L 170.176,25.9862 L 171.118,27.0216
 L 172.462,28.0247 L 174.317,29.0346 L 176.684,30.0512 L 179.563,31.0745 L 182.222,31.9798 L 184.352,32.804
 L 185.953,33.5472 L 187.025,34.2093 L 187.725,34.8663 L 188.209,35.5671 L 188.478,36.3119 L 188.531,37.1007
 L 188.307,38.0548 L 187.765,38.9448 L 186.906,39.7707 L 185.73,40.5324 L 184.333,41.1708 L 182.812,41.6268
 L 181.167,41.9004 L 179.399,41.9916 L 179.26,41.9805 L 177.417,41.5228 L 175.047,40.5009 L 172.775,39.0703
 L 169.723,38.7217 L 165.706,41.4242 L 166.945,42.3445 L 168.352,43.1602 L 169.927,43.8713 L 171.669,44.4777
 L 173.523,44.9623 L 175.433,45.3085 L 178.486,45.6572 L 180.451,45.8649 L 182.472,45.9341 z
M 67.1066,45.8725 L 69.5301,45.6875 L 71.8255,45.3793 L 73.993,44.9479 L 76.0486,44.398 L 78.0082,43.7351
 L 79.8719,42.9591 L 81.6397,42.0701 L 83.3154,41.05 L 84.9031,39.8812 L 86.4026,38.5638 L 87.8139,37.0978
 L 82.7826,35.4227 L 79.7301,35.074 L 78.2695,36.4201 L 76.8714,37.5668 L 75.5355,38.5143 L 74.2621,39.2624
 L 72.9582,39.8789 L 71.5305,40.4312 L 69.9789,40.9193 L 68.3035,41.3433 L 66.5575,41.686 L 64.7935,41.9308
 L 63.0116,42.0777 L 61.2118,42.1267 L 59.3588,42.0206 L 57.4212,41.6546 L 54.4905,40.6286 L 51.887,39.1922
 L 49.7627,37.4349 L 48.2696,35.4462 L 47.4077,33.2262 L 47.177,30.7748 L 89.8067,30.7748 L 89.6409,27.8869
 L 88.8261,25.2489 L 87.3625,22.8609 L 85.2501,20.7228 L 81.4942,18.2283 L 77.0803,16.4464 L 72.0084,15.3773
 L 68.9559,15.0287 L 63.226,14.6723 L 57.6152,15.0203 L 52.5516,16.064 L 48.0353,17.8036 L 44.0661,20.2391
 L 41.4925,22.5037 L 39.6006,24.9204 L 38.3905,27.4891 L 37.8622,30.2098 L 38.0768,33.1054 L 39.1188,35.8474
 L 40.9884,38.4357 L 43.6855,40.8703 L 47.1325,42.9332 L 51.251,44.4067 L 56.041,45.2908 L 59.0936,45.6394
 L 64.5551,45.9341 z
M 48.222,27.1567 L 49.1824,25.6053 L 50.565,23.9586 L 52.154,22.5653 L 53.9493,21.4253 L 56.6601,20.2076
 L 59.5926,19.3378 L 62.747,18.8159 L 66.1232,18.6419 L 67.9296,18.702 L 69.1498,18.9167 L 71.0596,19.4015
 L 72.8436,19.9993 L 74.4337,20.685 L 75.8299,21.4585 L 77.0322,22.3199 L 78.063,23.3011 L 78.9447,24.4343
 L 79.6772,25.7195 L 80.2607,27.1567 z
M 331.892,45.8725 L 334.316,45.6875 L 336.611,45.3793 L 338.779,44.9479 L 340.834,44.398 L 342.794,43.7351
 L 344.658,42.9591 L 346.425,42.0701 L 348.101,41.05 L 349.689,39.8812 L 351.188,38.5638 L 352.6,37.0978
 L 347.568,35.4227 L 344.516,35.074 L 343.055,36.4201 L 341.657,37.5668 L 340.321,38.5143 L 339.048,39.2624
 L 337.744,39.8789 L 336.316,40.4312 L 334.765,40.9193 L 333.089,41.3433 L 331.343,41.686 L 329.579,41.9308
 L 327.797,42.0777 L 325.998,42.1267 L 324.145,42.0206 L 322.207,41.6546 L 319.276,40.6286 L 316.673,39.1922
 L 314.548,37.4349 L 313.055,35.4462 L 312.194,33.2262 L 311.963,30.7748 L 354.593,30.7748 L 354.427,27.8869
 L 353.612,25.2489 L 352.148,22.8609 L 350.036,20.7228 L 346.28,18.2283 L 341.866,16.4464 L 336.794,15.3773
 L 333.742,15.0287 L 328.012,14.6723 L 322.401,15.0203 L 317.337,16.064 L 312.821,17.8036 L 308.852,20.2391
 L 306.278,22.5037 L 304.386,24.9204 L 303.176,27.4891 L 302.648,30.2098 L 302.863,33.1054 L 303.905,35.8474
 L 305.774,38.4357 L 308.471,40.8703 L 311.918,42.9332 L 316.037,44.4067 L 320.827,45.2908 L 323.879,45.6394
 L 329.341,45.9341 z
M 313.008,27.1567 L 313.968,25.6053 L 315.351,23.9586 L 316.94,22.5653 L 318.735,21.4253 L 321.446,20.2076
 L 324.378,19.3378 L 327.533,18.8159 L 330.909,18.6419 L 332.715,18.702 L 333.936,18.9167 L 335.845,19.4015
 L 337.629,19.9993 L 339.219,20.685 L 340.616,21.4585 L 341.818,22.3199 L 342.849,23.3011 L 343.73,24.4343
 L 344.463,25.7195 L 345.047,27.1567 z
M 376.099,45.777 L 378.819,45.3059 L 381.304,44.5206 L 383.555,43.4213 L 385.436,42.0955 L 386.815,40.6311
 L 387.691,39.0284 L 388.063,37.2871 L 387.997,36.0357 L 387.627,34.8484 L 386.953,33.7253 L 385.975,32.6664
 L 384.551,31.6429 L 382.584,30.5992 L 380.072,29.5352 L 377.017,28.4509 L 374.525,27.5878 L 372.509,26.7823
 L 370.968,26.0342 L 369.903,25.3436 L 369.184,24.6866 L 368.684,24.0127 L 368.404,23.322 L 368.342,22.6144
 L 368.527,21.829 L 368.972,21.0944 L 369.679,20.4104 L 370.646,19.7772 L 371.792,19.2451 L 373.034,18.8651
 L 374.372,18.6371 L 375.787,18.5621 L 377.422,18.9487 L 379.761,19.8691 L 382.102,21.1576 L 385.154,21.5062
 L 389.246,18.9934 L 386.055,17.2555 L 382.842,16.0141 L 379.606,15.2693 L 376.554,14.9206 L 373.296,14.6723
 L 370.596,14.8109 L 368.121,15.2263 L 365.869,15.9188 L 363.841,16.8883 L 362.151,18.067 L 360.911,19.3876
 L 360.123,20.8502 L 359.785,22.4546 L 359.846,23.7027 L 360.2,24.8799 L 360.848,25.9862 L 361.789,27.0216
 L 363.133,28.0247 L 364.988,29.0346 L 367.356,30.0512 L 370.235,31.0745 L 372.893,31.9798 L 375.023,32.804
 L 376.624,33.5472 L 377.696,34.2093 L 378.396,34.8663 L 378.88,35.5671 L 379.149,36.3119 L 379.203,37.1007
 L 378.978,38.0548 L 378.436,38.9448 L 377.577,39.7707 L 376.401,40.5324 L 375.004,41.1708 L 373.483,41.6268
 L 371.839,41.9004 L 370.07,41.9916 L 369.931,41.9805 L 368.088,41.5228 L 365.718,40.5009 L 363.447,39.0703
 L 360.394,38.7217 L 356.377,41.4242 L 357.617,42.3445 L 359.023,43.1602 L 360.598,43.8713 L 362.34,44.4777
 L 364.195,44.9623 L 366.104,45.3085 L 369.157,45.6572 L 371.122,45.8649 L 373.143,45.9341 z
M 243.564,15.7777 L 240.512,15.4291 L 234.366,15.4291 L 232.396,44.8288 L 235.448,45.1774 L 241.594,45.1774
 z
" stroke="black" fill="lightgray" stroke-width="0.5"/>
</svg>
