<?xml version="1.0" encoding="UTF-8" standalone="no"?>
<svg
   width="709.02527mm"
   height="167.86212mm"
   viewBox="-81 -50 709.02527 167.86212"
   version="1.1"
   id="svg1"
   xmlns="http://www.w3.org/2000/svg"
   xmlns:svg="http://www.w3.org/2000/svg"
   xmlns:rdf="http://www.w3.org/1999/02/22-rdf-syntax-ns#"
   xmlns:cc="http://creativecommons.org/ns#"
   xmlns:dc="http://purl.org/dc/elements/1.1/">
  <defs
     id="defs1" />
  <title
     id="title1">OpenSCAD Model</title>
  <path
     d="m -80.57803,75.674968 4.242029,2.161753 30.943234,-1.431294 51.1219523,-4.489155 62.2386497,-6.537418 64.999435,-7.520264 56.10834,-6.948556 51.90889,-6.758589 9.22023,-1.207764 47.59364,-6.565855 39.65648,-5.764395 32.17868,-4.951942 25.38061,-4.177461 19.27173,-3.458111 13.7575,-2.79326 8.69743,-2.17274 3.9349,-1.581482 0.0866,-1.135857 m -7.15062,0.597181 -4.96621,1.645158 -9.67657,2.235568 -14.64255,2.840261 -20.02538,3.481957 -25.92068,4.164883 -32.3589,4.881571 -39.23939,5.603962 -45.62984,6.189829 -52.08002,6.708162 -1.12188,0.144398 -57.11347,6.932715 -57.922616,6.527317 -52.914105,5.327976 -40.540235,3.227803 -18.737442,0.34212"
     stroke="#000000"
     fill="#d3d3d3"
     stroke-width="0.753171"
     id="path1"
     style="fill:none" />
  <metadata
     id="metadata4">
    <rdf:RDF>
      <cc:Work
         rdf:about="">
        <dc:title>OpenSCAD Model</dc:title>
      </cc:Work>
    </rdf:RDF>
  </metadata>
</svg>
