<?xml version="1.0" standalone="no"?>
<!DOCTYPE svg PUBLIC "-//W3C//DTD SVG 1.1//EN" "http://www.w3.org/Graphics/SVG/1.1/DTD/svg11.dtd">
<svg width="472mm" height="101mm" viewBox="-82 -50 472 101" xmlns="http://www.w3.org/2000/svg" version="1.1">
<title>OpenSCAD Model</title>
<path d="
M 0.725418,50.1338 L 1.73889,50.0601 L 2.75365,49.9373 L 3.76871,49.7656 L 4.78305,49.5451 L 5.7957,49.2761
 L 6.80563,48.9588 L 7.81187,48.5935 L 8.8134,48.1806 L 9.80925,47.7205 L 10.7984,47.2136 L 11.78,46.6605
 L 12.7529,46.0617 L 13.7162,45.4178 L 14.6691,44.7294 L 15.6104,43.9972 L 16.5394,43.222 L 17.4551,42.4044
 L 18.3565,41.5453 L 19.2429,40.6455 L 20.1132,39.706 L 20.9668,38.7277 L 21.8026,37.7115 L 22.6199,36.6584
 L 23.418,35.5694 L 24.1959,34.4457 L 24.953,33.2884 L 25.6884,32.0985 L 26.4016,30.8773 L 27.0916,29.626
 L 27.758,28.3458 L 28.4,27.038 L 29.0169,25.7038 L 29.6082,24.3446 L 30.1734,22.9618 L 30.7117,21.5566
 L 31.2228,20.1304 L 31.7061,18.6848 L 32.161,17.2211 L 32.5873,15.7407 L 32.7066,15.2915 L 29.654,14.9429
 L 24.097,14.9429 L 24.0729,15.0314 L 23.7073,16.2834 L 23.3214,17.5193 L 22.9157,18.7379 L 22.4905,19.9381
 L 22.0464,21.1185 L 21.5836,22.2782 L 21.1027,23.4158 L 20.6042,24.5304 L 20.0885,25.6207 L 19.5561,26.6857
 L 19.0076,27.7244 L 18.4435,28.7358 L 17.8644,29.7188 L 17.2709,30.6724 L 16.6634,31.5958 L 16.0427,32.488
 L 15.4093,33.3482 L 14.7639,34.1754 L 14.1071,34.9689 L 13.4396,35.7279 L 12.7619,36.4517 L 12.0749,37.1395
 L 11.3791,37.7906 L 10.6752,38.4044 L 9.96396,38.9803 L 9.24606,39.5177 L 8.52222,40.0162 L 7.79312,40.4752
 L 7.05952,40.8942 L 6.32211,41.2728 L 5.58165,41.6108 L 4.83885,41.9076 L 4.09444,42.1631 L 3.34915,42.377
 L 2.60374,42.5491 L 1.85893,42.6792 L 1.11546,42.7672 L 0.374069,42.8129 L 0.0267181,42.8145 L -0.223846,42.7571
 L -0.937576,42.5501 L -1.6442,42.3015 L -2.343,42.0115 L -3.03333,41.6804 L -3.71446,41.3084 L -4.38576,40.8961
 L -5.04654,40.4437 L -5.69615,39.9518 L -6.33397,39.4208 L -6.95934,38.8512 L -7.57166,38.2436 L -8.17032,37.5987
 L -8.75473,36.9169 L -9.32433,36.1991 L -9.87854,35.4459 L -10.4168,34.6581 L -10.9386,33.8364 L -11.4435,32.9816
 L -11.9308,32.0947 L -12.4002,31.1764 L -12.8512,30.2277 L -13.2833,29.2495 L -13.6961,28.2428 L -14.0892,27.2086
 L -14.4622,26.1478 L -14.8148,25.0616 L -15.1465,23.951 L -15.4572,22.8171 L -15.7464,21.6611 L -16.0138,20.484
 L -16.2593,19.287 L -16.4826,18.0714 L -16.6834,16.8382 L -16.8615,15.5888 L -17.0168,14.3243 L -17.1492,13.0461
 L -17.2584,11.7553 L -17.3444,10.4533 L -17.4072,9.14125 L -17.4465,7.82057 L -17.4625,6.49251 L -17.455,5.15837
 L -17.4241,3.8195 L -17.4138,3.56256 L -16.8517,3.60066 L -14.3535,3.76532 L -11.8411,3.92624 L -9.31702,4.0833
 L -6.78375,4.23633 L -4.24379,4.38516 L -1.69963,4.52968 L 0.846176,4.66972 L 3.39117,4.80516 L 5.93282,4.93585
 L 8.46861,5.06169 L 10.996,5.18251 L 13.5126,5.29823 L 16.0159,5.40871 L 18.5033,5.51385 L 20.9725,5.61357
 L 23.421,5.70773 L 25.8464,5.79626 L 28.2462,5.87907 L 30.6182,5.95609 L 32.96,6.02722 L 35.2692,6.09241
 L 37.5437,6.15158 L 39.7811,6.20468 L 41.9792,6.25166 L 44.1359,6.29247 L 46.249,6.32707 L 48.3165,6.35542
 L 50.3363,6.3775 L 52.3065,6.3933 L 54.225,6.40279 L 56.09,6.40594 L 57.8997,6.40279 L 59.6522,6.3933
 L 61.3458,6.3775 L 62.9789,6.35542 L 64.5499,6.32707 L 66.0571,6.29247 L 67.4992,6.25166 L 68.8746,6.20468
 L 70.1821,6.15158 L 71.4203,6.09241 L 72.588,6.02722 L 73.6841,5.95609 L 74.7075,5.87907 L 75.6572,5.79626
 L 76.5321,5.70773 L 77.3316,5.61357 L 78.0547,5.51385 L 78.7008,5.40871 L 79.2693,5.29823 L 79.7595,5.18251
 L 80.171,5.06169 L 80.5034,4.93585 L 80.7563,4.80516 L 80.9295,4.66972 L 81.0229,4.52968 L 81.0363,4.38516
 L 81.1031,3.38898 L 81.0365,3.24013 L 80.89,3.0871 L 80.6638,2.93005 L 80.358,2.76912 L 79.973,2.60448
 L 79.5091,2.43628 L 78.9669,2.26469 L 78.3467,2.08989 L 77.6493,1.91203 L 76.8754,1.73132 L 76.0256,1.54791
 L 75.1009,1.36198 L 74.1021,1.17374 L 73.0303,0.983337 L 71.8865,0.791 L 70.6718,0.596893 L 69.3874,0.401215
 L 68.0346,0.204147 L 66.6147,0.00590515 L 65.1291,-0.193314 L 63.5794,-0.393341 L 61.9669,-0.593948 L 60.2934,-0.794968
 L 58.5604,-0.996185 L 56.7697,-1.1974 L 54.9231,-1.39842 L 53.0223,-1.59904 L 51.0692,-1.79907 L 49.0659,-1.99829
 L 47.0141,-2.19655 L 44.9161,-2.3936 L 42.7737,-2.58928 L 40.5892,-2.78339 L 38.3648,-2.97574 L 36.1025,-3.16612
 L 33.8047,-3.35437 L 31.4736,-3.5403 L 29.1115,-3.72371 L 26.7207,-3.90442 L 24.3036,-4.08228 L 21.8626,-4.25708
 L 19.4001,-4.42867 L 16.9185,-4.59686 L 14.4203,-4.76151 L 11.9079,-4.92244 L 9.38379,-5.0795 L 6.85052,-5.23251
 L 4.31056,-5.38136 L 1.7664,-5.52588 L -0.779419,-5.66592 L -3.3244,-5.80136 L -5.86606,-5.93205 L -8.40184,-6.05788
 L -10.9293,-6.17871 L -13.4459,-6.29442 L -15.9491,-6.40491 L -16.4203,-6.42482 L -16.3429,-6.90341 L -16.1055,-8.2254
 L -15.8459,-9.53896 L -15.5646,-10.8427 L -15.2617,-12.1355 L -14.9376,-13.4159 L -14.5925,-14.6827 L -14.2269,-15.9347
 L -13.841,-17.1707 L -13.4353,-18.3893 L -13.0101,-19.5894 L -12.566,-20.7699 L -12.1032,-21.9296 L -11.6223,-23.0672
 L -11.1238,-24.1817 L -10.608,-25.2721 L -10.0757,-26.3371 L -9.52721,-27.3758 L -8.96313,-28.3872 L -8.38402,-29.3702
 L -7.79047,-30.3238 L -7.18303,-31.2472 L -6.56232,-32.1394 L -5.92896,-32.9996 L -5.28354,-33.8268 L -4.62674,-34.6203
 L -3.95918,-35.3793 L -3.28154,-36.1031 L -2.59448,-36.7908 L -1.89867,-37.4419 L -1.19479,-38.0558 L -0.483566,-38.6317
 L 0.234314,-39.1691 L 0.958176,-39.6676 L 1.68726,-40.1265 L 2.42085,-40.5455 L 3.15826,-40.9242 L 3.89873,-41.2621
 L 4.64154,-41.559 L 5.38594,-41.8145 L 6.13123,-42.0284 L 6.87663,-42.2005 L 7.62144,-42.3306 L 8.36491,-42.4185
 L 9.10631,-42.4643 L 9.45366,-42.4659 L 9.70424,-42.4085 L 10.418,-42.2015 L 11.1246,-41.9529 L 11.8234,-41.6629
 L 12.5137,-41.3317 L 13.1949,-40.9598 L 13.8661,-40.5475 L 14.5269,-40.0951 L 15.1765,-39.6032 L 15.8144,-39.0722
 L 16.4397,-38.5026 L 17.052,-37.895 L 17.6507,-37.25 L 18.2351,-36.5683 L 18.8047,-35.8505 L 19.3589,-35.0973
 L 19.8972,-34.3095 L 20.419,-33.4878 L 20.9238,-32.633 L 21.4112,-31.7461 L 21.8806,-30.8278 L 22.3316,-29.8791
 L 22.7637,-28.9009 L 23.1765,-27.8942 L 23.5696,-26.86 L 23.9426,-25.7992 L 24.2952,-24.713 L 24.6269,-23.6024
 L 24.9376,-22.4685 L 25.2268,-21.3125 L 25.4942,-20.1354 L 25.7397,-18.9384 L 25.963,-17.7227 L 26.1638,-16.4896
 L 26.3419,-15.2402 L 26.3784,-14.9429 L 29.4309,-14.5943 L 34.7095,-14.5943 L 34.6505,-15.0434 L 34.4226,-16.5238
 L 34.1638,-17.9875 L 33.8744,-19.4332 L 33.5545,-20.8593 L 33.2045,-22.2645 L 32.8247,-23.6474 L 32.4155,-25.0066
 L 31.9774,-26.3408 L 31.5107,-27.6486 L 31.016,-28.9288 L 30.4937,-30.1801 L 29.9442,-31.4013 L 29.3682,-32.5911
 L 28.7663,-33.7485 L 28.139,-34.8722 L 27.4869,-35.9611 L 26.8107,-37.0142 L 26.1111,-38.0304 L 25.3887,-39.0088
 L 24.6443,-39.9483 L 23.8785,-40.848 L 23.0922,-41.7071 L 22.2862,-42.5247 L 21.4611,-43.3 L 20.6179,-44.0322
 L 19.7573,-44.7206 L 18.8803,-45.3645 L 17.9876,-45.9633 L 17.0802,-46.5164 L 16.159,-47.0232 L 15.2248,-47.4833
 L 14.2786,-47.8962 L 13.3214,-48.2615 L 12.354,-48.5788 L 11.3774,-48.8479 L 10.3926,-49.0683 L 9.40054,-49.2401
 L 8.40224,-49.3628 L 5.34972,-49.7114 L 4.34613,-49.7852 L 3.33826,-49.8097 L 2.32709,-49.7852 L 1.31361,-49.7114
 L 0.298859,-49.5887 L -0.716187,-49.417 L -1.73055,-49.1965 L -2.74318,-48.9275 L -3.75311,-48.6102 L -4.75935,-48.2449
 L -5.76088,-47.832 L -6.75673,-47.3719 L -7.74591,-46.865 L -8.72745,-46.3119 L -9.70038,-45.7131 L -10.6637,-45.0692
 L -11.6166,-44.3808 L -12.5579,-43.6486 L -13.4869,-42.8733 L -14.4025,-42.0557 L -15.304,-41.1967 L -16.1903,-40.2969
 L -17.0607,-39.3574 L -17.9142,-38.3791 L -18.7501,-37.3628 L -19.5674,-36.3097 L -20.3655,-35.2208 L -21.1434,-34.0971
 L -21.9005,-32.9398 L -22.6359,-31.7499 L -23.349,-30.5287 L -24.0391,-29.2774 L -24.7055,-27.9972 L -25.3474,-26.6894
 L -25.9644,-25.3552 L -26.5557,-23.996 L -27.1208,-22.6131 L -27.6592,-21.2079 L -28.1703,-19.7818 L -28.6535,-18.3362
 L -29.1085,-16.8724 L -29.5348,-15.392 L -29.9319,-13.8965 L -30.2995,-12.3872 L -30.6371,-10.8656 L -30.9446,-9.3334
 L -31.2215,-7.79195 L -31.351,-6.97658 L -32.8932,-7.02342 L -35.2025,-7.08861 L -37.4769,-7.14778 L -39.7143,-7.20088
 L -41.9124,-7.24786 L -44.0691,-7.28867 L -46.1823,-7.32327 L -48.2498,-7.35162 L -50.2696,-7.3737 L -52.2397,-7.3895
 L -54.1582,-7.39897 L -56.0232,-7.40213 L -57.8329,-7.39897 L -59.5854,-7.3895 L -61.2791,-7.3737 L -62.9122,-7.35162
 L -64.4831,-7.32327 L -65.9904,-7.28867 L -67.4324,-7.24786 L -68.8079,-7.20088 L -70.1153,-7.14778 L -71.3535,-7.08861
 L -72.5213,-7.02342 L -73.6174,-6.95229 L -74.6407,-6.87527 L -75.5904,-6.79247 L -76.4654,-6.70393 L -77.2648,-6.60976
 L -77.988,-6.51006 L -78.6341,-6.40491 L -79.2025,-6.29442 L -79.6927,-6.17871 L -80.1042,-6.05788 L -80.4366,-5.93205
 L -80.6895,-5.80136 L -80.8628,-5.66592 L -80.9561,-5.52588 L -80.9695,-5.38136 L -81.0363,-4.38516 L -80.9697,-4.23633
 L -80.8233,-4.0833 L -80.597,-3.92624 L -80.2913,-3.76532 L -79.9062,-3.60066 L -79.4424,-3.43246 L -78.9001,-3.26088
 L -78.28,-3.08607 L -77.5826,-2.90823 L -76.8086,-2.72751 L -75.9589,-2.5441 L -75.0341,-2.35818 L -74.0354,-2.16994
 L -72.9635,-1.97954 L -71.8197,-1.7872 L -70.605,-1.59309 L -69.3206,-1.3974 L -67.9678,-1.20035 L -66.5479,-1.00211
 L -65.0624,-0.802872 L -63.5126,-0.602844 L -61.9002,-0.402222 L -60.2266,-0.201202 L -58.4937,-0 L -56.703,0.201202
 L -54.8563,0.402222 L -52.9555,0.602844 L -51.0025,0.802872 L -48.9991,1.00211 L -46.9474,1.20035 L -44.8493,1.3974
 L -42.707,1.59309 L -40.5225,1.7872 L -38.298,1.97954 L -36.0358,2.16994 L -33.7379,2.35818 L -32.2617,2.47592
 L -32.2856,3.12756 L -32.3109,4.6875 L -32.3043,6.24281 L -32.2659,7.79195 L -32.1956,9.3334 L -32.0936,10.8656
 L -31.9599,12.3872 L -31.7946,13.8965 L -31.5979,15.392 L -31.3701,16.8724 L -31.1113,18.3362 L -30.8218,19.7818
 L -30.5019,21.2079 L -30.1519,22.6131 L -29.7722,23.996 L -29.363,25.3552 L -28.9249,26.6894 L -28.4582,27.9972
 L -27.9635,29.2774 L -27.4411,30.5287 L -26.8917,31.7499 L -26.3157,32.9398 L -25.7138,34.0971 L -25.0865,35.2208
 L -24.4344,36.3097 L -23.7582,37.3628 L -23.0586,38.3791 L -22.3362,39.3574 L -21.5918,40.2969 L -20.826,41.1967
 L -20.0397,42.0557 L -19.2336,42.8733 L -18.4086,43.6486 L -17.5654,44.3808 L -16.7048,45.0692 L -15.8278,45.7131
 L -14.9351,46.3119 L -14.0277,46.865 L -13.1065,47.3719 L -12.1723,47.832 L -11.2261,48.2449 L -10.2688,48.6102
 L -9.30144,48.9275 L -8.32486,49.1965 L -7.34006,49.417 L -6.34802,49.5887 L -5.34972,49.7114 L -2.2972,50.0601
 L -1.29361,50.1338 L -0.285736,50.1584 z
M -33.1493,1.25369 L -35.2821,1.08926 L -37.38,0.922791 L -39.441,0.75441 L -41.463,0.58432 L -43.444,0.412659
 L -45.382,0.239609 L -47.2752,0.0653381 L -49.1217,-0.10997 L -50.9197,-0.286163 L -52.6673,-0.463058 L -54.3629,-0.640472
 L -56.0047,-0.818237 L -57.5913,-0.996185 L -59.1209,-1.17413 L -60.5921,-1.3519 L -62.0035,-1.52933 L -63.3536,-1.70622
 L -64.6411,-1.8824 L -65.8647,-2.05772 L -67.0233,-2.23199 L -68.1157,-2.40504 L -69.1408,-2.57671 L -70.0976,-2.74681
 L -70.9851,-2.91518 L -71.8026,-3.08167 L -72.5491,-3.24608 L -73.2239,-3.40828 L -73.8264,-3.5681 L -74.356,-3.72539
 L -74.8121,-3.87997 L -75.1944,-4.03171 L -75.5023,-4.18047 L -75.5036,-4.18127 L -75.338,-4.24947 L -74.9727,-4.36505
 L -74.5334,-4.47632 L -74.0206,-4.58318 L -73.4346,-4.6855 L -72.7763,-4.78322 L -72.0461,-4.87621 L -71.2448,-4.96437
 L -70.3732,-5.04765 L -69.4321,-5.12595 L -68.4225,-5.19919 L -67.3454,-5.26729 L -66.2019,-5.3302 L -64.993,-5.38785
 L -63.7199,-5.44017 L -62.384,-5.48714 L -60.9865,-5.52869 L -59.5288,-5.56477 L -58.0124,-5.59537 L -56.4387,-5.62044
 L -54.8094,-5.63997 L -53.1259,-5.65393 L -51.39,-5.66232 L -49.6034,-5.66512 L -47.7679,-5.66232 L -45.8851,-5.65393
 L -43.9572,-5.63997 L -41.9858,-5.62044 L -39.973,-5.59537 L -37.9207,-5.56477 L -35.8311,-5.52869 L -33.7061,-5.48714
 L -31.5784,-5.44084 L -31.6826,-4.6875 L -31.8663,-3.12756 L -32.0187,-1.56456 L -32.1394,-0 L -32.2147,1.3237
 z
M 47.8346,4.66612 L 45.9519,4.65775 L 44.0239,4.64378 L 42.0526,4.62425 L 40.0398,4.59917 L 37.9875,4.56857
 L 35.8978,4.53249 L 33.7728,4.49094 L 31.6145,4.44398 L 29.4251,4.39165 L 27.2067,4.334 L 24.9615,4.2711
 L 22.6917,4.20299 L 20.3997,4.12976 L 18.0875,4.05145 L 15.7576,3.96819 L 13.4122,3.88 L 11.0536,3.78702
 L 8.68414,3.68932 L 6.30621,3.58698 L 3.92212,3.48012 L 1.53423,3.36885 L -0.855118,3.25327 L -3.24355,3.1335
 L -5.62871,3.00964 L -8.00827,2.88184 L -10.3798,2.75021 L -12.7411,2.61488 L -15.0897,2.476 L -17.3618,2.33743
 L -17.2923,1.13281 L -17.1915,-0.212357 L -17.0675,-1.55698 L -16.9205,-2.8997 L -16.7506,-4.23924 L -16.6411,-4.99834
 L -15.6908,-4.96437 L -13.3454,-4.87621 L -10.9868,-4.78322 L -8.61739,-4.6855 L -6.23944,-4.58318 L -3.85535,-4.47632
 L -1.46745,-4.36505 L 0.921875,-4.24947 L 3.31032,-4.12968 L 5.69548,-4.00584 L 8.07503,-3.87804 L 10.4466,-3.7464
 L 12.8079,-3.61108 L 15.1565,-3.47218 L 17.4902,-3.32986 L 19.8066,-3.18427 L 22.1035,-3.03552 L 24.3785,-2.88377
 L 26.6295,-2.72919 L 28.8542,-2.5719 L 31.0504,-2.41208 L 33.216,-2.24988 L 35.3489,-2.08546 L 37.4468,-1.91899
 L 39.5078,-1.75061 L 41.5297,-1.58051 L 43.5107,-1.40884 L 45.4488,-1.23579 L 47.342,-1.06152 L 49.1885,-0.886215
 L 50.9864,-0.710022 L 52.7341,-0.533127 L 54.4296,-0.355713 L 56.0715,-0.177933 L 57.658,-0 L 59.1877,0.177933
 L 60.6589,0.355713 L 62.0703,0.533127 L 63.4203,0.710022 L 64.7079,0.886215 L 65.9315,1.06152 L 67.0901,1.23579
 L 68.1825,1.40884 L 69.2076,1.58051 L 70.1644,1.75061 L 71.0519,1.91899 L 71.8693,2.08546 L 72.6158,2.24988
 L 73.2907,2.41208 L 73.8932,2.5719 L 74.4228,2.72919 L 74.8789,2.88377 L 75.2611,3.03552 L 75.5691,3.18427
 L 75.5704,3.18509 L 75.4048,3.25327 L 75.0395,3.36885 L 74.6002,3.48012 L 74.0873,3.58698 L 73.5014,3.68932
 L 72.843,3.78702 L 72.1128,3.88 L 71.3115,3.96819 L 70.4399,4.05145 L 69.4989,4.12976 L 68.4893,4.20299
 L 67.4122,4.2711 L 66.2686,4.334 L 65.0597,4.39165 L 63.7867,4.44398 L 62.4508,4.49094 L 61.0533,4.53249
 L 59.5956,4.56857 L 58.0792,4.59917 L 56.5055,4.62425 L 54.8761,4.64378 L 53.1927,4.65775 L 51.4568,4.66612
 L 49.6702,4.66891 z
M 43.313,-24.8692 L 43.3435,-25.1817 L 43.3802,-25.4937 L 43.4233,-25.8048 L 43.4725,-26.1146 L 43.5279,-26.4229
 L 43.5893,-26.7294 L 43.6569,-27.0337 L 43.7304,-27.3355 L 43.8098,-27.6346 L 43.8951,-27.9307 L 43.9861,-28.2235
 L 44.0827,-28.5126 L 44.1849,-28.7978 L 44.2926,-29.0789 L 44.4056,-29.3554 L 44.5239,-29.6273 L 44.6473,-29.8941
 L 44.7757,-30.1557 L 44.909,-30.4117 L 45.047,-30.662 L 45.1896,-30.9062 L 45.3367,-31.1442 L 45.4881,-31.3757
 L 45.6437,-31.6004 L 45.8033,-31.8182 L 45.9668,-32.0288 L 46.1339,-32.2321 L 46.3046,-32.4277 L 46.4787,-32.6156
 L 46.656,-32.7956 L 46.8363,-32.9674 L 47.0194,-33.1309 L 47.2052,-33.286 L 47.3935,-33.4324 L 47.584,-33.5701
 L 47.7767,-33.6989 L 47.9713,-33.8186 L 48.1676,-33.9292 L 48.3654,-34.0306 L 48.5646,-34.1226 L 48.7649,-34.2052
 L 48.9662,-34.2783 L 49.1681,-34.3417 L 49.3707,-34.3955 L 49.5735,-34.4396 L 49.7766,-34.474 L 49.9795,-34.4985
 L 50.1822,-34.5133 L 50.3844,-34.5182 L 49.4669,-34.623 L 49.3871,-34.6408 L 49.1918,-34.6946 L 48.9983,-34.7581
 L 48.8069,-34.8312 L 48.6176,-34.9137 L 48.4308,-35.0058 L 48.2465,-35.1071 L 48.065,-35.2177 L 47.8865,-35.3375
 L 47.7111,-35.4663 L 47.539,-35.604 L 47.3704,-35.7504 L 47.2054,-35.9055 L 47.0441,-36.069 L 46.8869,-36.2408
 L 46.7337,-36.4207 L 46.5848,-36.6087 L 46.4404,-36.8043 L 46.3004,-37.0076 L 46.1652,-37.2182 L 46.0348,-37.436
 L 45.9093,-37.6607 L 45.7889,-37.8922 L 45.6737,-38.1301 L 45.5638,-38.3744 L 45.4594,-38.6246 L 45.3604,-38.8807
 L 45.2671,-39.1423 L 45.1795,-39.4091 L 45.0976,-39.6809 L 45.0217,-39.9575 L 44.9517,-40.2385 L 44.8877,-40.5238
 L 44.8298,-40.8129 L 44.7781,-41.1056 L 44.7325,-41.4017 L 44.6932,-41.7008 L 44.6601,-42.0027 L 44.6334,-42.307
 L 44.6129,-42.6134 L 44.5989,-42.9217 L 44.5912,-43.2316 L 44.5899,-43.5426 L 44.595,-43.8546 L 44.6064,-44.1672
 L 44.6242,-44.4801 L 41.5717,-44.8288 L 41.5475,-44.5158 L 41.5171,-44.2032 L 41.4803,-43.8913 L 41.4373,-43.5802
 L 41.3881,-43.2704 L 41.3327,-42.9621 L 41.2712,-42.6556 L 41.2037,-42.3513 L 41.1302,-42.0495 L 41.0508,-41.7504
 L 40.9655,-41.4543 L 40.8745,-41.1615 L 40.7779,-40.8724 L 40.6757,-40.5872 L 40.568,-40.3061 L 40.455,-40.0296
 L 40.3367,-39.7577 L 40.2133,-39.4909 L 40.0849,-39.2293 L 39.9516,-38.9733 L 39.8136,-38.723 L 39.671,-38.4788
 L 39.5239,-38.2408 L 39.3725,-38.0093 L 39.2169,-37.7846 L 39.0573,-37.5668 L 38.8938,-37.3562 L 38.7267,-37.1529
 L 38.556,-36.9573 L 38.3819,-36.7694 L 38.2046,-36.5894 L 38.0243,-36.4176 L 37.8412,-36.2541 L 37.6554,-36.099
 L 37.4671,-35.9526 L 37.2766,-35.8149 L 37.0839,-35.6861 L 36.8893,-35.5664 L 36.693,-35.4557 L 36.4952,-35.3544
 L 36.296,-35.2624 L 36.0957,-35.1798 L 35.8944,-35.1067 L 35.6924,-35.0433 L 35.4899,-34.9895 L 35.287,-34.9454
 L 35.084,-34.911 L 34.8811,-34.8865 L 34.6784,-34.8717 L 34.4762,-34.8668 L 35.3937,-34.762 L 35.4735,-34.7442
 L 35.6688,-34.6904 L 35.8623,-34.6269 L 36.0537,-34.5538 L 36.243,-34.4713 L 36.4298,-34.3792 L 36.614,-34.2779
 L 36.7955,-34.1673 L 36.9741,-34.0475 L 37.1495,-33.9187 L 37.3216,-33.781 L 37.4902,-33.6346 L 37.6552,-33.4795
 L 37.8165,-33.316 L 37.9737,-33.1442 L 38.1269,-32.9642 L 38.2757,-32.7763 L 38.4202,-32.5807 L 38.5602,-32.3774
 L 38.6954,-32.1668 L 38.8258,-31.949 L 38.9513,-31.7243 L 39.0717,-31.4928 L 39.1868,-31.2549 L 39.2967,-31.0106
 L 39.4012,-30.7603 L 39.5002,-30.5043 L 39.5935,-30.2427 L 39.6811,-29.9759 L 39.7629,-29.7041 L 39.8389,-29.4275
 L 39.9089,-29.1465 L 39.9729,-28.8612 L 40.0308,-28.5721 L 40.0825,-28.2794 L 40.1281,-27.9833 L 40.1674,-27.6842
 L 40.2005,-27.3823 L 40.2272,-27.078 L 40.2476,-26.7715 L 40.2617,-26.4633 L 40.2694,-26.1534 L 40.2707,-25.8424
 L 40.2656,-25.5304 L 40.2542,-25.2178 L 40.2364,-24.9049 L 43.2889,-24.5562 z
M 57.22,-39.9982 L 57.2605,-40.0012 L 57.3011,-40.0061 L 57.3417,-40.013 L 57.3823,-40.0218 L 57.4228,-40.0325
 L 57.4632,-40.0452 L 57.5034,-40.0598 L 57.5435,-40.0764 L 57.5833,-40.0948 L 57.6229,-40.1151 L 57.6621,-40.1372
 L 57.701,-40.1611 L 57.7396,-40.1869 L 57.7777,-40.2144 L 57.8154,-40.2437 L 57.8525,-40.2747 L 57.8891,-40.3074
 L 57.9252,-40.3418 L 57.9606,-40.3778 L 57.9955,-40.4153 L 58.0296,-40.4545 L 58.063,-40.4951 L 58.0957,-40.5373
 L 58.1277,-40.5808 L 58.1588,-40.6258 L 58.1891,-40.6721 L 58.2185,-40.7197 L 58.247,-40.7685 L 58.2746,-40.8185
 L 58.3013,-40.8698 L 58.3269,-40.9221 L 58.3516,-40.9754 L 58.3753,-41.0298 L 58.3979,-41.0851 L 58.4194,-41.1413
 L 58.4398,-41.1984 L 58.4592,-41.2562 L 58.4774,-41.3147 L 58.4944,-41.374 L 58.5103,-41.4338 L 58.525,-41.4942
 L 58.5385,-41.555 L 58.5508,-41.6163 L 58.5619,-41.678 L 58.5717,-41.7399 L 58.5803,-41.8021 L 58.5877,-41.8645
 L 58.5938,-41.9271 L 58.5986,-41.9896 L 58.6022,-42.0522 L 58.6045,-42.1147 L 58.6055,-42.1771 L 58.6052,-42.2394
 L 58.6037,-42.3013 L 58.6009,-42.363 L 58.5968,-42.4243 L 58.5914,-42.4851 L 58.5848,-42.5455 L 58.577,-42.6053
 L 58.5678,-42.6645 L 58.5575,-42.7231 L 58.5459,-42.7809 L 58.5331,-42.838 L 58.5191,-42.8942 L 58.5039,-42.9495
 L 58.4876,-43.0039 L 58.47,-43.0572 L 58.4514,-43.1095 L 58.4316,-43.1607 L 58.4107,-43.2108 L 58.3887,-43.2596
 L 58.3657,-43.3072 L 58.3416,-43.3535 L 58.3165,-43.3985 L 58.2904,-43.442 L 58.2634,-43.4842 L 58.2354,-43.5248
 L 58.2065,-43.5639 L 58.1767,-43.6015 L 58.1461,-43.6375 L 58.1146,-43.6719 L 58.0824,-43.7046 L 58.0494,-43.7356
 L 58.0157,-43.7649 L 57.9812,-43.7924 L 57.9462,-43.8182 L 57.9104,-43.8421 L 57.8741,-43.8642 L 57.8373,-43.8845
 L 57.7999,-43.9029 L 57.7621,-43.9194 L 57.7238,-43.9341 L 57.6851,-43.9467 L 57.646,-43.9575 L 57.6066,-43.9663
 L 57.567,-43.9732 L 57.527,-43.9781 L 54.4745,-44.3267 L 54.4344,-44.3297 L 54.3941,-44.3307 L 54.3536,-44.3297
 L 54.3131,-44.3267 L 54.2725,-44.3218 L 54.2319,-44.3149 L 54.1913,-44.3061 L 54.1508,-44.2954 L 54.1104,-44.2827
 L 54.0701,-44.2681 L 54.0301,-44.2515 L 53.9902,-44.2331 L 53.9507,-44.2129 L 53.9114,-44.1908 L 53.8725,-44.1668
 L 53.834,-44.141 L 53.7959,-44.1135 L 53.7582,-44.0842 L 53.7211,-44.0532 L 53.6844,-44.0205 L 53.6484,-43.9861
 L 53.6129,-43.9501 L 53.5781,-43.9126 L 53.544,-43.8734 L 53.5105,-43.8328 L 53.4778,-43.7907 L 53.4459,-43.7471
 L 53.4148,-43.7021 L 53.3845,-43.6559 L 53.3551,-43.6083 L 53.3266,-43.5594 L 53.299,-43.5094 L 53.2723,-43.4582
 L 53.2466,-43.4058 L 53.2219,-43.3525 L 53.1983,-43.2981 L 53.1757,-43.2428 L 53.1542,-43.1866 L 53.1337,-43.1295
 L 53.1144,-43.0717 L 53.0962,-43.0132 L 53.0791,-42.9539 L 53.0632,-42.8941 L 53.0485,-42.8338 L 53.035,-42.7729
 L 53.0227,-42.7116 L 53.0117,-42.6499 L 53.0018,-42.588 L 52.9932,-42.5258 L 52.9859,-42.4634 L 52.9798,-42.4008
 L 52.9749,-42.3383 L 52.9714,-42.2757 L 52.9691,-42.2132 L 52.9681,-42.1508 L 52.9684,-42.0886 L 52.9699,-42.0266
 L 52.9727,-41.9649 L 52.9768,-41.9036 L 52.9821,-41.8428 L 52.9887,-41.7824 L 52.9966,-41.7226 L 53.0057,-41.6634
 L 53.0161,-41.6048 L 53.0276,-41.547 L 53.0405,-41.4899 L 53.0544,-41.4337 L 53.0696,-41.3784 L 53.086,-41.3241
 L 53.1035,-41.2707 L 53.1222,-41.2184 L 53.142,-41.1672 L 53.1629,-41.1171 L 53.1849,-41.0683 L 53.2079,-41.0207
 L 53.232,-40.9744 L 53.2571,-40.9294 L 53.2831,-40.8859 L 53.3102,-40.8438 L 53.3382,-40.8031 L 53.3671,-40.764
 L 53.3969,-40.7264 L 53.4275,-40.6904 L 53.4589,-40.656 L 53.4912,-40.6233 L 53.5242,-40.5923 L 53.5579,-40.563
 L 53.5923,-40.5355 L 53.6274,-40.5098 L 53.6631,-40.4858 L 53.6994,-40.4637 L 53.7363,-40.4434 L 53.7736,-40.425
 L 53.8115,-40.4085 L 53.8498,-40.3939 L 53.8885,-40.3812 L 53.9275,-40.3704 L 53.9669,-40.3616 L 54.0066,-40.3547
 L 54.0465,-40.3498 L 57.099,-40.0012 L 57.1392,-39.9982 L 57.1795,-39.9973 z
M 241.023,9.91273 L 241.181,9.90865 L 241.338,9.90184 L 241.494,9.89233 L 241.647,9.88011 L 241.799,9.86516
 L 241.95,9.84747 L 242.098,9.82709 L 242.246,9.80399 L 242.391,9.77815 L 242.535,9.7496 L 242.677,9.71834
 L 242.818,9.68437 L 242.957,9.64766 L 243.094,9.60825 L 243.23,9.5661 L 243.364,9.52126 L 243.497,9.47368
 L 243.628,9.42337 L 243.757,9.37036 L 243.884,9.31462 L 244.01,9.25618 L 244.135,9.19501 L 244.258,9.13112
 L 244.379,9.06451 L 244.498,8.99519 L 244.615,8.924 L 244.727,8.85175 L 244.835,8.77847 L 244.939,8.70415
 L 245.038,8.6288 L 245.133,8.5524 L 245.224,8.47498 L 245.31,8.39648 L 245.392,8.31697 L 245.47,8.23642
 L 245.544,8.15485 L 245.613,8.0722 L 245.677,7.98854 L 245.738,7.90384 L 245.794,7.81808 L 245.846,7.73131
 L 245.894,7.64349 L 245.937,7.55463 L 245.976,7.46472 L 246.01,7.37379 L 246.041,7.28181 L 246.067,7.18881
 L 246.088,7.09474 L 246.106,6.99966 L 246.119,6.90352 L 246.127,6.80635 L 246.132,6.70714 L 246.132,6.60905
 L 246.127,6.51208 L 246.118,6.41623 L 246.105,6.3215 L 246.087,6.22787 L 246.065,6.13538 L 246.038,6.04401
 L 246.007,5.95377 L 245.971,5.86462 L 245.931,5.77661 L 245.886,5.68973 L 245.837,5.60394 L 245.784,5.51929
 L 245.726,5.43576 L 245.663,5.35335 L 245.596,5.27205 L 245.525,5.19188 L 245.449,5.11282 L 245.369,5.0349
 L 245.284,4.95808 L 245.195,4.88239 L 245.101,4.80783 L 245.003,4.73436 L 244.901,4.66203 L 244.793,4.59082
 L 244.683,4.52148 L 244.571,4.4549 L 244.457,4.39101 L 244.341,4.32983 L 244.222,4.27138 L 244.102,4.21565
 L 243.98,4.16264 L 243.856,4.11235 L 243.73,4.06477 L 243.602,4.01991 L 243.472,3.97777 L 243.339,3.93835
 L 243.205,3.90164 L 243.069,3.86768 L 242.931,3.83641 L 242.791,3.80786 L 242.649,3.78203 L 242.505,3.75893
 L 242.359,3.73853 L 242.211,3.72087 L 239.159,3.37224 L 239.009,3.35728 L 238.857,3.34505 L 238.703,3.33553
 L 238.547,3.32874 L 238.389,3.32466 L 238.229,3.32332 L 238.072,3.32466 L 237.916,3.32874 L 237.762,3.33553
 L 237.61,3.34505 L 237.459,3.35728 L 237.31,3.37224 L 237.162,3.38991 L 237.015,3.41031 L 236.871,3.43341
 L 236.727,3.45924 L 236.585,3.48778 L 236.445,3.51906 L 236.306,3.55302 L 236.168,3.58974 L 236.032,3.62915
 L 235.898,3.67128 L 235.765,3.71614 L 235.633,3.76372 L 235.504,3.81403 L 235.375,3.86702 L 235.248,3.92274
 L 235.123,3.98122 L 234.999,4.04239 L 234.876,4.10628 L 234.755,4.17287 L 234.636,4.2422 L 234.519,4.31342
 L 234.407,4.38574 L 234.299,4.4592 L 234.195,4.53377 L 234.096,4.60947 L 234.001,4.68626 L 233.91,4.76421
 L 233.824,4.84326 L 233.742,4.92343 L 233.664,5.00473 L 233.59,5.08714 L 233.521,5.17067 L 233.456,5.25533
 L 233.396,5.34109 L 233.34,5.42799 L 233.288,5.51601 L 233.24,5.60513 L 233.197,5.69539 L 233.158,5.78676
 L 233.123,5.87926 L 233.093,5.97287 L 233.067,6.06761 L 233.045,6.16347 L 233.027,6.26042 L 233.014,6.35852
 L 233.005,6.45773 L 233.001,6.5549 L 233.001,6.65105 L 233.006,6.74612 L 233.015,6.84018 L 233.028,6.9332
 L 233.046,7.02518 L 233.069,7.1161 L 233.096,7.20601 L 233.127,7.29486 L 233.163,7.38268 L 233.203,7.46947
 L 233.248,7.55521 L 233.297,7.63992 L 233.35,7.72359 L 233.408,7.80621 L 233.471,7.8878 L 233.538,7.96835
 L 233.609,8.04787 L 233.685,8.12634 L 233.765,8.20378 L 233.85,8.28018 L 233.939,8.35553 L 234.033,8.42984
 L 234.131,8.50313 L 234.233,8.57538 L 234.34,8.64658 L 234.451,8.7159 L 234.563,8.7825 L 234.677,8.84639
 L 234.792,8.90756 L 234.91,8.966 L 235.03,9.02174 L 235.151,9.07475 L 235.274,9.12505 L 235.399,9.17262
 L 235.526,9.21748 L 235.655,9.25963 L 235.786,9.29904 L 235.918,9.33574 L 236.053,9.36972 L 236.189,9.40099
 L 236.327,9.42953 L 236.467,9.45537 L 236.609,9.47847 L 236.752,9.49886 L 236.898,9.51653 L 239.95,9.86516
 L 240.098,9.88011 L 240.247,9.89233 L 240.398,9.90184 L 240.551,9.90865 L 240.706,9.91273 L 240.863,9.91408
 z
M 106.78,4.42863 L 103.727,4.08002 L 97.6253,4.08002 L 94.8943,44.8288 L 97.9468,45.1774 L 104.049,45.1774
 z
M 220.036,19.0201 L 229.713,19.0201 L 229.931,15.7777 L 226.878,15.4291 L 220.277,15.4291 L 220.985,4.86098
 L 217.933,4.51236 L 211.787,4.51236 L 211.055,15.4291 L 202.73,15.4291 L 202.513,18.6715 L 205.565,19.0201
 L 210.815,19.0201 L 209.085,44.8288 L 212.138,45.1774 L 218.283,45.1774 z
M 182.942,45.9304 L 183.406,45.9192 L 183.865,45.9006 L 184.319,45.8746 L 184.766,45.8412 L 185.208,45.8003
 L 185.645,45.7519 L 186.076,45.6962 L 186.501,45.633 L 186.921,45.5624 L 187.336,45.4843 L 187.744,45.3988
 L 188.148,45.3059 L 188.545,45.2055 L 188.937,45.0977 L 189.324,44.9825 L 189.705,44.8598 L 190.08,44.7297
 L 190.45,44.5922 L 190.814,44.4472 L 191.173,44.2948 L 191.526,44.135 L 191.874,43.9677 L 192.216,43.793
 L 192.552,43.6109 L 192.883,43.4213 L 193.205,43.2263 L 193.516,43.0281 L 193.814,42.8266 L 194.101,42.6218
 L 194.375,42.4137 L 194.638,42.2024 L 194.889,41.9877 L 195.128,41.7698 L 195.355,41.5486 L 195.57,41.3242
 L 195.773,41.0965 L 195.964,40.8654 L 196.144,40.6311 L 196.311,40.3936 L 196.467,40.1527 L 196.61,39.9086
 L 196.742,39.6612 L 196.862,39.4105 L 196.97,39.1566 L 197.066,38.8993 L 197.15,38.6388 L 197.222,38.3751
 L 197.283,38.108 L 197.331,37.8376 L 197.368,37.564 L 197.392,37.2871 L 197.402,37.0904 L 197.404,36.8952
 L 197.399,36.7016 L 197.388,36.5094 L 197.368,36.3188 L 197.342,36.1297 L 197.308,35.9421 L 197.268,35.756
 L 197.22,35.5715 L 197.165,35.3884 L 197.102,35.2069 L 197.033,35.0269 L 196.956,34.8484 L 196.872,34.6715
 L 196.781,34.496 L 196.683,34.3221 L 196.577,34.1497 L 196.465,33.9788 L 196.345,33.8094 L 196.218,33.6416
 L 196.084,33.4753 L 195.942,33.3104 L 195.793,33.1472 L 195.638,32.9854 L 195.474,32.8251 L 195.304,32.6664
 L 195.12,32.5102 L 194.924,32.3536 L 194.714,32.1965 L 194.492,32.039 L 194.257,31.8809 L 194.009,31.7224
 L 193.748,31.5633 L 193.474,31.4039 L 193.188,31.2439 L 192.888,31.0834 L 192.576,30.9225 L 192.25,30.7611
 L 191.912,30.5992 L 191.561,30.4368 L 191.197,30.274 L 190.821,30.1106 L 190.431,29.9468 L 190.029,29.7825
 L 189.613,29.6177 L 189.185,29.4525 L 188.744,29.2867 L 188.29,29.1205 L 187.824,28.9538 L 187.344,28.7867
 L 186.851,28.619 L 186.346,28.4509 L 185.932,28.3144 L 185.529,28.1792 L 185.137,28.0454 L 184.756,27.913
 L 184.387,27.7819 L 184.029,27.6522 L 183.682,27.5238 L 183.346,27.3968 L 183.022,27.2712 L 182.709,27.1469
 L 182.407,27.024 L 182.117,26.9025 L 181.838,26.7823 L 181.57,26.6634 L 181.313,26.5459 L 181.067,26.4298
 L 180.833,26.3151 L 180.61,26.2017 L 180.398,26.0897 L 180.198,25.979 L 180.009,25.8697 L 179.831,25.7617
 L 179.664,25.6552 L 179.509,25.5499 L 179.365,25.446 L 179.232,25.3436 L 179.107,25.2436 L 178.987,25.1432
 L 178.873,25.0424 L 178.763,24.9413 L 178.659,24.8397 L 178.56,24.7377 L 178.467,24.6353 L 178.378,24.5326
 L 178.295,24.4294 L 178.216,24.3259 L 178.143,24.2219 L 178.076,24.1175 L 178.013,24.0127 L 177.955,23.9076
 L 177.903,23.802 L 177.856,23.696 L 177.814,23.5897 L 177.778,23.4829 L 177.746,23.3757 L 177.72,23.2682
 L 177.699,23.1602 L 177.683,23.0518 L 177.672,22.9431 L 177.666,22.8339 L 177.666,22.7243 L 177.671,22.6144
 L 177.682,22.4902 L 177.7,22.3673 L 177.724,22.2456 L 177.754,22.1251 L 177.79,22.0058 L 177.832,21.8876
 L 177.88,21.7707 L 177.935,21.655 L 177.996,21.5405 L 178.063,21.4271 L 178.136,21.315 L 178.216,21.2041
 L 178.301,21.0944 L 178.393,20.9859 L 178.491,20.8785 L 178.595,20.7724 L 178.705,20.6675 L 178.821,20.5638
 L 178.944,20.4613 L 179.073,20.3599 L 179.208,20.2598 L 179.349,20.1609 L 179.496,20.0632 L 179.65,19.9667
 L 179.809,19.8713 L 179.975,19.7772 L 180.145,19.6855 L 180.317,19.5973 L 180.492,19.5127 L 180.669,19.4318
 L 180.848,19.3544 L 181.029,19.2807 L 181.213,19.2105 L 181.399,19.144 L 181.587,19.081 L 181.778,19.0216
 L 181.97,18.9658 L 182.165,18.9137 L 182.363,18.8651 L 182.562,18.8201 L 182.764,18.7787 L 182.968,18.741
 L 183.175,18.7068 L 183.383,18.6762 L 183.594,18.6492 L 183.807,18.6258 L 184.023,18.606 L 184.241,18.5898
 L 184.461,18.5773 L 184.683,18.5683 L 184.908,18.5629 L 185.134,18.5611 L 185.303,18.5631 L 185.313,18.5653
 L 185.673,18.6481 L 186.032,18.7396 L 186.392,18.8398 L 186.751,18.9487 L 187.111,19.0664 L 187.47,19.1927
 L 187.83,19.3278 L 188.19,19.4715 L 188.55,19.624 L 188.91,19.7852 L 189.27,19.9551 L 189.63,20.1337
 L 189.99,20.3211 L 190.35,20.5171 L 190.71,20.7219 L 191.07,20.9354 L 191.431,21.1576 L 194.483,21.5062
 L 198.574,18.9934 L 198.085,18.6937 L 197.595,18.4058 L 197.105,18.1296 L 196.614,17.8651 L 196.122,17.6125
 L 195.63,17.3715 L 195.137,17.1423 L 194.644,16.9249 L 194.151,16.7193 L 193.656,16.5253 L 193.162,16.3432
 L 192.666,16.1728 L 192.171,16.0141 L 191.674,15.8672 L 191.177,15.732 L 190.68,15.6086 L 190.182,15.497
 L 189.684,15.3971 L 189.185,15.3089 L 188.685,15.2325 L 188.185,15.1679 L 185.133,14.8193 L 184.632,14.7664
 L 184.131,14.7252 L 183.629,14.6959 L 183.127,14.6782 L 182.625,14.6723 L 182.195,14.6756 L 181.77,14.6855
 L 181.351,14.7019 L 180.937,14.7248 L 180.528,14.7543 L 180.125,14.7904 L 179.727,14.833 L 179.334,14.8821
 L 178.946,14.9379 L 178.564,15.0002 L 178.187,15.069 L 177.816,15.1444 L 177.449,15.2263 L 177.088,15.3148
 L 176.733,15.4099 L 176.382,15.5115 L 176.037,15.6197 L 175.697,15.7344 L 175.363,15.8557 L 175.034,15.9836
 L 174.71,16.118 L 174.391,16.2589 L 174.078,16.4064 L 173.77,16.5605 L 173.467,16.7211 L 173.17,16.8883
 L 172.88,17.0604 L 172.602,17.2359 L 172.334,17.4147 L 172.076,17.5969 L 171.829,17.7824 L 171.593,17.9713
 L 171.368,18.1636 L 171.153,18.3592 L 170.949,18.5582 L 170.756,18.7605 L 170.573,18.9662 L 170.401,19.1752
 L 170.24,19.3876 L 170.089,19.6034 L 169.949,19.8225 L 169.82,20.045 L 169.701,20.2709 L 169.593,20.5001
 L 169.496,20.7326 L 169.409,20.9686 L 169.333,21.2078 L 169.268,21.4505 L 169.213,21.6965 L 169.169,21.9458
 L 169.136,22.1985 L 169.114,22.4546 L 169.104,22.6512 L 169.101,22.8462 L 169.105,23.0395 L 169.116,23.231
 L 169.134,23.421 L 169.159,23.6092 L 169.191,23.7958 L 169.23,23.9806 L 169.276,24.1638 L 169.329,24.3454
 L 169.388,24.5252 L 169.455,24.7034 L 169.529,24.8799 L 169.609,25.0547 L 169.697,25.2278 L 169.791,25.3993
 L 169.892,25.5691 L 170.001,25.7372 L 170.116,25.9036 L 170.238,26.0683 L 170.367,26.2314 L 170.504,26.3928
 L 170.647,26.5525 L 170.797,26.7105 L 170.954,26.8669 L 171.118,27.0216 L 171.291,27.1755 L 171.477,27.3295
 L 171.674,27.4837 L 171.884,27.6381 L 172.106,27.7926 L 172.34,27.9473 L 172.586,28.1022 L 172.844,28.2572
 L 173.115,28.4123 L 173.397,28.5677 L 173.692,28.7231 L 173.998,28.8788 L 174.317,29.0346 L 174.648,29.1906
 L 174.991,29.3467 L 175.346,29.503 L 175.713,29.6594 L 176.093,29.816 L 176.484,29.9727 L 176.888,30.1297
 L 177.303,30.2867 L 177.731,30.444 L 178.171,30.6014 L 178.623,30.7589 L 179.087,30.9166 L 179.563,31.0745
 L 180.007,31.219 L 180.438,31.3617 L 180.856,31.5024 L 181.262,31.6412 L 181.655,31.778 L 182.036,31.913
 L 182.404,32.0461 L 182.76,32.1772 L 183.104,32.3064 L 183.434,32.4337 L 183.753,32.559 L 184.058,32.6825
 L 184.352,32.804 L 184.632,32.9236 L 184.9,33.0413 L 185.156,33.1571 L 185.399,33.2709 L 185.63,33.3829
 L 185.848,33.4929 L 186.054,33.601 L 186.247,33.7072 L 186.428,33.8114 L 186.596,33.9138 L 186.751,34.0142
 L 186.894,34.1127 L 187.025,34.2093 L 187.147,34.3075 L 187.263,34.4068 L 187.375,34.5071 L 187.481,34.6084
 L 187.582,34.7108 L 187.679,34.8142 L 187.77,34.9186 L 187.856,35.0241 L 187.937,35.1306 L 188.012,35.2382
 L 188.083,35.3468 L 188.149,35.4565 L 188.209,35.5671 L 188.265,35.6789 L 188.315,35.7916 L 188.36,35.9054
 L 188.4,36.0203 L 188.435,36.1362 L 188.465,36.2531 L 188.49,36.3711 L 188.51,36.4901 L 188.524,36.6101
 L 188.534,36.7312 L 188.538,36.8533 L 188.537,36.9765 L 188.531,37.1007 L 188.518,37.2516 L 188.496,37.4011
 L 188.467,37.549 L 188.431,37.6954 L 188.387,37.8403 L 188.335,37.9837 L 188.276,38.1256 L 188.21,38.2659
 L 188.136,38.4047 L 188.054,38.542 L 187.965,38.6778 L 187.869,38.8121 L 187.765,38.9448 L 187.653,39.0761
 L 187.534,39.2058 L 187.408,39.334 L 187.274,39.4606 L 187.132,39.5858 L 186.983,39.7094 L 186.827,39.8315
 L 186.663,39.9521 L 186.491,40.0712 L 186.312,40.1888 L 186.125,40.3048 L 185.931,40.4194 L 185.73,40.5324
 L 185.523,40.6425 L 185.313,40.7482 L 185.1,40.8497 L 184.885,40.9468 L 184.666,41.0397 L 184.445,41.1282
 L 184.22,41.2123 L 183.993,41.2922 L 183.763,41.3678 L 183.529,41.439 L 183.293,41.5059 L 183.054,41.5685
 L 182.812,41.6268 L 182.567,41.6808 L 182.319,41.7304 L 182.068,41.7757 L 181.815,41.8167 L 181.558,41.8534
 L 181.298,41.8858 L 181.036,41.9139 L 180.77,41.9376 L 180.502,41.9571 L 180.23,41.9722 L 179.956,41.983
 L 179.679,41.9894 L 179.399,41.9916 L 179.109,41.9881 L 178.924,41.9484 L 178.544,41.8565 L 178.166,41.7549
 L 177.79,41.6437 L 177.417,41.5228 L 177.046,41.3921 L 176.677,41.2519 L 176.311,41.1019 L 175.947,40.9423
 L 175.585,40.773 L 175.226,40.594 L 174.869,40.4054 L 174.514,40.207 L 174.162,39.999 L 173.812,39.7814
 L 173.464,39.554 L 173.118,39.317 L 172.775,39.0703 L 169.723,38.7217 L 165.706,41.4242 L 165.886,41.5726
 L 166.07,41.7185 L 166.257,41.862 L 166.449,42.0029 L 166.644,42.1414 L 166.844,42.2775 L 167.048,42.411
 L 167.255,42.5421 L 167.466,42.6707 L 167.682,42.7968 L 167.901,42.9204 L 168.125,43.0416 L 168.352,43.1602
 L 168.583,43.2764 L 168.819,43.3902 L 169.058,43.5014 L 169.301,43.6102 L 169.548,43.7165 L 169.8,43.8203
 L 170.055,43.9216 L 170.314,44.0205 L 170.577,44.1169 L 170.844,44.2108 L 171.115,44.3023 L 171.39,44.3912
 L 171.669,44.4777 L 171.951,44.5613 L 172.234,44.6416 L 172.518,44.7186 L 172.804,44.7923 L 173.09,44.8628
 L 173.379,44.93 L 173.668,44.9939 L 173.959,45.0545 L 174.251,45.1119 L 174.545,45.166 L 174.839,45.2168
 L 175.136,45.2643 L 175.433,45.3085 L 175.732,45.3495 L 176.032,45.3872 L 179.386,45.7702 L 179.688,45.8013
 L 179.992,45.8292 L 180.298,45.8538 L 180.604,45.8751 L 180.912,45.8931 L 181.222,45.9079 L 181.532,45.9193
 L 181.844,45.9275 L 182.157,45.9324 L 182.472,45.9341 z
M 260.642,34.3958 L 260.673,33.9542 L 260.706,33.5234 L 260.741,33.1033 L 260.777,32.6938 L 260.816,32.2952
 L 260.856,31.9072 L 260.898,31.5299 L 260.942,31.1633 L 260.987,30.8075 L 261.035,30.4623 L 261.085,30.1279
 L 261.136,29.8042 L 261.189,29.4912 L 261.244,29.1889 L 261.301,28.8974 L 261.36,28.6165 L 261.421,28.3463
 L 261.483,28.0869 L 261.547,27.8382 L 261.614,27.6002 L 261.682,27.3729 L 261.752,27.1563 L 261.824,26.9504
 L 261.897,26.7553 L 261.973,26.5709 L 262.05,26.3971 L 262.179,26.141 L 262.317,25.8881 L 262.463,25.6383
 L 262.617,25.3918 L 262.781,25.1485 L 262.953,24.9083 L 263.133,24.6714 L 263.323,24.4377 L 263.52,24.2071
 L 263.727,23.9798 L 263.942,23.7556 L 264.166,23.5347 L 264.398,23.3169 L 264.639,23.1023 L 264.888,22.891
 L 265.147,22.6828 L 265.413,22.4778 L 265.689,22.2761 L 265.973,22.0775 L 266.265,21.8821 L 266.567,21.6899
 L 266.877,21.5009 L 267.195,21.3152 L 267.522,21.1326 L 267.858,20.9532 L 268.202,20.777 L 268.552,20.6057
 L 268.906,20.4412 L 269.262,20.2833 L 269.621,20.1322 L 269.983,19.9878 L 270.348,19.8501 L 270.716,19.7192
 L 271.087,19.5949 L 271.461,19.4774 L 271.837,19.3666 L 272.217,19.2625 L 272.6,19.1651 L 272.986,19.0744
 L 273.375,18.9904 L 273.766,18.9132 L 274.161,18.8427 L 274.559,18.7789 L 274.959,18.7218 L 275.363,18.6714
 L 275.769,18.6278 L 276.179,18.5908 L 276.591,18.5606 L 277.007,18.5371 L 277.425,18.5203 L 277.846,18.5102
 L 278.271,18.5069 L 278.64,18.509 L 279.004,18.5156 L 279.362,18.5265 L 279.633,18.5383 L 279.869,18.5853
 L 280.159,18.6484 L 280.442,18.716 L 280.72,18.7879 L 280.993,18.8641 L 281.259,18.9447 L 281.52,19.0297
 L 281.775,19.119 L 282.025,19.2127 L 282.268,19.3107 L 282.506,19.4131 L 282.739,19.5199 L 282.965,19.631
 L 283.186,19.7464 L 283.401,19.8661 L 283.61,19.9901 L 283.813,20.1184 L 284.01,20.2509 L 284.201,20.3877
 L 284.386,20.5288 L 284.565,20.6742 L 284.738,20.8238 L 284.905,20.9777 L 285.067,21.1359 L 285.222,21.2984
 L 285.371,21.4651 L 285.514,21.6361 L 285.652,21.8114 L 285.783,21.991 L 285.908,22.1748 L 286.028,22.3629
 L 286.141,22.5553 L 286.249,22.752 L 286.35,22.953 L 286.446,23.1582 L 286.536,23.3677 L 286.619,23.5815
 L 286.697,23.7995 L 286.769,24.0218 L 286.812,24.1578 L 286.853,24.3038 L 286.891,24.4597 L 286.926,24.6257
 L 286.959,24.8016 L 286.989,24.9875 L 287.016,25.1835 L 287.04,25.3894 L 287.062,25.6053 L 287.081,25.8312
 L 287.097,26.0671 L 287.111,26.3129 L 287.121,26.5688 L 287.129,26.8347 L 287.134,27.1105 L 287.137,27.3964
 L 287.137,27.6922 L 287.134,27.998 L 287.128,28.3139 L 287.12,28.6397 L 287.109,28.9755 L 287.095,29.3212
 L 287.078,29.677 L 287.059,30.0428 L 287.037,30.4186 L 287.012,30.8043 L 286.072,44.8288 L 289.124,45.1774
 L 295.183,45.1774 L 296.197,30.0452 L 296.225,29.5884 L 296.246,29.141 L 296.261,28.703 L 296.27,28.2743
 L 296.272,27.8549 L 296.267,27.4449 L 296.256,27.0443 L 296.239,26.653 L 296.215,26.2711 L 296.185,25.8985
 L 296.149,25.5353 L 296.105,25.1814 L 296.056,24.8369 L 296,24.5017 L 295.938,24.1759 L 295.869,23.8595
 L 295.794,23.5524 L 295.712,23.2546 L 295.624,22.9662 L 295.53,22.6872 L 295.429,22.4175 L 295.321,22.1571
 L 295.208,21.9062 L 295.087,21.6645 L 294.961,21.4323 L 294.828,21.2094 L 294.688,20.9928 L 294.542,20.7797
 L 294.389,20.57 L 294.23,20.3638 L 294.064,20.1609 L 293.891,19.9616 L 293.712,19.7657 L 293.526,19.5732
 L 293.334,19.3842 L 293.135,19.1985 L 292.929,19.0164 L 292.717,18.8376 L 292.498,18.6624 L 292.272,18.4905
 L 292.04,18.3221 L 291.801,18.1572 L 291.556,17.9956 L 291.304,17.8375 L 291.045,17.6829 L 290.78,17.5316
 L 290.508,17.3839 L 290.23,17.2395 L 289.944,17.0986 L 289.653,16.9612 L 289.354,16.8272 L 289.049,16.6966
 L 288.739,16.5702 L 288.425,16.4487 L 288.107,16.3322 L 287.786,16.2207 L 287.46,16.1141 L 287.13,16.0125
 L 286.797,15.9158 L 286.46,15.8241 L 286.119,15.7373 L 285.773,15.6555 L 285.425,15.5787 L 285.072,15.5068
 L 284.715,15.4399 L 284.354,15.3779 L 283.99,15.3209 L 283.622,15.2688 L 283.249,15.2218 L 280.197,14.8731
 L 279.821,14.831 L 279.441,14.7938 L 279.057,14.7616 L 278.669,14.7343 L 278.278,14.712 L 277.882,14.6947
 L 277.483,14.6823 L 277.08,14.6748 L 276.672,14.6723 L 276.271,14.6746 L 275.872,14.6812 L 275.475,14.6923
 L 275.079,14.7079 L 274.686,14.7278 L 274.295,14.7522 L 273.906,14.7811 L 273.519,14.8144 L 273.133,14.8521
 L 272.75,14.8942 L 272.369,14.9408 L 271.99,14.9919 L 271.613,15.0473 L 271.238,15.1072 L 270.865,15.1716
 L 270.494,15.2403 L 270.125,15.3136 L 269.758,15.3912 L 269.393,15.4733 L 269.03,15.5598 L 268.669,15.6508
 L 268.311,15.7462 L 267.954,15.8461 L 267.599,15.9504 L 267.246,16.0591 L 266.895,16.1722 L 266.547,16.2898
 L 266.2,16.4119 L 265.855,16.5386 L 265.513,16.6698 L 265.172,16.8054 L 264.833,16.9456 L 264.497,17.0903
 L 264.162,17.2395 L 263.83,17.3933 L 263.499,17.5516 L 263.17,17.7143 L 262.844,17.8816 L 262.519,18.0534
 L 262.197,18.2298 L 261.876,18.4106 L 261.707,18.5091 L 261.89,15.7777 L 258.838,15.4291 L 252.735,15.4291
 L 250.765,44.8288 L 253.817,45.1774 L 259.92,45.1774 z
M 373.613,45.9304 L 374.078,45.9192 L 374.536,45.9006 L 374.99,45.8746 L 375.438,45.8412 L 375.88,45.8003
 L 376.316,45.7519 L 376.747,45.6962 L 377.173,45.633 L 377.593,45.5624 L 378.007,45.4843 L 378.416,45.3988
 L 378.819,45.3059 L 379.217,45.2055 L 379.609,45.0977 L 379.995,44.9825 L 380.376,44.8598 L 380.752,44.7297
 L 381.121,44.5922 L 381.486,44.4472 L 381.844,44.2948 L 382.198,44.135 L 382.545,43.9677 L 382.887,43.793
 L 383.224,43.6109 L 383.555,43.4213 L 383.877,43.2263 L 384.187,43.0281 L 384.485,42.8266 L 384.772,42.6218
 L 385.047,42.4137 L 385.309,42.2024 L 385.56,41.9877 L 385.799,41.7698 L 386.026,41.5486 L 386.241,41.3242
 L 386.444,41.0965 L 386.635,40.8654 L 386.815,40.6311 L 386.982,40.3936 L 387.138,40.1527 L 387.282,39.9086
 L 387.413,39.6612 L 387.533,39.4105 L 387.641,39.1566 L 387.737,38.8993 L 387.821,38.6388 L 387.894,38.3751
 L 387.954,38.108 L 388.002,37.8376 L 388.039,37.564 L 388.063,37.2871 L 388.073,37.0904 L 388.076,36.8952
 L 388.071,36.7016 L 388.059,36.5094 L 388.04,36.3188 L 388.013,36.1297 L 387.98,35.9421 L 387.939,35.756
 L 387.891,35.5715 L 387.836,35.3884 L 387.774,35.2069 L 387.704,35.0269 L 387.627,34.8484 L 387.544,34.6715
 L 387.452,34.496 L 387.354,34.3221 L 387.249,34.1497 L 387.136,33.9788 L 387.016,33.8094 L 386.889,33.6416
 L 386.755,33.4753 L 386.613,33.3104 L 386.465,33.1472 L 386.309,32.9854 L 386.146,32.8251 L 385.975,32.6664
 L 385.792,32.5102 L 385.595,32.3536 L 385.386,32.1965 L 385.163,32.039 L 384.928,31.8809 L 384.68,31.7224
 L 384.419,31.5633 L 384.145,31.4039 L 383.859,31.2439 L 383.559,31.0834 L 383.247,30.9225 L 382.922,30.7611
 L 382.584,30.5992 L 382.233,30.4368 L 381.869,30.274 L 381.492,30.1106 L 381.102,29.9468 L 380.7,29.7825
 L 380.285,29.6177 L 379.857,29.4525 L 379.415,29.2867 L 378.962,29.1205 L 378.495,28.9538 L 378.015,28.7867
 L 377.523,28.619 L 377.017,28.4509 L 376.603,28.3144 L 376.2,28.1792 L 375.808,28.0454 L 375.427,27.913
 L 375.058,27.7819 L 374.7,27.6522 L 374.353,27.5238 L 374.018,27.3968 L 373.693,27.2712 L 373.38,27.1469
 L 373.079,27.024 L 372.788,26.9025 L 372.509,26.7823 L 372.241,26.6634 L 371.984,26.5459 L 371.739,26.4298
 L 371.504,26.3151 L 371.281,26.2017 L 371.07,26.0897 L 370.869,25.979 L 370.68,25.8697 L 370.502,25.7617
 L 370.335,25.6552 L 370.18,25.5499 L 370.036,25.446 L 369.903,25.3436 L 369.778,25.2436 L 369.658,25.1432
 L 369.544,25.0424 L 369.435,24.9413 L 369.33,24.8397 L 369.232,24.7377 L 369.138,24.6353 L 369.049,24.5326
 L 368.966,24.4294 L 368.888,24.3259 L 368.815,24.2219 L 368.747,24.1175 L 368.684,24.0127 L 368.627,23.9076
 L 368.574,23.802 L 368.527,23.696 L 368.486,23.5897 L 368.449,23.4829 L 368.417,23.3757 L 368.391,23.2682
 L 368.37,23.1602 L 368.354,23.0518 L 368.343,22.9431 L 368.338,22.8339 L 368.337,22.7243 L 368.342,22.6144
 L 368.353,22.4902 L 368.371,22.3673 L 368.395,22.2456 L 368.425,22.1251 L 368.461,22.0058 L 368.503,21.8876
 L 368.552,21.7707 L 368.606,21.655 L 368.667,21.5405 L 368.734,21.4271 L 368.807,21.315 L 368.887,21.2041
 L 368.972,21.0944 L 369.064,20.9859 L 369.162,20.8785 L 369.266,20.7724 L 369.376,20.6675 L 369.493,20.5638
 L 369.615,20.4613 L 369.744,20.3599 L 369.879,20.2598 L 370.02,20.1609 L 370.167,20.0632 L 370.321,19.9667
 L 370.48,19.8713 L 370.646,19.7772 L 370.816,19.6855 L 370.989,19.5973 L 371.163,19.5127 L 371.34,19.4318
 L 371.519,19.3544 L 371.701,19.2807 L 371.884,19.2105 L 372.07,19.144 L 372.258,19.081 L 372.449,19.0216
 L 372.642,18.9658 L 372.837,18.9137 L 373.034,18.8651 L 373.234,18.8201 L 373.435,18.7787 L 373.639,18.741
 L 373.846,18.7068 L 374.055,18.6762 L 374.266,18.6492 L 374.479,18.6258 L 374.694,18.606 L 374.912,18.5898
 L 375.132,18.5773 L 375.354,18.5683 L 375.579,18.5629 L 375.806,18.5611 L 375.974,18.5631 L 375.985,18.5653
 L 376.344,18.6481 L 376.703,18.7396 L 377.063,18.8398 L 377.422,18.9487 L 377.782,19.0664 L 378.142,19.1927
 L 378.501,19.3278 L 378.861,19.4715 L 379.221,19.624 L 379.581,19.7852 L 379.941,19.9551 L 380.301,20.1337
 L 380.661,20.3211 L 381.021,20.5171 L 381.381,20.7219 L 381.742,20.9354 L 382.102,21.1576 L 385.154,21.5062
 L 389.246,18.9934 L 388.756,18.6937 L 388.266,18.4058 L 387.776,18.1296 L 387.285,17.8651 L 386.793,17.6125
 L 386.301,17.3715 L 385.809,17.1423 L 385.316,16.9249 L 384.822,16.7193 L 384.328,16.5253 L 383.833,16.3432
 L 383.338,16.1728 L 382.842,16.0141 L 382.346,15.8672 L 381.849,15.732 L 381.351,15.6086 L 380.853,15.497
 L 380.355,15.3971 L 379.856,15.3089 L 379.357,15.2325 L 378.856,15.1679 L 375.804,14.8193 L 375.303,14.7664
 L 374.802,14.7252 L 374.301,14.6959 L 373.798,14.6782 L 373.296,14.6723 L 372.866,14.6756 L 372.441,14.6855
 L 372.022,14.7019 L 371.608,14.7248 L 371.199,14.7543 L 370.796,14.7904 L 370.398,14.833 L 370.005,14.8821
 L 369.618,14.9379 L 369.235,15.0002 L 368.858,15.069 L 368.487,15.1444 L 368.121,15.2263 L 367.76,15.3148
 L 367.404,15.4099 L 367.053,15.5115 L 366.708,15.6197 L 366.369,15.7344 L 366.034,15.8557 L 365.705,15.9836
 L 365.381,16.118 L 365.062,16.2589 L 364.749,16.4064 L 364.441,16.5605 L 364.138,16.7211 L 363.841,16.8883
 L 363.552,17.0604 L 363.273,17.2359 L 363.005,17.4147 L 362.747,17.5969 L 362.501,17.7824 L 362.265,17.9713
 L 362.039,18.1636 L 361.825,18.3592 L 361.621,18.5582 L 361.427,18.7605 L 361.245,18.9662 L 361.072,19.1752
 L 360.911,19.3876 L 360.76,19.6034 L 360.62,19.8225 L 360.491,20.045 L 360.372,20.2709 L 360.264,20.5001
 L 360.167,20.7326 L 360.081,20.9686 L 360.005,21.2078 L 359.939,21.4505 L 359.885,21.6965 L 359.841,21.9458
 L 359.807,22.1985 L 359.785,22.4546 L 359.775,22.6512 L 359.772,22.8462 L 359.776,23.0395 L 359.787,23.231
 L 359.805,23.421 L 359.83,23.6092 L 359.862,23.7958 L 359.901,23.9806 L 359.947,24.1638 L 360,24.3454
 L 360.06,24.5252 L 360.126,24.7034 L 360.2,24.8799 L 360.28,25.0547 L 360.368,25.2278 L 360.462,25.3993
 L 360.564,25.5691 L 360.672,25.7372 L 360.787,25.9036 L 360.91,26.0683 L 361.039,26.2314 L 361.175,26.3928
 L 361.318,26.5525 L 361.468,26.7105 L 361.625,26.8669 L 361.789,27.0216 L 361.962,27.1755 L 362.148,27.3295
 L 362.346,27.4837 L 362.555,27.6381 L 362.777,27.7926 L 363.011,27.9473 L 363.257,28.1022 L 363.516,28.2572
 L 363.786,28.4123 L 364.068,28.5677 L 364.363,28.7231 L 364.67,28.8788 L 364.988,29.0346 L 365.319,29.1906
 L 365.662,29.3467 L 366.017,29.503 L 366.385,29.6594 L 366.764,29.816 L 367.155,29.9727 L 367.559,30.1297
 L 367.975,30.2867 L 368.402,30.444 L 368.842,30.6014 L 369.294,30.7589 L 369.759,30.9166 L 370.235,31.0745
 L 370.678,31.219 L 371.109,31.3617 L 371.527,31.5024 L 371.933,31.6412 L 372.327,31.778 L 372.707,31.913
 L 373.076,32.0461 L 373.432,32.1772 L 373.775,32.3064 L 374.106,32.4337 L 374.424,32.559 L 374.73,32.6825
 L 375.023,32.804 L 375.304,32.9236 L 375.572,33.0413 L 375.827,33.1571 L 376.071,33.2709 L 376.301,33.3829
 L 376.52,33.4929 L 376.725,33.601 L 376.918,33.7072 L 377.099,33.8114 L 377.267,33.9138 L 377.423,34.0142
 L 377.566,34.1127 L 377.696,34.2093 L 377.818,34.3075 L 377.935,34.4068 L 378.046,34.5071 L 378.152,34.6084
 L 378.254,34.7108 L 378.35,34.8142 L 378.441,34.9186 L 378.527,35.0241 L 378.608,35.1306 L 378.684,35.2382
 L 378.754,35.3468 L 378.82,35.4565 L 378.88,35.5671 L 378.936,35.6789 L 378.986,35.7916 L 379.031,35.9054
 L 379.071,36.0203 L 379.106,36.1362 L 379.136,36.2531 L 379.161,36.3711 L 379.181,36.4901 L 379.195,36.6101
 L 379.205,36.7312 L 379.209,36.8533 L 379.209,36.9765 L 379.203,37.1007 L 379.189,37.2516 L 379.167,37.4011
 L 379.138,37.549 L 379.102,37.6954 L 379.058,37.8403 L 379.007,37.9837 L 378.948,38.1256 L 378.881,38.2659
 L 378.807,38.4047 L 378.726,38.542 L 378.637,38.6778 L 378.54,38.8121 L 378.436,38.9448 L 378.325,39.0761
 L 378.206,39.2058 L 378.079,39.334 L 377.945,39.4606 L 377.804,39.5858 L 377.654,39.7094 L 377.498,39.8315
 L 377.334,39.9521 L 377.162,40.0712 L 376.983,40.1888 L 376.797,40.3048 L 376.603,40.4194 L 376.401,40.5324
 L 376.194,40.6425 L 375.984,40.7482 L 375.772,40.8497 L 375.556,40.9468 L 375.337,41.0397 L 375.116,41.1282
 L 374.892,41.2123 L 374.664,41.2922 L 374.434,41.3678 L 374.201,41.439 L 373.965,41.5059 L 373.725,41.5685
 L 373.483,41.6268 L 373.238,41.6808 L 372.991,41.7304 L 372.74,41.7757 L 372.486,41.8167 L 372.229,41.8534
 L 371.97,41.8858 L 371.707,41.9139 L 371.442,41.9376 L 371.173,41.9571 L 370.902,41.9722 L 370.627,41.983
 L 370.35,41.9894 L 370.07,41.9916 L 369.78,41.9881 L 369.595,41.9484 L 369.215,41.8565 L 368.837,41.7549
 L 368.461,41.6437 L 368.088,41.5228 L 367.717,41.3921 L 367.348,41.2519 L 366.982,41.1019 L 366.618,40.9423
 L 366.256,40.773 L 365.897,40.594 L 365.54,40.4054 L 365.185,40.207 L 364.833,39.999 L 364.483,39.7814
 L 364.135,39.554 L 363.79,39.317 L 363.447,39.0703 L 360.394,38.7217 L 356.377,41.4242 L 356.557,41.5726
 L 356.741,41.7185 L 356.928,41.862 L 357.12,42.0029 L 357.316,42.1414 L 357.515,42.2775 L 357.719,42.411
 L 357.926,42.5421 L 358.138,42.6707 L 358.353,42.7968 L 358.573,42.9204 L 358.796,43.0416 L 359.023,43.1602
 L 359.255,43.2764 L 359.49,43.3902 L 359.729,43.5014 L 359.972,43.6102 L 360.22,43.7165 L 360.471,43.8203
 L 360.726,43.9216 L 360.985,44.0205 L 361.248,44.1169 L 361.515,44.2108 L 361.786,44.3023 L 362.061,44.3912
 L 362.34,44.4777 L 362.622,44.5613 L 362.905,44.6416 L 363.189,44.7186 L 363.475,44.7923 L 363.762,44.8628
 L 364.05,44.93 L 364.339,44.9939 L 364.63,45.0545 L 364.922,45.1119 L 365.216,45.166 L 365.511,45.2168
 L 365.807,45.2643 L 366.104,45.3085 L 366.403,45.3495 L 366.703,45.3872 L 370.057,45.7702 L 370.36,45.8013
 L 370.664,45.8292 L 370.969,45.8538 L 371.276,45.8751 L 371.584,45.8931 L 371.893,45.9079 L 372.204,45.9193
 L 372.516,45.9275 L 372.829,45.9324 L 373.143,45.9341 z
M 139.07,45.9326 L 139.468,45.9283 L 139.863,45.921 L 140.255,45.9107 L 140.644,45.8976 L 141.029,45.8815
 L 141.412,45.8626 L 141.792,45.8407 L 142.168,45.8159 L 142.542,45.7882 L 142.913,45.7575 L 143.28,45.724
 L 143.645,45.6875 L 144.006,45.6481 L 144.365,45.6058 L 144.72,45.5606 L 145.072,45.5125 L 145.422,45.4614
 L 145.768,45.4074 L 146.111,45.3505 L 146.452,45.2907 L 146.789,45.228 L 147.123,45.1623 L 147.454,45.0938
 L 147.782,45.0223 L 148.108,44.9479 L 148.43,44.8706 L 148.75,44.7907 L 149.068,44.7081 L 149.384,44.6229
 L 149.697,44.5349 L 150.008,44.4443 L 150.317,44.351 L 150.624,44.2551 L 150.928,44.1564 L 151.23,44.0551
 L 151.53,43.9511 L 151.827,43.8444 L 152.123,43.7351 L 152.416,43.6231 L 152.706,43.5084 L 152.995,43.391
 L 153.281,43.271 L 153.565,43.1482 L 153.846,43.0228 L 154.126,42.8947 L 154.403,42.764 L 154.678,42.6305
 L 154.95,42.4944 L 155.22,42.3557 L 155.488,42.2142 L 155.754,42.0701 L 156.018,41.9228 L 156.279,41.772
 L 156.539,41.6177 L 156.796,41.4599 L 157.051,41.2986 L 157.304,41.1337 L 157.555,40.9653 L 157.804,40.7934
 L 158.051,40.618 L 158.296,40.4391 L 158.539,40.2567 L 158.779,40.0707 L 159.018,39.8812 L 159.254,39.6882
 L 159.488,39.4917 L 159.721,39.2917 L 159.951,39.0881 L 160.179,38.8811 L 160.405,38.6705 L 160.629,38.4564
 L 160.851,38.2387 L 161.07,38.0176 L 161.288,37.7929 L 161.504,37.5647 L 161.717,37.3331 L 161.928,37.0978
 L 156.897,35.4227 L 153.845,35.074 L 153.616,35.2941 L 153.389,35.5094 L 153.163,35.72 L 152.938,35.9259
 L 152.716,36.1271 L 152.494,36.3236 L 152.274,36.5153 L 152.056,36.7024 L 151.839,36.8847 L 151.623,37.0623
 L 151.409,37.2352 L 151.197,37.4034 L 150.986,37.5668 L 150.776,37.7255 L 150.568,37.8795 L 150.362,38.0289
 L 150.156,38.1734 L 149.953,38.3133 L 149.751,38.4485 L 149.55,38.5789 L 149.351,38.7046 L 149.153,38.8256
 L 148.957,38.9419 L 148.762,39.0535 L 148.568,39.1603 L 148.377,39.2624 L 148.184,39.3614 L 147.989,39.4589
 L 147.79,39.5549 L 147.589,39.6494 L 147.385,39.7423 L 147.177,39.8337 L 146.967,39.9236 L 146.754,40.012
 L 146.538,40.0989 L 146.319,40.1842 L 146.098,40.2681 L 145.873,40.3504 L 145.645,40.4312 L 145.414,40.5104
 L 145.181,40.5882 L 144.944,40.6644 L 144.705,40.7391 L 144.462,40.8123 L 144.217,40.884 L 143.969,40.9542
 L 143.718,41.0228 L 143.464,41.09 L 143.207,41.1556 L 142.947,41.2197 L 142.684,41.2822 L 142.418,41.3433
 L 142.151,41.4024 L 141.883,41.4592 L 141.614,41.5136 L 141.346,41.5658 L 141.077,41.6156 L 140.807,41.6631
 L 140.537,41.7083 L 140.267,41.7512 L 139.996,41.7918 L 139.724,41.83 L 139.453,41.8659 L 139.181,41.8996
 L 138.908,41.9308 L 138.635,41.9598 L 138.362,41.9865 L 138.088,42.0108 L 137.814,42.0328 L 137.539,42.0525
 L 137.264,42.0699 L 136.988,42.085 L 136.712,42.0977 L 136.436,42.1081 L 136.159,42.1163 L 135.882,42.1221
 L 135.604,42.1255 L 135.326,42.1267 L 134.753,42.1218 L 134.188,42.1073 L 133.631,42.083 L 133.445,42.0715
 L 132.999,41.9897 L 132.503,41.8876 L 132.016,41.776 L 131.536,41.6546 L 131.064,41.5234 L 130.599,41.3826
 L 130.142,41.232 L 129.694,41.0717 L 129.252,40.9018 L 128.819,40.7221 L 128.393,40.5327 L 127.975,40.3335
 L 127.565,40.1247 L 127.162,39.9062 L 126.768,39.6779 L 126.381,39.4399 L 126.002,39.1922 L 125.634,38.9369
 L 125.281,38.6761 L 124.943,38.4099 L 124.62,38.1382 L 124.311,37.8609 L 124.018,37.5783 L 123.74,37.2901
 L 123.477,36.9965 L 123.228,36.6974 L 122.995,36.3928 L 122.776,36.0827 L 122.573,35.7672 L 122.384,35.4462
 L 122.21,35.1197 L 122.052,34.7877 L 121.908,34.4503 L 121.779,34.1074 L 121.665,33.759 L 121.566,33.4051
 L 121.482,33.0458 L 121.413,32.681 L 121.359,32.3107 L 121.32,31.9349 L 121.295,31.5537 L 121.286,31.167
 L 121.292,30.7748 L 163.921,30.7748 L 163.938,30.3142 L 163.939,29.8596 L 163.925,29.4109 L 163.896,28.968
 L 163.851,28.5311 L 163.791,28.1002 L 163.716,27.6751 L 163.625,27.2559 L 163.519,26.8427 L 163.397,26.4354
 L 163.26,26.034 L 163.108,25.6385 L 162.941,25.2489 L 162.758,24.8652 L 162.559,24.4875 L 162.346,24.1157
 L 162.117,23.7498 L 161.872,23.3898 L 161.613,23.0357 L 161.338,22.6875 L 161.047,22.3453 L 160.741,22.009
 L 160.42,21.6785 L 160.084,21.354 L 159.732,21.0355 L 159.365,20.7228 L 158.83,20.2926 L 158.279,19.8793
 L 157.713,19.4829 L 157.131,19.1033 L 156.534,18.7407 L 155.921,18.3948 L 155.293,18.0659 L 154.649,17.7538
 L 153.989,17.4586 L 153.314,17.1802 L 152.623,16.9188 L 151.917,16.6742 L 151.195,16.4464 L 150.457,16.2356
 L 149.704,16.0416 L 148.936,15.8644 L 148.152,15.7042 L 147.352,15.5608 L 146.536,15.4343 L 145.706,15.3246
 L 142.653,14.976 L 141.807,14.8832 L 140.944,14.8073 L 140.067,14.7483 L 139.174,14.7061 L 138.265,14.6808
 L 137.341,14.6723 L 136.442,14.6806 L 135.556,14.7053 L 134.683,14.7465 L 133.823,14.8041 L 132.976,14.8782
 L 132.142,14.9688 L 131.321,15.0759 L 130.513,15.1994 L 129.717,15.3394 L 128.935,15.4958 L 128.166,15.6688
 L 127.41,15.8582 L 126.666,16.064 L 125.936,16.2864 L 125.218,16.5252 L 124.514,16.7805 L 123.822,17.0522
 L 123.143,17.3404 L 122.478,17.6451 L 121.825,17.9663 L 121.185,18.3039 L 120.558,18.658 L 119.945,19.0286
 L 119.344,19.4156 L 118.756,19.8191 L 118.181,20.2391 L 117.74,20.5776 L 117.316,20.9197 L 116.908,21.2654
 L 116.516,21.6147 L 116.14,21.9676 L 115.781,22.3241 L 115.437,22.6842 L 115.11,23.0479 L 114.799,23.4152
 L 114.504,23.7861 L 114.225,24.1606 L 113.962,24.5387 L 113.715,24.9204 L 113.485,25.3057 L 113.27,25.6946
 L 113.072,26.0871 L 112.89,26.4832 L 112.724,26.8828 L 112.574,27.2861 L 112.44,27.693 L 112.323,28.1035
 L 112.221,28.5175 L 112.136,28.9352 L 112.067,29.3565 L 112.014,29.7813 L 111.977,30.2098 L 111.956,30.6653
 L 111.955,31.1171 L 111.973,31.5653 L 112.011,32.0099 L 112.068,32.4508 L 112.145,32.8881 L 112.242,33.3218
 L 112.358,33.7518 L 112.494,34.1782 L 112.65,34.601 L 112.825,35.0201 L 113.019,35.4355 L 113.233,35.8474
 L 113.467,36.2556 L 113.72,36.6601 L 113.993,37.0611 L 114.286,37.4583 L 114.598,37.852 L 114.93,38.242
 L 115.281,38.6284 L 115.652,39.0111 L 116.042,39.3902 L 116.452,39.7657 L 116.882,40.1375 L 117.331,40.5057
 L 117.8,40.8703 L 118.287,41.226 L 118.789,41.5678 L 119.308,41.8956 L 119.842,42.2095 L 120.392,42.5094
 L 120.958,42.7954 L 121.54,43.0674 L 122.138,43.3255 L 122.752,43.5697 L 123.381,43.7998 L 124.027,44.0161
 L 124.688,44.2183 L 125.366,44.4067 L 126.059,44.5811 L 126.768,44.7415 L 127.493,44.888 L 128.234,45.0205
 L 128.991,45.1391 L 129.763,45.2437 L 130.552,45.3344 L 133.604,45.683 L 134.409,45.7597 L 135.229,45.8225
 L 136.065,45.8713 L 136.918,45.9062 L 137.786,45.9271 L 138.67,45.9341 z
M 122.311,27.1567 L 122.461,26.8937 L 122.638,26.5969 L 122.82,26.3061 L 123.007,26.0213 L 123.199,25.7425
 L 123.396,25.4696 L 123.598,25.2028 L 123.804,24.942 L 124.016,24.6871 L 124.232,24.4383 L 124.453,24.1955
 L 124.68,23.9586 L 124.911,23.7278 L 125.146,23.5029 L 125.387,23.2841 L 125.633,23.0712 L 125.884,22.8643
 L 126.139,22.6635 L 126.399,22.4686 L 126.665,22.2798 L 126.935,22.0969 L 127.21,21.92 L 127.489,21.7491
 L 127.774,21.5842 L 128.064,21.4253 L 128.466,21.2153 L 128.874,21.0136 L 129.287,20.8201 L 129.706,20.6348
 L 130.129,20.4577 L 130.558,20.2889 L 130.992,20.1283 L 131.432,19.976 L 131.876,19.8319 L 132.326,19.696
 L 132.781,19.5684 L 133.242,19.449 L 133.707,19.3378 L 134.178,19.2348 L 134.654,19.1402 L 135.135,19.0537
 L 135.622,18.9755 L 136.114,18.9055 L 136.611,18.8437 L 137.113,18.7902 L 137.621,18.7449 L 138.134,18.7078
 L 138.652,18.679 L 139.175,18.6584 L 139.704,18.6461 L 140.238,18.6419 L 140.562,18.6436 L 140.885,18.6485
 L 141.207,18.6567 L 141.528,18.6682 L 141.847,18.6829 L 142.128,18.6989 L 142.212,18.713 L 142.514,18.7671
 L 142.815,18.8244 L 143.115,18.8851 L 143.413,18.9491 L 143.71,19.0163 L 144.006,19.0867 L 144.3,19.1605
 L 144.593,19.2376 L 144.884,19.3179 L 145.174,19.4015 L 145.461,19.4877 L 145.744,19.5761 L 146.022,19.6665
 L 146.295,19.759 L 146.564,19.8535 L 146.828,19.9502 L 147.087,20.0489 L 147.342,20.1497 L 147.593,20.2526
 L 147.838,20.3576 L 148.08,20.4647 L 148.316,20.5738 L 148.548,20.685 L 148.776,20.7983 L 148.998,20.9136
 L 149.217,21.0311 L 149.43,21.1506 L 149.639,21.2722 L 149.844,21.3959 L 150.044,21.5217 L 150.239,21.6495
 L 150.43,21.7794 L 150.616,21.9115 L 150.797,22.0455 L 150.974,22.1817 L 151.147,22.3199 L 151.315,22.461
 L 151.48,22.6057 L 151.641,22.7539 L 151.799,22.9057 L 151.953,23.0612 L 152.104,23.2202 L 152.251,23.3829
 L 152.394,23.5491 L 152.534,23.7189 L 152.671,23.8924 L 152.804,24.0694 L 152.933,24.25 L 153.059,24.4343
 L 153.182,24.6221 L 153.3,24.8135 L 153.416,25.0085 L 153.528,25.2072 L 153.636,25.4094 L 153.741,25.6152
 L 153.842,25.8246 L 153.94,26.0376 L 154.034,26.2542 L 154.124,26.4744 L 154.212,26.6983 L 154.295,26.9257
 L 154.375,27.1567 z
M 64.9559,45.9326 L 65.3538,45.9283 L 65.7486,45.921 L 66.1404,45.9107 L 66.5291,45.8976 L 66.9149,45.8815
 L 67.2975,45.8626 L 67.6772,45.8407 L 68.0538,45.8159 L 68.4274,45.7882 L 68.798,45.7575 L 69.1655,45.724
 L 69.5301,45.6875 L 69.8916,45.6481 L 70.25,45.6058 L 70.6054,45.5606 L 70.9578,45.5125 L 71.3072,45.4614
 L 71.6535,45.4074 L 71.9968,45.3505 L 72.3371,45.2907 L 72.6743,45.228 L 73.0086,45.1623 L 73.3398,45.0938
 L 73.6679,45.0223 L 73.993,44.9479 L 74.3155,44.8706 L 74.6357,44.7907 L 74.9537,44.7081 L 75.2693,44.6229
 L 75.5827,44.5349 L 75.8938,44.4443 L 76.2027,44.351 L 76.5093,44.2551 L 76.8136,44.1564 L 77.1156,44.0551
 L 77.4154,43.9511 L 77.7129,43.8444 L 78.0082,43.7351 L 78.3011,43.6231 L 78.5918,43.5084 L 78.8802,43.391
 L 79.1664,43.271 L 79.4503,43.1482 L 79.7319,43.0228 L 80.0113,42.8947 L 80.2883,42.764 L 80.5632,42.6305
 L 80.8357,42.4944 L 81.1059,42.3557 L 81.3739,42.2142 L 81.6397,42.0701 L 81.9032,41.9228 L 82.1647,41.772
 L 82.4241,41.6177 L 82.6813,41.4599 L 82.9365,41.2986 L 83.1897,41.1337 L 83.4407,40.9653 L 83.6896,40.7934
 L 83.9365,40.618 L 84.1813,40.4391 L 84.424,40.2567 L 84.6646,40.0707 L 84.9031,39.8812 L 85.1395,39.6882
 L 85.3738,39.4917 L 85.6061,39.2917 L 85.8363,39.0881 L 86.0644,38.8811 L 86.2904,38.6705 L 86.5143,38.4564
 L 86.7361,38.2387 L 86.9558,38.0176 L 87.1735,37.7929 L 87.389,37.5647 L 87.6025,37.3331 L 87.8139,37.0978
 L 82.7826,35.4227 L 79.7301,35.074 L 79.5013,35.2941 L 79.274,35.5094 L 79.0482,35.72 L 78.8239,35.9259
 L 78.601,36.1271 L 78.3797,36.3236 L 78.1597,36.5153 L 77.9413,36.7024 L 77.7244,36.8847 L 77.5089,37.0623
 L 77.2949,37.2352 L 77.0824,37.4034 L 76.8714,37.5668 L 76.6618,37.7255 L 76.4537,37.8795 L 76.2471,38.0289
 L 76.0419,38.1734 L 75.8383,38.3133 L 75.6361,38.4485 L 75.4354,38.5789 L 75.2361,38.7046 L 75.0384,38.8256
 L 74.8421,38.9419 L 74.6473,39.0535 L 74.4539,39.1603 L 74.2621,39.2624 L 74.0695,39.3614 L 73.8741,39.4589
 L 73.6757,39.5549 L 73.4743,39.6494 L 73.2701,39.7423 L 73.0629,39.8337 L 72.8528,39.9236 L 72.6397,40.012
 L 72.4238,40.0989 L 72.2048,40.1842 L 71.983,40.2681 L 71.7582,40.3504 L 71.5305,40.4312 L 71.2998,40.5104
 L 71.0663,40.5882 L 70.8298,40.6644 L 70.5903,40.7391 L 70.3479,40.8123 L 70.1026,40.884 L 69.8544,40.9542
 L 69.6033,41.0228 L 69.3492,41.09 L 69.0921,41.1556 L 68.8322,41.2197 L 68.5693,41.2822 L 68.3035,41.3433
 L 68.036,41.4024 L 67.7681,41.4592 L 67.4998,41.5136 L 67.2311,41.5658 L 66.962,41.6156 L 66.6924,41.6631
 L 66.4224,41.7083 L 66.152,41.7512 L 65.8811,41.7918 L 65.6099,41.83 L 65.3382,41.8659 L 65.0661,41.8996
 L 64.7935,41.9308 L 64.5205,41.9598 L 64.2471,41.9865 L 63.9733,42.0108 L 63.6991,42.0328 L 63.4244,42.0525
 L 63.1493,42.0699 L 62.8738,42.085 L 62.5979,42.0977 L 62.3215,42.1081 L 62.0447,42.1163 L 61.7675,42.1221
 L 61.4899,42.1255 L 61.2118,42.1267 L 60.6389,42.1218 L 60.0738,42.1073 L 59.5164,42.083 L 59.3304,42.0715
 L 58.8842,41.9897 L 58.3888,41.8876 L 57.9012,41.776 L 57.4212,41.6546 L 56.9491,41.5234 L 56.4846,41.3826
 L 56.0279,41.232 L 55.579,41.0717 L 55.1378,40.9018 L 54.7043,40.7221 L 54.2786,40.5327 L 53.8607,40.3335
 L 53.4504,40.1247 L 53.048,39.9062 L 52.6532,39.6779 L 52.2662,39.4399 L 51.887,39.1922 L 51.5191,38.9369
 L 51.1661,38.6761 L 50.8281,38.4099 L 50.505,38.1382 L 50.1969,37.8609 L 49.9037,37.5783 L 49.6254,37.2901
 L 49.3621,36.9965 L 49.1137,36.6974 L 48.8803,36.3928 L 48.6618,36.0827 L 48.4582,35.7672 L 48.2696,35.4462
 L 48.0959,35.1197 L 47.9372,34.7877 L 47.7934,34.4503 L 47.6645,34.1074 L 47.5506,33.759 L 47.4516,33.4051
 L 47.3676,33.0458 L 47.2985,32.681 L 47.2443,32.3107 L 47.2051,31.9349 L 47.1808,31.5537 L 47.1714,31.167
 L 47.177,30.7748 L 89.8067,30.7748 L 89.8234,30.3142 L 89.8248,29.8596 L 89.8108,29.4109 L 89.7814,28.968
 L 89.7367,28.5311 L 89.6766,28.1002 L 89.6012,27.6751 L 89.5104,27.2559 L 89.4043,26.8427 L 89.2828,26.4354
 L 89.1459,26.034 L 88.9937,25.6385 L 88.8261,25.2489 L 88.6432,24.8652 L 88.4449,24.4875 L 88.2312,24.1157
 L 88.0022,23.7498 L 87.7578,23.3898 L 87.4981,23.0357 L 87.223,22.6875 L 86.9326,22.3453 L 86.6268,22.009
 L 86.3056,21.6785 L 85.9691,21.354 L 85.6173,21.0355 L 85.2501,20.7228 L 84.7151,20.2926 L 84.1645,19.8793
 L 83.5983,19.4829 L 83.0166,19.1033 L 82.4193,18.7407 L 81.8065,18.3948 L 81.178,18.0659 L 80.534,17.7538
 L 79.8744,17.4586 L 79.1992,17.1802 L 78.5085,16.9188 L 77.8022,16.6742 L 77.0803,16.4464 L 76.3428,16.2356
 L 75.5898,16.0416 L 74.8212,15.8644 L 74.037,15.7042 L 73.2372,15.5608 L 72.4219,15.4343 L 71.591,15.3246
 L 68.5385,14.976 L 67.692,14.8832 L 66.83,14.8073 L 65.9523,14.7483 L 65.0591,14.7061 L 64.1503,14.6808
 L 63.226,14.6723 L 62.3272,14.6806 L 61.4413,14.7053 L 60.5684,14.7465 L 59.7084,14.8041 L 58.8614,14.8782
 L 58.0274,14.9688 L 57.2063,15.0759 L 56.3981,15.1994 L 55.6029,15.3394 L 54.8206,15.4958 L 54.0514,15.6688
 L 53.295,15.8582 L 52.5516,16.064 L 51.8212,16.2864 L 51.1037,16.5252 L 50.3992,16.7805 L 49.7076,17.0522
 L 49.0289,17.3404 L 48.3633,17.6451 L 47.7105,17.9663 L 47.0708,18.3039 L 46.4439,18.658 L 45.83,19.0286
 L 45.2291,19.4156 L 44.6412,19.8191 L 44.0661,20.2391 L 43.6258,20.5776 L 43.2016,20.9197 L 42.7936,21.2654
 L 42.4017,21.6147 L 42.0259,21.9676 L 41.6663,22.3241 L 41.3228,22.6842 L 40.9954,23.0479 L 40.6842,23.4152
 L 40.3891,23.7861 L 40.1101,24.1606 L 39.8473,24.5387 L 39.6006,24.9204 L 39.3701,25.3057 L 39.1557,25.6946
 L 38.9574,26.0871 L 38.7753,26.4832 L 38.6093,26.8828 L 38.4594,27.2861 L 38.3257,27.693 L 38.2081,28.1035
 L 38.1067,28.5175 L 38.0213,28.9352 L 37.9522,29.3565 L 37.8991,29.7813 L 37.8622,30.2098 L 37.8414,30.6653
 L 37.8401,31.1171 L 37.8584,31.5653 L 37.8963,32.0099 L 37.9538,32.4508 L 38.0309,32.8881 L 38.1275,33.3218
 L 38.2438,33.7518 L 38.3796,34.1782 L 38.535,34.601 L 38.7101,35.0201 L 38.9046,35.4355 L 39.1188,35.8474
 L 39.3526,36.2556 L 39.606,36.6601 L 39.8789,37.0611 L 40.1714,37.4583 L 40.4835,37.852 L 40.8152,38.242
 L 41.1665,38.6284 L 41.5374,39.0111 L 41.9278,39.3902 L 42.3379,39.7657 L 42.7675,40.1375 L 43.2167,40.5057
 L 43.6855,40.8703 L 44.1721,41.226 L 44.6746,41.5678 L 45.193,41.8956 L 45.7273,42.2095 L 46.2775,42.5094
 L 46.8435,42.7954 L 47.4255,43.0674 L 48.0233,43.3255 L 48.6371,43.5697 L 49.2667,43.7998 L 49.9123,44.0161
 L 50.5737,44.2183 L 51.251,44.4067 L 51.9442,44.5811 L 52.6533,44.7415 L 53.3783,44.888 L 54.1192,45.0205
 L 54.876,45.1391 L 55.6487,45.2437 L 56.4373,45.3344 L 59.4898,45.683 L 60.2943,45.7597 L 61.1147,45.8225
 L 61.9509,45.8713 L 62.8031,45.9062 L 63.6711,45.9271 L 64.5551,45.9341 z
M 48.1964,27.1567 L 48.3461,26.8937 L 48.5234,26.5969 L 48.7056,26.3061 L 48.8926,26.0213 L 49.0846,25.7425
 L 49.2814,25.4696 L 49.4831,25.2028 L 49.6897,24.942 L 49.9012,24.6871 L 50.1176,24.4383 L 50.3389,24.1955
 L 50.565,23.9586 L 50.796,23.7278 L 51.0319,23.5029 L 51.2727,23.2841 L 51.5184,23.0712 L 51.769,22.8643
 L 52.0244,22.6635 L 52.2847,22.4686 L 52.55,22.2798 L 52.8201,22.0969 L 53.0951,21.92 L 53.3749,21.7491
 L 53.6597,21.5842 L 53.9493,21.4253 L 54.3519,21.2153 L 54.7598,21.0136 L 55.1729,20.8201 L 55.5912,20.6348
 L 56.0148,20.4577 L 56.4437,20.2889 L 56.8778,20.1283 L 57.3171,19.976 L 57.7617,19.8319 L 58.2116,19.696
 L 58.6667,19.5684 L 59.127,19.449 L 59.5926,19.3378 L 60.0635,19.2348 L 60.5396,19.1402 L 61.0209,19.0537
 L 61.5075,18.9755 L 61.9994,18.9055 L 62.4965,18.8437 L 62.9989,18.7902 L 63.5065,18.7449 L 64.0193,18.7078
 L 64.5374,18.679 L 65.0608,18.6584 L 65.5894,18.6461 L 66.1232,18.6419 L 66.4477,18.6436 L 66.7709,18.6485
 L 67.0926,18.6567 L 67.413,18.6682 L 67.732,18.6829 L 68.0131,18.6989 L 68.0973,18.713 L 68.3997,18.7671
 L 68.7008,18.8244 L 69.0005,18.8851 L 69.2988,18.9491 L 69.5957,19.0163 L 69.8912,19.0867 L 70.1854,19.1605
 L 70.4781,19.2376 L 70.7696,19.3179 L 71.0596,19.4015 L 71.3467,19.4877 L 71.6292,19.5761 L 71.9071,19.6665
 L 72.1804,19.759 L 72.4491,19.8535 L 72.7132,19.9502 L 72.9728,20.0489 L 73.2277,20.1497 L 73.4781,20.2526
 L 73.7239,20.3576 L 73.9651,20.4647 L 74.2017,20.5738 L 74.4337,20.685 L 74.6611,20.7983 L 74.8839,20.9136
 L 75.1022,21.0311 L 75.3158,21.1506 L 75.5249,21.2722 L 75.7294,21.3959 L 75.9293,21.5217 L 76.1246,21.6495
 L 76.3152,21.7794 L 76.5014,21.9115 L 76.6829,22.0455 L 76.8598,22.1817 L 77.0322,22.3199 L 77.2005,22.461
 L 77.3652,22.6057 L 77.5264,22.7539 L 77.6842,22.9057 L 77.8383,23.0612 L 77.989,23.2202 L 78.1361,23.3829
 L 78.2797,23.5491 L 78.4197,23.7189 L 78.5563,23.8924 L 78.6893,24.0694 L 78.8187,24.25 L 78.9447,24.4343
 L 79.0671,24.6221 L 79.1859,24.8135 L 79.3013,25.0085 L 79.4131,25.2072 L 79.5214,25.4094 L 79.6262,25.6152
 L 79.7274,25.8246 L 79.8251,26.0376 L 79.9193,26.2542 L 80.0099,26.4744 L 80.097,26.6983 L 80.1806,26.9257
 L 80.2607,27.1567 z
M 329.742,45.9326 L 330.14,45.9283 L 330.534,45.921 L 330.926,45.9107 L 331.315,45.8976 L 331.701,45.8815
 L 332.083,45.8626 L 332.463,45.8407 L 332.84,45.8159 L 333.213,45.7882 L 333.584,45.7575 L 333.951,45.724
 L 334.316,45.6875 L 334.677,45.6481 L 335.036,45.6058 L 335.391,45.5606 L 335.744,45.5125 L 336.093,45.4614
 L 336.439,45.4074 L 336.783,45.3505 L 337.123,45.2907 L 337.46,45.228 L 337.794,45.1623 L 338.126,45.0938
 L 338.454,45.0223 L 338.779,44.9479 L 339.101,44.8706 L 339.422,44.7907 L 339.739,44.7081 L 340.055,44.6229
 L 340.369,44.5349 L 340.68,44.4443 L 340.989,44.351 L 341.295,44.2551 L 341.599,44.1564 L 341.901,44.0551
 L 342.201,43.9511 L 342.499,43.8444 L 342.794,43.7351 L 343.087,43.6231 L 343.378,43.5084 L 343.666,43.391
 L 343.952,43.271 L 344.236,43.1482 L 344.518,43.0228 L 344.797,42.8947 L 345.074,42.764 L 345.349,42.6305
 L 345.621,42.4944 L 345.892,42.3557 L 346.16,42.2142 L 346.425,42.0701 L 346.689,41.9228 L 346.95,41.772
 L 347.21,41.6177 L 347.467,41.4599 L 347.722,41.2986 L 347.975,41.1337 L 348.227,40.9653 L 348.475,40.7934
 L 348.722,40.618 L 348.967,40.4391 L 349.21,40.2567 L 349.45,40.0707 L 349.689,39.8812 L 349.925,39.6882
 L 350.16,39.4917 L 350.392,39.2917 L 350.622,39.0881 L 350.85,38.8811 L 351.076,38.6705 L 351.3,38.4564
 L 351.522,38.2387 L 351.742,38.0176 L 351.959,37.7929 L 352.175,37.5647 L 352.388,37.3331 L 352.6,37.0978
 L 347.568,35.4227 L 344.516,35.074 L 344.287,35.2941 L 344.06,35.5094 L 343.834,35.72 L 343.61,35.9259
 L 343.387,36.1271 L 343.165,36.3236 L 342.946,36.5153 L 342.727,36.7024 L 342.51,36.8847 L 342.295,37.0623
 L 342.081,37.2352 L 341.868,37.4034 L 341.657,37.5668 L 341.448,37.7255 L 341.24,37.8795 L 341.033,38.0289
 L 340.828,38.1734 L 340.624,38.3133 L 340.422,38.4485 L 340.221,38.5789 L 340.022,38.7046 L 339.824,38.8256
 L 339.628,38.9419 L 339.433,39.0535 L 339.24,39.1603 L 339.048,39.2624 L 338.855,39.3614 L 338.66,39.4589
 L 338.461,39.5549 L 338.26,39.6494 L 338.056,39.7423 L 337.849,39.8337 L 337.639,39.9236 L 337.426,40.012
 L 337.21,40.0989 L 336.991,40.1842 L 336.769,40.2681 L 336.544,40.3504 L 336.316,40.4312 L 336.086,40.5104
 L 335.852,40.5882 L 335.616,40.6644 L 335.376,40.7391 L 335.134,40.8123 L 334.888,40.884 L 334.64,40.9542
 L 334.389,41.0228 L 334.135,41.09 L 333.878,41.1556 L 333.618,41.2197 L 333.355,41.2822 L 333.089,41.3433
 L 332.822,41.4024 L 332.554,41.4592 L 332.286,41.5136 L 332.017,41.5658 L 331.748,41.6156 L 331.478,41.6631
 L 331.208,41.7083 L 330.938,41.7512 L 330.667,41.7918 L 330.396,41.83 L 330.124,41.8659 L 329.852,41.8996
 L 329.579,41.9308 L 329.306,41.9598 L 329.033,41.9865 L 328.759,42.0108 L 328.485,42.0328 L 328.21,42.0525
 L 327.935,42.0699 L 327.66,42.085 L 327.384,42.0977 L 327.107,42.1081 L 326.831,42.1163 L 326.553,42.1221
 L 326.276,42.1255 L 325.998,42.1267 L 325.425,42.1218 L 324.86,42.1073 L 324.302,42.083 L 324.116,42.0715
 L 323.67,41.9897 L 323.175,41.8876 L 322.687,41.776 L 322.207,41.6546 L 321.735,41.5234 L 321.27,41.3826
 L 320.814,41.232 L 320.365,41.0717 L 319.924,40.9018 L 319.49,40.7221 L 319.064,40.5327 L 318.646,40.3335
 L 318.236,40.1247 L 317.834,39.9062 L 317.439,39.6779 L 317.052,39.4399 L 316.673,39.1922 L 316.305,38.9369
 L 315.952,38.6761 L 315.614,38.4099 L 315.291,38.1382 L 314.983,37.8609 L 314.689,37.5783 L 314.411,37.2901
 L 314.148,36.9965 L 313.9,36.6974 L 313.666,36.3928 L 313.448,36.0827 L 313.244,35.7672 L 313.055,35.4462
 L 312.882,35.1197 L 312.723,34.7877 L 312.579,34.4503 L 312.45,34.1074 L 312.336,33.759 L 312.237,33.4051
 L 312.153,33.0458 L 312.084,32.681 L 312.03,32.3107 L 311.991,31.9349 L 311.967,31.5537 L 311.957,31.167
 L 311.963,30.7748 L 354.593,30.7748 L 354.609,30.3142 L 354.611,29.8596 L 354.597,29.4109 L 354.567,28.968
 L 354.523,28.5311 L 354.462,28.1002 L 354.387,27.6751 L 354.296,27.2559 L 354.19,26.8427 L 354.069,26.4354
 L 353.932,26.034 L 353.779,25.6385 L 353.612,25.2489 L 353.429,24.8652 L 353.231,24.4875 L 353.017,24.1157
 L 352.788,23.7498 L 352.544,23.3898 L 352.284,23.0357 L 352.009,22.6875 L 351.718,22.3453 L 351.413,22.009
 L 351.091,21.6785 L 350.755,21.354 L 350.403,21.0355 L 350.036,20.7228 L 349.501,20.2926 L 348.95,19.8793
 L 348.384,19.4829 L 347.802,19.1033 L 347.205,18.7407 L 346.592,18.3948 L 345.964,18.0659 L 345.32,17.7538
 L 344.66,17.4586 L 343.985,17.1802 L 343.294,16.9188 L 342.588,16.6742 L 341.866,16.4464 L 341.129,16.2356
 L 340.376,16.0416 L 339.607,15.8644 L 338.823,15.7042 L 338.023,15.5608 L 337.208,15.4343 L 336.377,15.3246
 L 333.324,14.976 L 332.478,14.8832 L 331.616,14.8073 L 330.738,14.7483 L 329.845,14.7061 L 328.936,14.6808
 L 328.012,14.6723 L 327.113,14.6806 L 326.227,14.7053 L 325.354,14.7465 L 324.494,14.8041 L 323.647,14.8782
 L 322.813,14.9688 L 321.992,15.0759 L 321.184,15.1994 L 320.389,15.3394 L 319.606,15.4958 L 318.837,15.6688
 L 318.081,15.8582 L 317.337,16.064 L 316.607,16.2864 L 315.889,16.5252 L 315.185,16.7805 L 314.493,17.0522
 L 313.815,17.3404 L 313.149,17.6451 L 312.496,17.9663 L 311.857,18.3039 L 311.23,18.658 L 310.616,19.0286
 L 310.015,19.4156 L 309.427,19.8191 L 308.852,20.2391 L 308.412,20.5776 L 307.987,20.9197 L 307.579,21.2654
 L 307.188,21.6147 L 306.812,21.9676 L 306.452,22.3241 L 306.109,22.6842 L 305.781,23.0479 L 305.47,23.4152
 L 305.175,23.7861 L 304.896,24.1606 L 304.633,24.5387 L 304.386,24.9204 L 304.156,25.3057 L 303.941,25.6946
 L 303.743,26.0871 L 303.561,26.4832 L 303.395,26.8828 L 303.245,27.2861 L 303.112,27.693 L 302.994,28.1035
 L 302.892,28.5175 L 302.807,28.9352 L 302.738,29.3565 L 302.685,29.7813 L 302.648,30.2098 L 302.627,30.6653
 L 302.626,31.1171 L 302.644,31.5653 L 302.682,32.0099 L 302.74,32.4508 L 302.817,32.8881 L 302.913,33.3218
 L 303.03,33.7518 L 303.165,34.1782 L 303.321,34.601 L 303.496,35.0201 L 303.69,35.4355 L 303.905,35.8474
 L 304.138,36.2556 L 304.392,36.6601 L 304.665,37.0611 L 304.957,37.4583 L 305.269,37.852 L 305.601,38.242
 L 305.952,38.6284 L 306.323,39.0111 L 306.714,39.3902 L 307.124,39.7657 L 307.553,40.1375 L 308.003,40.5057
 L 308.471,40.8703 L 308.958,41.226 L 309.46,41.5678 L 309.979,41.8956 L 310.513,42.2095 L 311.063,42.5094
 L 311.629,42.7954 L 312.211,43.0674 L 312.809,43.3255 L 313.423,43.5697 L 314.053,43.7998 L 314.698,44.0161
 L 315.359,44.2183 L 316.037,44.4067 L 316.73,44.5811 L 317.439,44.7415 L 318.164,44.888 L 318.905,45.0205
 L 319.662,45.1391 L 320.435,45.2437 L 321.223,45.3344 L 324.276,45.683 L 325.08,45.7597 L 325.9,45.8225
 L 326.737,45.8713 L 327.589,45.9062 L 328.457,45.9271 L 329.341,45.9341 z
M 312.982,27.1567 L 313.132,26.8937 L 313.309,26.5969 L 313.491,26.3061 L 313.678,26.0213 L 313.87,25.7425
 L 314.067,25.4696 L 314.269,25.2028 L 314.476,24.942 L 314.687,24.6871 L 314.903,24.4383 L 315.125,24.1955
 L 315.351,23.9586 L 315.582,23.7278 L 315.818,23.5029 L 316.059,23.2841 L 316.304,23.0712 L 316.555,22.8643
 L 316.81,22.6635 L 317.071,22.4686 L 317.336,22.2798 L 317.606,22.0969 L 317.881,21.92 L 318.161,21.7491
 L 318.446,21.5842 L 318.735,21.4253 L 319.138,21.2153 L 319.546,21.0136 L 319.959,20.8201 L 320.377,20.6348
 L 320.801,20.4577 L 321.229,20.2889 L 321.664,20.1283 L 322.103,19.976 L 322.548,19.8319 L 322.997,19.696
 L 323.453,19.5684 L 323.913,19.449 L 324.378,19.3378 L 324.849,19.2348 L 325.325,19.1402 L 325.807,19.0537
 L 326.293,18.9755 L 326.785,18.9055 L 327.282,18.8437 L 327.785,18.7902 L 328.292,18.7449 L 328.805,18.7078
 L 329.323,18.679 L 329.847,18.6584 L 330.375,18.6461 L 330.909,18.6419 L 331.234,18.6436 L 331.557,18.6485
 L 331.878,18.6567 L 332.199,18.6682 L 332.518,18.6829 L 332.799,18.6989 L 332.883,18.713 L 333.186,18.7671
 L 333.487,18.8244 L 333.786,18.8851 L 334.085,18.9491 L 334.382,19.0163 L 334.677,19.0867 L 334.971,19.1605
 L 335.264,19.2376 L 335.555,19.3179 L 335.845,19.4015 L 336.132,19.4877 L 336.415,19.5761 L 336.693,19.6665
 L 336.966,19.759 L 337.235,19.8535 L 337.499,19.9502 L 337.759,20.0489 L 338.014,20.1497 L 338.264,20.2526
 L 338.51,20.3576 L 338.751,20.4647 L 338.987,20.5738 L 339.219,20.685 L 339.447,20.7983 L 339.67,20.9136
 L 339.888,21.0311 L 340.102,21.1506 L 340.311,21.2722 L 340.515,21.3959 L 340.715,21.5217 L 340.91,21.6495
 L 341.101,21.7794 L 341.287,21.9115 L 341.469,22.0455 L 341.646,22.1817 L 341.818,22.3199 L 341.986,22.461
 L 342.151,22.6057 L 342.312,22.7539 L 342.47,22.9057 L 342.624,23.0612 L 342.775,23.2202 L 342.922,23.3829
 L 343.065,23.5491 L 343.206,23.7189 L 343.342,23.8924 L 343.475,24.0694 L 343.605,24.25 L 343.73,24.4343
 L 343.853,24.6221 L 343.972,24.8135 L 344.087,25.0085 L 344.199,25.2072 L 344.307,25.4094 L 344.412,25.6152
 L 344.513,25.8246 L 344.611,26.0376 L 344.705,26.2542 L 344.796,26.4744 L 344.883,26.6983 L 344.966,26.9257
 L 345.047,27.1567 z
M 243.564,15.7777 L 240.512,15.4291 L 234.366,15.4291 L 232.396,44.8288 L 235.448,45.1774 L 241.594,45.1774
 z
" stroke="black" fill="lightgray" stroke-width="0.5"/>
</svg>
