<?xml version="1.0" standalone="no"?>
<!DOCTYPE svg PUBLIC "-//W3C//DTD SVG 1.1//EN" "http://www.w3.org/Graphics/SVG/1.1/DTD/svg11.dtd">
<svg width="472mm" height="101mm" viewBox="-82 -50 472 101" xmlns="http://www.w3.org/2000/svg" version="1.1">
<title>OpenSCAD Model</title>
<path d="
M 3.09203,49.8855 L 6.46936,49.0699 L 9.80925,47.7205 L 13.0751,45.8521 L 16.2312,43.4851 L 19.2429,40.6455
 L 22.0771,37.3645 L 24.703,33.6778 L 27.0916,29.626 L 29.2169,25.2535 L 31.0555,20.6081 L 32.5873,15.7407
 L 32.6951,15.2915 L 29.6425,14.9429 L 24.095,14.9429 L 24.0729,15.0314 L 22.7761,19.1401 L 21.265,23.0391
 L 19.5561,26.6857 L 17.6681,30.04 L 15.6218,33.0651 L 13.4396,35.7279 L 11.1453,37.9993 L 8.76411,39.8544
 L 6.32211,41.2728 L 3.84607,42.2391 L 1.3631,42.7425 L -0.0711823,42.763 L -0.462494,42.6927 L -2.80421,41.7953
 L -5.04654,40.4437 L -7.16492,38.6529 L -9.13615,36.4424 L -10.9386,33.8364 L -12.5526,30.8635 L -13.9604,27.5563
 L -15.1465,23.951 L -16.0981,20.0872 L -16.8047,16.007 L -17.2584,11.7553 L -17.4544,7.37863 L -17.3997,3.55789
 L -14.3535,3.76532 L -5.93771,4.28641 L 2.54309,4.76054 L 10.996,5.18251 L 19.3285,5.5477 L 27.4492,5.85211
 L 35.2692,6.09241 L 42.7028,6.26596 L 49.6685,6.37085 L 56.09,6.40594 L 61.897,6.37085 L 67.0258,6.26596
 L 71.4203,6.09241 L 75.0323,5.85211 L 77.8222,5.5477 L 79.7595,5.18251 L 80.8229,4.76054 L 81.0008,4.28641
 L 81.0676,3.29021 L 80.358,2.76912 L 78.7688,2.20677 L 76.3172,1.60933 L 73.0303,0.983337 L 68.944,0.335663
 L 64.103,-0.326584 L 58.5604,-0.996185 L 52.377,-1.66579 L 45.6204,-2.32806 L 38.3648,-2.97574 L 30.6895,-3.60172
 L 22.6788,-4.19916 L 14.4203,-4.76151 L 6.00449,-5.28261 L -2.47632,-5.75673 L -10.9293,-6.17871 L -16.4132,-6.41905
 L -15.6608,-10.4093 L -14.5925,-14.6827 L -13.2957,-18.7915 L -11.7846,-22.6905 L -10.0757,-26.3371 L -8.18774,-29.6913
 L -6.14143,-32.7165 L -3.95918,-35.3793 L -1.6649,-37.6507 L 0.716263,-39.5058 L 3.15826,-40.9242 L 5.63431,-41.8904
 L 8.11728,-42.3939 L 9.55162,-42.4144 L 9.94289,-42.3441 L 12.2846,-41.4467 L 14.5269,-40.0951 L 16.6453,-38.3043
 L 18.6165,-36.0937 L 20.419,-33.4878 L 22.033,-30.5149 L 23.4408,-27.2077 L 24.6269,-23.6024 L 25.5785,-19.7385
 L 26.285,-15.6584 L 26.3614,-14.9429 L 29.4139,-14.5943 L 34.698,-14.5943 L 34.6505,-15.0434 L 33.7711,-19.9108
 L 32.5552,-24.5562 L 31.016,-28.9288 L 29.1705,-32.9806 L 27.0388,-36.6672 L 24.6443,-39.9483 L 22.0132,-42.7879
 L 19.1744,-45.1548 L 16.159,-47.0232 L 13,-48.3727 L 9.73196,-49.1882 L 6.67944,-49.5369 L 3.33826,-49.8097
 L -0.039505,-49.5369 L -3.41684,-48.7213 L -6.75673,-47.3719 L -10.0226,-45.5034 L -13.1787,-43.1365 L -16.1903,-40.2969
 L -19.0246,-37.0158 L -21.6505,-33.3292 L -24.0391,-29.2774 L -26.1644,-24.9049 L -28.003,-20.2594 L -29.5348,-15.392
 L -30.743,-10.356 L -31.3161,-6.96919 L -35.2025,-7.08861 L -42.636,-7.26215 L -49.6017,-7.36703 L -56.0232,-7.40213
 L -61.8302,-7.36703 L -66.9591,-7.26215 L -71.3535,-7.08861 L -74.9655,-6.84831 L -77.7554,-6.5439 L -79.6927,-6.17871
 L -80.7561,-5.75673 L -80.9341,-5.28261 L -81.0008,-4.28641 L -80.2913,-3.76532 L -78.702,-3.20297 L -76.2505,-2.60553
 L -72.9635,-1.97954 L -68.8772,-1.33186 L -64.0362,-0.669601 L -58.4937,-0 L -52.3102,0.669601 L -45.5537,1.33186
 L -38.298,1.97954 L -32.2216,2.47513 L -32.3123,5.20653 L -32.1311,10.356 L -31.5979,15.392 L -30.7186,20.2594
 L -29.5026,24.9049 L -27.9635,29.2774 L -26.1179,33.3292 L -23.9863,37.0158 L -21.5918,40.2969 L -18.9607,43.1365
 L -16.1219,45.5034 L -13.1065,47.3719 L -9.94745,48.7213 L -6.67944,49.5369 L -3.62692,49.8855 L -0.285736,50.1584
 z
M -32.431,1.30801 L -39.441,0.75441 L -46.0182,0.181641 L -52.0905,-0.404022 L -57.5913,-0.996185 L -62.4604,-1.58835
 L -66.6444,-2.17403 L -70.0976,-2.74681 L -72.782,-3.3004 L -74.6683,-3.82875 L -75.4606,-4.19786 L -75.4433,-4.21001
 L -74.0206,-4.58318 L -71.7868,-4.90613 L -68.7666,-5.17534 L -64.993,-5.38785 L -60.5072,-5.54132 L -55.3586,-5.63408
 L -49.6034,-5.66512 L -43.3048,-5.63408 L -36.5317,-5.54132 L -31.5757,-5.43529 L -31.6144,-5.20653 L -32.1394,-0
 L -32.1834,1.32578 z
M 43.3715,4.63789 L 36.5984,4.54512 L 29.4251,4.39165 L 21.9301,4.17914 L 14.1955,3.90994 L 6.30621,3.58698
 L -1.65147,3.21381 L -9.59035,2.79451 L -17.3483,2.3381 L -17.0675,-1.55698 L -16.6218,-4.9929 L -14.1288,-4.90613
 L -6.23944,-4.58318 L 1.71825,-4.21001 L 9.65712,-3.7907 L 17.4902,-3.32986 L 25.1316,-2.83255 L 32.4977,-2.3042
 L 39.5078,-1.75061 L 46.0849,-1.17784 L 52.1572,-0.592163 L 57.658,-0 L 62.5272,0.592163 L 66.7112,1.17784
 L 70.1644,1.75061 L 72.8488,2.3042 L 74.735,2.83255 L 75.5273,3.20166 L 75.51,3.21381 L 74.0873,3.58698
 L 71.8536,3.90994 L 68.8334,4.17914 L 65.0597,4.39165 L 60.574,4.54512 L 55.4253,4.63789 L 49.6702,4.66891
 z
M 43.3939,-25.5975 L 43.5682,-26.6274 L 43.8098,-27.6346 L 44.1162,-28.6081 L 44.4839,-29.5372 L 44.909,-30.4117
 L 45.3867,-31.2221 L 45.9118,-31.9594 L 46.4787,-32.6156 L 47.081,-33.1835 L 47.7122,-33.6569 L 48.3654,-34.0306
 L 49.0334,-34.3005 L 49.7089,-34.4636 L 50.3844,-34.5182 L 49.5555,-34.6129 L 49.0626,-34.7359 L 48.4308,-35.0058
 L 47.8277,-35.3794 L 47.2599,-35.8528 L 46.7337,-36.4207 L 46.2548,-37.077 L 45.8285,-37.8143 L 45.4594,-38.6246
 L 45.1516,-39.4992 L 44.9084,-40.4282 L 44.7325,-41.4017 L 44.6259,-42.4089 L 44.5896,-43.4388 L 44.6242,-44.4801
 L 41.5717,-44.8288 L 41.4667,-43.7874 L 41.2924,-42.7576 L 41.0508,-41.7504 L 40.7444,-40.7769 L 40.3767,-39.8478
 L 39.9516,-38.9733 L 39.4739,-38.1629 L 38.9487,-37.4256 L 38.3819,-36.7694 L 37.7795,-36.2015 L 37.1483,-35.7281
 L 36.4952,-35.3544 L 35.8272,-35.0845 L 35.1517,-34.9214 L 34.4762,-34.8668 L 35.3051,-34.7721 L 35.798,-34.6491
 L 36.4298,-34.3792 L 37.0329,-34.0056 L 37.6006,-33.5322 L 38.1269,-32.9642 L 38.6058,-32.308 L 39.0321,-31.5707
 L 39.4012,-30.7603 L 39.709,-29.8858 L 39.9522,-28.9568 L 40.1281,-27.9833 L 40.2347,-26.9761 L 40.271,-25.9462
 L 40.2364,-24.9049 L 43.2889,-24.5562 z
M 57.3146,-40.0082 L 57.4497,-40.0408 L 57.5833,-40.0948 L 57.7139,-40.1695 L 57.8402,-40.2642 L 57.9606,-40.3778
 L 58.074,-40.509 L 58.1791,-40.6565 L 58.2746,-40.8185 L 58.3596,-40.9935 L 58.4332,-41.1793 L 58.4944,-41.374
 L 58.5428,-41.5754 L 58.5776,-41.7814 L 58.5986,-41.9896 L 58.6055,-42.1979 L 58.5983,-42.4039 L 58.577,-42.6053
 L 58.5418,-42.8 L 58.4931,-42.9858 L 58.4316,-43.1607 L 58.3578,-43.3228 L 58.2725,-43.4703 L 58.1767,-43.6015
 L 58.0715,-43.7151 L 57.9579,-43.8098 L 57.8373,-43.8845 L 57.7109,-43.9385 L 57.5802,-43.9711 L 54.5277,-44.3197
 L 54.3941,-44.3307 L 54.2589,-44.3197 L 54.1239,-44.2871 L 53.9902,-44.2331 L 53.8596,-44.1584 L 53.7334,-44.0637
 L 53.6129,-43.9501 L 53.4995,-43.8189 L 53.3945,-43.6714 L 53.299,-43.5094 L 53.2139,-43.3345 L 53.1404,-43.1487
 L 53.0791,-42.9539 L 53.0308,-42.7525 L 52.9959,-42.5465 L 52.9749,-42.3383 L 52.968,-42.13 L 52.9753,-41.924
 L 52.9966,-41.7226 L 53.0318,-41.5279 L 53.0804,-41.3421 L 53.142,-41.1672 L 53.2158,-41.0051 L 53.3011,-40.8576
 L 53.3969,-40.7264 L 53.5021,-40.6128 L 53.6156,-40.5181 L 53.7363,-40.4434 L 53.8626,-40.3894 L 53.9933,-40.3568
 L 57.0459,-40.0082 L 57.1795,-39.9973 z
M 241.377,9.89973 L 241.875,9.85666 L 242.355,9.78487 L 242.818,9.68437 L 243.264,9.55515 L 243.692,9.39722
 L 244.104,9.21056 L 244.498,8.99519 L 244.861,8.75998 L 245.179,8.51381 L 245.451,8.25665 L 245.677,7.98854
 L 245.858,7.70944 L 245.994,7.41939 L 246.083,7.11836 L 246.127,6.80635 L 246.125,6.48801 L 246.077,6.1815
 L 245.98,5.8868 L 245.837,5.60394 L 245.647,5.33292 L 245.41,5.07373 L 245.125,4.82635 L 244.793,4.59082
 L 244.428,4.37546 L 244.041,4.18881 L 243.634,4.03087 L 243.205,3.90164 L 242.756,3.80115 L 242.285,3.72937
 L 239.233,3.38074 L 238.741,3.33766 L 238.229,3.32332 L 237.724,3.33766 L 237.236,3.38074 L 236.763,3.45251
 L 236.306,3.55302 L 235.865,3.68225 L 235.439,3.84018 L 235.029,4.02682 L 234.636,4.2422 L 234.273,4.47774
 L 233.955,4.72511 L 233.683,4.9843 L 233.456,5.25533 L 233.275,5.53818 L 233.14,5.83287 L 233.05,6.13939
 L 233.005,6.45773 L 233.008,6.76974 L 233.057,7.07076 L 233.153,7.36082 L 233.297,7.63992 L 233.487,7.90804
 L 233.724,8.16518 L 234.009,8.41136 L 234.34,8.64658 L 234.705,8.86194 L 235.09,9.04858 L 235.494,9.20653
 L 235.918,9.33574 L 236.362,9.43623 L 236.825,9.50803 L 239.878,9.85666 L 240.36,9.89973 L 240.863,9.91408
 z
M 106.78,4.42863 L 103.727,4.08002 L 97.6253,4.08002 L 94.8943,44.8288 L 97.9468,45.1774 L 104.049,45.1774
 z
M 220.036,19.0201 L 229.713,19.0201 L 229.931,15.7777 L 226.878,15.4291 L 220.277,15.4291 L 220.985,4.86098
 L 217.933,4.51236 L 211.787,4.51236 L 211.055,15.4291 L 202.73,15.4291 L 202.513,18.6715 L 205.565,19.0201
 L 210.815,19.0201 L 209.085,44.8288 L 212.138,45.1774 L 218.283,45.1774 z
M 65.8468,45.9187 L 67.1066,45.8725 L 68.3343,45.7954 L 69.5301,45.6875 L 70.6938,45.5488 L 71.8255,45.3793
 L 72.9253,45.179 L 73.993,44.9479 L 75.0328,44.6871 L 76.0486,44.398 L 77.0403,44.0807 L 78.0082,43.7351
 L 78.952,43.3612 L 79.8719,42.9591 L 80.7678,42.5287 L 81.6397,42.0701 L 82.4886,41.5786 L 83.3154,41.05
 L 84.1203,40.4842 L 84.9031,39.8812 L 85.6638,39.2411 L 86.4026,38.5638 L 87.1193,37.8494 L 87.8139,37.0978
 L 82.7826,35.4227 L 79.7301,35.074 L 78.992,35.772 L 78.2695,36.4201 L 77.5626,37.0183 L 76.8714,37.5668
 L 76.1956,38.0654 L 75.5355,38.5143 L 74.891,38.9133 L 74.2621,39.2624 L 73.6256,39.5787 L 72.9582,39.8789
 L 72.2598,40.163 L 71.5305,40.4312 L 70.7702,40.6832 L 69.9789,40.9193 L 69.1567,41.1393 L 68.3035,41.3433
 L 67.4327,41.5269 L 66.5575,41.686 L 65.6777,41.8207 L 64.7935,41.9308 L 63.9048,42.0165 L 63.0116,42.0777
 L 62.114,42.1144 L 61.2118,42.1267 L 59.4188,42.0765 L 59.0093,42.0136 L 57.4212,41.6546 L 55.915,41.1929
 L 54.4905,40.6286 L 53.1479,39.9617 L 51.887,39.1922 L 50.7459,38.3425 L 49.7627,37.4349 L 48.9372,36.4694
 L 48.2696,35.4462 L 47.7598,34.3651 L 47.4077,33.2262 L 47.2135,32.0294 L 47.177,30.7748 L 89.8067,30.7748
 L 89.8049,29.2996 L 89.6409,27.8869 L 89.3146,26.5367 L 88.8261,25.2489 L 88.1754,24.0237 L 87.3625,22.8609
 L 86.3874,21.7606 L 85.2501,20.7228 L 83.4544,19.3864 L 81.4942,18.2283 L 79.3695,17.2482 L 77.0803,16.4464
 L 74.6266,15.8228 L 72.0084,15.3773 L 68.9559,15.0287 L 66.1732,14.7614 L 63.226,14.6723 L 60.3522,14.7593
 L 57.6152,15.0203 L 55.015,15.4552 L 52.5516,16.064 L 50.2251,16.8469 L 48.0353,17.8036 L 45.9823,18.9344
 L 44.0661,20.2391 L 42.6941,21.3524 L 41.4925,22.5037 L 40.4613,23.6931 L 39.6006,24.9204 L 38.9104,26.1857
 L 38.3905,27.4891 L 38.0412,28.8304 L 37.8622,30.2098 L 37.8661,31.6768 L 38.0768,33.1054 L 38.4944,34.4956
 L 39.1188,35.8474 L 39.9502,37.1607 L 40.9884,38.4357 L 42.2336,39.6722 L 43.6855,40.8703 L 45.3251,41.9754
 L 47.1325,42.9332 L 49.1078,43.7436 L 51.251,44.4067 L 53.5621,44.9224 L 56.041,45.2908 L 59.0936,45.6394
 L 61.7404,45.8604 L 64.5551,45.9341 z
M 48.2059,27.1567 L 48.5685,26.5236 L 49.1824,25.6053 L 49.8479,24.7503 L 50.565,23.9586 L 51.3337,23.2303
 L 52.154,22.5653 L 53.0259,21.9637 L 53.9493,21.4253 L 55.277,20.773 L 56.6601,20.2076 L 58.0986,19.7292
 L 59.5926,19.3378 L 61.1421,19.0334 L 62.747,18.8159 L 64.4074,18.6854 L 66.1232,18.6419 L 67.1729,18.6593
 L 68.0165,18.7016 L 68.173,18.7262 L 69.1498,18.9167 L 70.112,19.1418 L 71.0596,19.4015 L 71.9758,19.6894
 L 72.8436,19.9993 L 73.6629,20.3312 L 74.4337,20.685 L 75.156,21.0608 L 75.8299,21.4585 L 76.4553,21.8783
 L 77.0322,22.3199 L 77.5662,22.7915 L 78.063,23.3011 L 78.5225,23.8487 L 78.9447,24.4343 L 79.3296,25.0579
 L 79.6772,25.7195 L 79.9876,26.4191 L 80.2607,27.1567 z
M 139.961,45.9187 L 141.221,45.8725 L 142.449,45.7954 L 143.645,45.6875 L 144.808,45.5488 L 145.94,45.3793
 L 147.04,45.179 L 148.108,44.9479 L 149.147,44.6871 L 150.163,44.398 L 151.155,44.0807 L 152.123,43.7351
 L 153.067,43.3612 L 153.986,42.9591 L 154.882,42.5287 L 155.754,42.0701 L 156.603,41.5786 L 157.43,41.05
 L 158.235,40.4842 L 159.018,39.8812 L 159.778,39.2411 L 160.517,38.5638 L 161.234,37.8494 L 161.928,37.0978
 L 156.897,35.4227 L 153.845,35.074 L 153.107,35.772 L 152.384,36.4201 L 151.677,37.0183 L 150.986,37.5668
 L 150.31,38.0654 L 149.65,38.5143 L 149.006,38.9133 L 148.377,39.2624 L 147.74,39.5787 L 147.073,39.8789
 L 146.374,40.163 L 145.645,40.4312 L 144.885,40.6832 L 144.093,40.9193 L 143.271,41.1393 L 142.418,41.3433
 L 141.547,41.5269 L 140.672,41.686 L 139.792,41.8207 L 138.908,41.9308 L 138.019,42.0165 L 137.126,42.0777
 L 136.228,42.1144 L 135.326,42.1267 L 133.533,42.0765 L 133.124,42.0136 L 131.536,41.6546 L 130.03,41.1929
 L 128.605,40.6286 L 127.262,39.9617 L 126.002,39.1922 L 124.86,38.3425 L 123.877,37.4349 L 123.052,36.4694
 L 122.384,35.4462 L 121.874,34.3651 L 121.522,33.2262 L 121.328,32.0294 L 121.292,30.7748 L 163.921,30.7748
 L 163.919,29.2996 L 163.755,27.8869 L 163.429,26.5367 L 162.941,25.2489 L 162.29,24.0237 L 161.477,22.8609
 L 160.502,21.7606 L 159.365,20.7228 L 157.569,19.3864 L 155.609,18.2283 L 153.484,17.2482 L 151.195,16.4464
 L 148.741,15.8228 L 146.123,15.3773 L 143.07,15.0287 L 140.288,14.7614 L 137.341,14.6723 L 134.467,14.7593
 L 131.73,15.0203 L 129.13,15.4552 L 126.666,16.064 L 124.34,16.8469 L 122.15,17.8036 L 120.097,18.9344
 L 118.181,20.2391 L 116.809,21.3524 L 115.607,22.5037 L 114.576,23.6931 L 113.715,24.9204 L 113.025,26.1857
 L 112.505,27.4891 L 112.156,28.8304 L 111.977,30.2098 L 111.981,31.6768 L 112.191,33.1054 L 112.609,34.4956
 L 113.233,35.8474 L 114.065,37.1607 L 115.103,38.4357 L 116.348,39.6722 L 117.8,40.8703 L 119.44,41.9754
 L 121.247,42.9332 L 123.222,43.7436 L 125.366,44.4067 L 127.677,44.9224 L 130.156,45.2908 L 133.208,45.6394
 L 135.855,45.8604 L 138.67,45.9341 z
M 122.32,27.1567 L 122.683,26.5236 L 123.297,25.6053 L 123.962,24.7503 L 124.68,23.9586 L 125.448,23.2303
 L 126.269,22.5653 L 127.14,21.9637 L 128.064,21.4253 L 129.392,20.773 L 130.775,20.2076 L 132.213,19.7292
 L 133.707,19.3378 L 135.257,19.0334 L 136.862,18.8159 L 138.522,18.6854 L 140.238,18.6419 L 141.287,18.6593
 L 142.131,18.7016 L 142.288,18.7262 L 143.264,18.9167 L 144.227,19.1418 L 145.174,19.4015 L 146.09,19.6894
 L 146.958,19.9993 L 147.777,20.3312 L 148.548,20.685 L 149.271,21.0608 L 149.944,21.4585 L 150.57,21.8783
 L 151.147,22.3199 L 151.681,22.7915 L 152.178,23.3011 L 152.637,23.8487 L 153.059,24.4343 L 153.444,25.0579
 L 153.792,25.7195 L 154.102,26.4191 L 154.375,27.1567 z
M 183.979,45.8948 L 185.427,45.777 L 186.817,45.5807 L 188.148,45.3059 L 189.42,44.9525 L 190.633,44.5206
 L 191.788,44.0102 L 192.883,43.4213 L 193.887,42.7757 L 194.765,42.0955 L 195.517,41.3806 L 196.144,40.6311
 L 196.644,39.8471 L 197.019,39.0284 L 197.269,38.1751 L 197.392,37.2871 L 197.397,36.6534 L 197.326,36.0357
 L 197.179,35.4341 L 196.956,34.8484 L 196.657,34.2789 L 196.282,33.7253 L 195.831,33.1878 L 195.304,32.6664
 L 194.66,32.1572 L 193.88,31.6429 L 192.964,31.1236 L 191.912,30.5992 L 190.725,30.0697 L 189.401,29.5352
 L 187.941,28.9956 L 186.346,28.4509 L 185.041,28.0122 L 183.854,27.5878 L 182.786,27.1779 L 181.838,26.7823
 L 181.008,26.401 L 180.297,26.0342 L 179.705,25.6817 L 179.232,25.3436 L 178.845,25.0172 L 178.513,24.6866
 L 178.235,24.3518 L 178.013,24.0127 L 177.845,23.6695 L 177.732,23.322 L 177.674,22.9703 L 177.671,22.6144
 L 177.73,22.2154 L 177.855,21.829 L 178.046,21.4554 L 178.301,21.0944 L 178.622,20.7461 L 179.008,20.4104
 L 179.459,20.0875 L 179.975,19.7772 L 180.536,19.4922 L 181.121,19.2451 L 181.73,19.0361 L 182.363,18.8651
 L 183.02,18.7321 L 183.701,18.6371 L 184.406,18.5801 L 185.134,18.5611 L 185.279,18.5668 L 185.583,18.6266
 L 186.751,18.9487 L 187.92,19.3629 L 189.09,19.8691 L 190.26,20.4673 L 191.431,21.1576 L 194.483,21.5062
 L 198.574,18.9934 L 196.982,18.0624 L 195.384,17.2555 L 193.78,16.5727 L 192.171,16.0141 L 190.556,15.5796
 L 188.935,15.2693 L 187.309,15.083 L 184.256,14.7344 L 182.625,14.6723 L 181.247,14.707 L 179.925,14.8109
 L 178.659,14.984 L 177.449,15.2263 L 176.295,15.538 L 175.198,15.9188 L 174.156,16.3689 L 173.17,16.8883
 L 172.268,17.4599 L 171.479,18.067 L 170.803,18.7096 L 170.24,19.3876 L 169.789,20.1012 L 169.451,20.8502
 L 169.226,21.6347 L 169.114,22.4546 L 169.107,23.0875 L 169.174,23.7027 L 169.315,24.3001 L 169.529,24.8799
 L 169.816,25.4419 L 170.176,25.9862 L 170.61,26.5127 L 171.118,27.0216 L 171.726,27.5223 L 172.462,28.0247
 L 173.325,28.5288 L 174.317,29.0346 L 175.437,29.5421 L 176.684,30.0512 L 178.06,30.562 L 179.563,31.0745
 L 180.959,31.5373 L 182.222,31.9798 L 183.353,32.402 L 184.352,32.804 L 185.218,33.1857 L 185.953,33.5472
 L 186.555,33.8884 L 187.025,34.2093 L 187.402,34.5323 L 187.725,34.8663 L 187.994,35.2112 L 188.209,35.5671
 L 188.371,35.9341 L 188.478,36.3119 L 188.532,36.7008 L 188.531,37.1007 L 188.459,37.5858 L 188.307,38.0548
 L 188.075,38.5079 L 187.765,38.9448 L 187.375,39.3658 L 186.906,39.7707 L 186.357,40.1595 L 185.73,40.5324
 L 185.047,40.8744 L 184.333,41.1708 L 183.588,41.4216 L 182.812,41.6268 L 182.005,41.7864 L 181.167,41.9004
 L 180.299,41.9688 L 179.399,41.9916 L 179.129,41.981 L 178.639,41.8804 L 177.417,41.5228 L 176.22,41.0629
 L 175.047,40.5009 L 173.899,39.8367 L 172.775,39.0703 L 169.723,38.7217 L 165.706,41.4242 L 166.305,41.8974
 L 166.945,42.3445 L 167.628,42.7655 L 168.352,43.1602 L 169.118,43.5289 L 169.927,43.8713 L 170.777,44.1876
 L 171.669,44.4777 L 172.589,44.7373 L 173.523,44.9623 L 174.471,45.1527 L 175.433,45.3085 L 176.409,45.4297
 L 179.461,45.7783 L 180.451,45.8649 L 181.455,45.9168 L 182.472,45.9341 z
M 260.642,34.3958 L 260.75,32.9999 L 260.876,31.7172 L 261.023,30.5476 L 261.189,29.4912 L 261.375,28.548
 L 261.58,27.7178 L 261.805,27.0009 L 262.05,26.3971 L 262.501,25.5764 L 263.042,24.7895 L 263.674,24.0363
 L 264.398,23.3169 L 265.212,22.6313 L 266.118,21.9794 L 267.115,21.3613 L 268.202,20.777 L 269.351,20.2449
 L 270.531,19.7838 L 271.743,19.3936 L 272.986,19.0744 L 274.26,18.8261 L 275.566,18.6487 L 276.902,18.5423
 L 278.271,18.5069 L 279.45,18.5299 L 279.644,18.5418 L 280.512,18.7336 L 281.39,18.9867 L 282.208,19.2858
 L 282.965,19.631 L 283.661,20.0218 L 284.294,20.4577 L 284.864,20.9388 L 285.371,21.4651 L 285.815,22.0365
 L 286.196,22.6532 L 286.514,23.3149 L 286.769,24.0218 L 286.9,24.5003 L 287.003,25.0843 L 287.076,25.7738
 L 287.121,26.5688 L 287.137,27.4694 L 287.124,28.4755 L 287.082,29.5872 L 287.012,30.8043 L 286.072,44.8288
 L 289.124,45.1774 L 295.183,45.1774 L 296.197,30.0452 L 296.264,28.5949 L 296.263,27.2434 L 296.193,25.9908
 L 296.056,24.8369 L 295.851,23.7818 L 295.578,22.8255 L 295.237,21.968 L 294.828,21.2094 L 294.35,20.5181
 L 293.803,19.8632 L 293.185,19.2446 L 292.498,18.6624 L 291.741,18.1164 L 290.913,17.6068 L 290.016,17.1335
 L 289.049,16.6966 L 288.027,16.3039 L 286.964,15.9635 L 285.86,15.6755 L 284.715,15.4399 L 283.529,15.2566
 L 280.476,14.908 L 279.249,14.7771 L 277.981,14.6985 L 276.672,14.6723 L 275.376,14.6958 L 274.1,14.7661
 L 272.846,14.8833 L 271.613,15.0473 L 270.402,15.2582 L 269.212,15.516 L 268.043,15.8207 L 266.895,16.1722
 L 265.769,16.571 L 264.665,17.0174 L 263.581,17.5116 L 262.519,18.0534 L 261.707,18.5138 L 261.89,15.7777
 L 258.838,15.4291 L 252.735,15.4291 L 250.765,44.8288 L 253.817,45.1774 L 259.92,45.1774 z
M 330.633,45.9187 L 331.892,45.8725 L 333.12,45.7954 L 334.316,45.6875 L 335.48,45.5488 L 336.611,45.3793
 L 337.711,45.179 L 338.779,44.9479 L 339.819,44.6871 L 340.834,44.398 L 341.826,44.0807 L 342.794,43.7351
 L 343.738,43.3612 L 344.658,42.9591 L 345.554,42.5287 L 346.425,42.0701 L 347.274,41.5786 L 348.101,41.05
 L 348.906,40.4842 L 349.689,39.8812 L 350.45,39.2411 L 351.188,38.5638 L 351.905,37.8494 L 352.6,37.0978
 L 347.568,35.4227 L 344.516,35.074 L 343.778,35.772 L 343.055,36.4201 L 342.348,37.0183 L 341.657,37.5668
 L 340.981,38.0654 L 340.321,38.5143 L 339.677,38.9133 L 339.048,39.2624 L 338.411,39.5787 L 337.744,39.8789
 L 337.046,40.163 L 336.316,40.4312 L 335.556,40.6832 L 334.765,40.9193 L 333.942,41.1393 L 333.089,41.3433
 L 332.219,41.5269 L 331.343,41.686 L 330.464,41.8207 L 329.579,41.9308 L 328.691,42.0165 L 327.797,42.0777
 L 326.9,42.1144 L 325.998,42.1267 L 324.205,42.0765 L 323.795,42.0136 L 322.207,41.6546 L 320.701,41.1929
 L 319.276,40.6286 L 317.934,39.9617 L 316.673,39.1922 L 315.532,38.3425 L 314.548,37.4349 L 313.723,36.4694
 L 313.055,35.4462 L 312.546,34.3651 L 312.194,33.2262 L 311.999,32.0294 L 311.963,30.7748 L 354.593,30.7748
 L 354.591,29.2996 L 354.427,27.8869 L 354.1,26.5367 L 353.612,25.2489 L 352.961,24.0237 L 352.148,22.8609
 L 351.173,21.7606 L 350.036,20.7228 L 348.24,19.3864 L 346.28,18.2283 L 344.155,17.2482 L 341.866,16.4464
 L 339.412,15.8228 L 336.794,15.3773 L 333.742,15.0287 L 330.959,14.7614 L 328.012,14.6723 L 325.138,14.7593
 L 322.401,15.0203 L 319.801,15.4552 L 317.337,16.064 L 315.011,16.8469 L 312.821,17.8036 L 310.768,18.9344
 L 308.852,20.2391 L 307.48,21.3524 L 306.278,22.5037 L 305.247,23.6931 L 304.386,24.9204 L 303.696,26.1857
 L 303.176,27.4891 L 302.827,28.8304 L 302.648,30.2098 L 302.652,31.6768 L 302.863,33.1054 L 303.28,34.4956
 L 303.905,35.8474 L 304.736,37.1607 L 305.774,38.4357 L 307.019,39.6722 L 308.471,40.8703 L 310.111,41.9754
 L 311.918,42.9332 L 313.894,43.7436 L 316.037,44.4067 L 318.348,44.9224 L 320.827,45.2908 L 323.879,45.6394
 L 326.526,45.8604 L 329.341,45.9341 z
M 312.992,27.1567 L 313.354,26.5236 L 313.968,25.6053 L 314.634,24.7503 L 315.351,23.9586 L 316.119,23.2303
 L 316.94,22.5653 L 317.812,21.9637 L 318.735,21.4253 L 320.063,20.773 L 321.446,20.2076 L 322.884,19.7292
 L 324.378,19.3378 L 325.928,19.0334 L 327.533,18.8159 L 329.193,18.6854 L 330.909,18.6419 L 331.959,18.6593
 L 332.802,18.7016 L 332.959,18.7262 L 333.936,18.9167 L 334.898,19.1418 L 335.845,19.4015 L 336.762,19.6894
 L 337.629,19.9993 L 338.449,20.3312 L 339.219,20.685 L 339.942,21.0608 L 340.616,21.4585 L 341.241,21.8783
 L 341.818,22.3199 L 342.352,22.7915 L 342.849,23.3011 L 343.308,23.8487 L 343.73,24.4343 L 344.115,25.0579
 L 344.463,25.7195 L 344.773,26.4191 L 345.047,27.1567 z
M 374.65,45.8948 L 376.099,45.777 L 377.488,45.5807 L 378.819,45.3059 L 380.091,44.9525 L 381.304,44.5206
 L 382.459,44.0102 L 383.555,43.4213 L 384.558,42.7757 L 385.436,42.0955 L 386.188,41.3806 L 386.815,40.6311
 L 387.316,39.8471 L 387.691,39.0284 L 387.94,38.1751 L 388.063,37.2871 L 388.068,36.6534 L 387.997,36.0357
 L 387.85,35.4341 L 387.627,34.8484 L 387.328,34.2789 L 386.953,33.7253 L 386.503,33.1878 L 385.975,32.6664
 L 385.331,32.1572 L 384.551,31.6429 L 383.635,31.1236 L 382.584,30.5992 L 381.396,30.0697 L 380.072,29.5352
 L 378.613,28.9956 L 377.017,28.4509 L 375.712,28.0122 L 374.525,27.5878 L 373.458,27.1779 L 372.509,26.7823
 L 371.679,26.401 L 370.968,26.0342 L 370.376,25.6817 L 369.903,25.3436 L 369.516,25.0172 L 369.184,24.6866
 L 368.907,24.3518 L 368.684,24.0127 L 368.516,23.6695 L 368.404,23.322 L 368.345,22.9703 L 368.342,22.6144
 L 368.402,22.2154 L 368.527,21.829 L 368.717,21.4554 L 368.972,21.0944 L 369.293,20.7461 L 369.679,20.4104
 L 370.13,20.0875 L 370.646,19.7772 L 371.207,19.4922 L 371.792,19.2451 L 372.401,19.0361 L 373.034,18.8651
 L 373.691,18.7321 L 374.372,18.6371 L 375.077,18.5801 L 375.806,18.5611 L 375.951,18.5668 L 376.254,18.6266
 L 377.422,18.9487 L 378.591,19.3629 L 379.761,19.8691 L 380.931,20.4673 L 382.102,21.1576 L 385.154,21.5062
 L 389.246,18.9934 L 387.653,18.0624 L 386.055,17.2555 L 384.451,16.5727 L 382.842,16.0141 L 381.227,15.5796
 L 379.606,15.2693 L 377.98,15.083 L 374.928,14.7344 L 373.296,14.6723 L 371.918,14.707 L 370.596,14.8109
 L 369.33,14.984 L 368.121,15.2263 L 366.967,15.538 L 365.869,15.9188 L 364.827,16.3689 L 363.841,16.8883
 L 362.939,17.4599 L 362.151,18.067 L 361.475,18.7096 L 360.911,19.3876 L 360.46,20.1012 L 360.123,20.8502
 L 359.897,21.6347 L 359.785,22.4546 L 359.778,23.0875 L 359.846,23.7027 L 359.986,24.3001 L 360.2,24.8799
 L 360.487,25.4419 L 360.848,25.9862 L 361.282,26.5127 L 361.789,27.0216 L 362.397,27.5223 L 363.133,28.0247
 L 363.997,28.5288 L 364.988,29.0346 L 366.108,29.5421 L 367.356,30.0512 L 368.731,30.562 L 370.235,31.0745
 L 371.63,31.5373 L 372.893,31.9798 L 374.024,32.402 L 375.023,32.804 L 375.889,33.1857 L 376.624,33.5472
 L 377.226,33.8884 L 377.696,34.2093 L 378.073,34.5323 L 378.396,34.8663 L 378.665,35.2112 L 378.88,35.5671
 L 379.042,35.9341 L 379.149,36.3119 L 379.203,36.7008 L 379.203,37.1007 L 379.13,37.5858 L 378.978,38.0548
 L 378.747,38.5079 L 378.436,38.9448 L 378.046,39.3658 L 377.577,39.7707 L 377.029,40.1595 L 376.401,40.5324
 L 375.718,40.8744 L 375.004,41.1708 L 374.259,41.4216 L 373.483,41.6268 L 372.677,41.7864 L 371.839,41.9004
 L 370.97,41.9688 L 370.07,41.9916 L 369.801,41.981 L 369.31,41.8804 L 368.088,41.5228 L 366.891,41.0629
 L 365.718,40.5009 L 364.57,39.8367 L 363.447,39.0703 L 360.394,38.7217 L 356.377,41.4242 L 356.976,41.8974
 L 357.617,42.3445 L 358.299,42.7655 L 359.023,43.1602 L 359.79,43.5289 L 360.598,43.8713 L 361.448,44.1876
 L 362.34,44.4777 L 363.26,44.7373 L 364.195,44.9623 L 365.142,45.1527 L 366.104,45.3085 L 367.08,45.4297
 L 370.133,45.7783 L 371.122,45.8649 L 372.126,45.9168 L 373.143,45.9341 z
M 243.564,15.7777 L 240.512,15.4291 L 234.366,15.4291 L 232.396,44.8288 L 235.448,45.1774 L 241.594,45.1774
 z
" stroke="black" fill="lightgray" stroke-width="0.5"/>
</svg>
